<svg xmlns="http://www.w3.org/2000/svg" width="12" height="16" viewBox="0 0 12 16">
    <g fill="none" fill-rule="nonzero">
        <path fill="#000" d="M5.667 3.478c-1.172 0-2.125.937-2.125 2.087 0 1.15.953 2.087 2.125 2.087 1.171 0 2.125-.936 2.125-2.087 0-1.15-.954-2.087-2.125-2.087zm0 3.578c-.837 0-1.518-.669-1.518-1.49 0-.823.68-1.491 1.518-1.491.837 0 1.518.668 1.518 1.49s-.681 1.49-1.518 1.49z"/>
        <path fill="#333" d="M9.674 1.641A5.663 5.663 0 0 0 5.667 0 5.662 5.662 0 0 0 1.66 1.641C-.32 3.6-.567 7.284 1.127 9.517L5.667 16l4.534-6.474c1.7-2.242 1.454-5.926-.527-7.885zm.047 7.543l-4.054 5.79-4.06-5.799C.07 7.15.29 3.822 2.078 2.055a5.072 5.072 0 0 1 3.59-1.47c1.355 0 2.63.522 3.589 1.47 1.787 1.767 2.008 5.095.464 7.13z"/>
    </g>
</svg>
