<svg xmlns="http://www.w3.org/2000/svg" xmlns:xlink="http://www.w3.org/1999/xlink" width="75" height="75" viewBox="0 0 75 75">
    <defs>
        <path id="a" d="M0 0h75v75H0z"/>
    </defs>
    <g fill="none" fill-rule="evenodd">
        <g>
            <mask id="b" fill="#fff">
                <use xlink:href="#a"/>
            </mask>
            <use fill="#FFF" xlink:href="#a"/>
            <path fill="#5C5C5C" fill-rule="nonzero" stroke="#5C5C5C" stroke-width=".712" d="M24.6 16.003a.71.71 0 0 0-.577.71v6.386h-7.802a.71.71 0 0 0-.133 0 .71.71 0 0 0-.576.71v6.387H7.709a.71.71 0 0 0-.133 0 .71.71 0 0 0-.576.71V59.29c0 .392.318.71.71.71h42.557a.71.71 0 0 0 .71-.71v-6.386h7.802a.71.71 0 0 0 .71-.71v-6.387h7.802a.71.71 0 0 0 .709-.71V16.714a.71.71 0 0 0-.71-.71H24.734a.71.71 0 0 0-.133 0zm.842 1.42h41.14v26.965h-7.094V23.81a.71.71 0 0 0-.709-.71H25.442v-5.677zm-8.512 7.096h7.603a.71.71 0 0 0 .2.022l33.337-.022v20.579a.71.71 0 0 0 0 .089v6.297h-7.093V30.905a.71.71 0 0 0-.71-.71H16.93V24.52zM8.42 31.615h7.603a.71.71 0 0 0 .199.022l33.337-.022v20.58a.71.71 0 0 0 0 .088v6.298H8.418V31.615zm27.618 5.655a.71.71 0 0 0-.532.288L25.42 51.018l-2.97-3.547a.716.716 0 1 0-1.109.909l3.547 4.258a.71.71 0 0 0 1.13-.022l10.64-14.193a.71.71 0 0 0-.62-1.153z" mask="url(#b)"/>
        </g>
    </g>
</svg>
