<svg xmlns="http://www.w3.org/2000/svg" width="17" height="19" viewBox="0 0 17 19">
    <g fill="#333" fill-rule="nonzero">
        <path d="M14.38 6.174h-3.75a.298.298 0 0 0-.305.29c0 .161.136.291.304.291h3.751c.169 0 .305-.13.305-.29 0-.161-.136-.291-.305-.291zM14.38 7.919h-3.75a.298.298 0 0 0-.305.29c0 .161.136.291.304.291h3.751c.169 0 .305-.13.305-.29 0-.161-.136-.291-.305-.291zM14.38 9.664h-3.75a.298.298 0 0 0-.305.29c0 .161.136.291.304.291h3.751c.169 0 .305-.13.305-.29 0-.161-.136-.291-.305-.291zM8.45 6.174H6.471a.298.298 0 0 0-.304.29c0 .161.136.291.304.291H8.45c.168 0 .304-.13.304-.29 0-.161-.136-.291-.304-.291zM8.45 7.919H6.471a.298.298 0 0 0-.304.29c0 .161.136.291.304.291H8.45c.168 0 .304-.13.304-.29 0-.161-.136-.291-.304-.291zM8.45 9.664H6.471a.298.298 0 0 0-.304.29c0 .161.136.291.304.291H8.45c.168 0 .304-.13.304-.29 0-.161-.136-.291-.304-.291zM8.45 11.408H6.471a.298.298 0 0 0-.304.291c0 .16.136.291.304.291H8.45c.168 0 .304-.13.304-.29 0-.161-.136-.292-.304-.292zM14.38 4.235H6.472a.298.298 0 0 0-.304.29c0 .161.136.292.304.292h7.908c.169 0 .305-.13.305-.291 0-.16-.136-.291-.305-.291zM14.38 13.23H6.472a.298.298 0 0 0-.304.292c0 .16.136.29.304.29h7.908c.169 0 .305-.13.305-.29 0-.16-.136-.291-.305-.291zM8.45 14.704H6.471a.298.298 0 0 0-.304.291c0 .16.136.291.304.291H8.45c.168 0 .304-.13.304-.29 0-.161-.136-.292-.304-.292z"/>
        <path d="M16.693 16.538a.298.298 0 0 0-.304.29v1.295c0 .163-.145.295-.322.295H4.622c-.177 0-.32-.132-.32-.295V2.02c0-.563-.247-1.073-.643-1.44h11.189c.85 0 1.54.646 1.54 1.44V17.15c0 .16.137.29.305.29.168 0 .304-.13.304-.29V2.02C16.997.907 16.033 0 14.847 0H2.153C.967 0 .003.907.003 2.021v.655c0 .16.136.29.304.29.168 0 .304-.13.304-.29V2.02c0-.794.692-1.44 1.541-1.44.85 0 1.54.646 1.54 1.44V8.28a.292.292 0 0 0-.05.05.47.47 0 0 1-.374.182.474.474 0 0 1-.332-.132.311.311 0 0 0-.432 0 .478.478 0 0 1-.575.066s-.198-.115-.304-.115c-.105 0-.304.115-.304.115a.478.478 0 0 1-.243.066.457.457 0 0 1-.467-.446V2.548c0-.16-.136-.29-.304-.29a.298.298 0 0 0-.304.29v5.517c0 .567.482 1.028 1.075 1.028.196 0 .383-.05.547-.143.164.093.352.143.548.143.196 0 .383-.05.547-.143a1.105 1.105 0 0 0 .973.058v9.115c0 .483.417.877.93.877h11.444c.513 0 .93-.394.93-.877v-1.294c0-.161-.136-.291-.304-.291z"/>
    </g>
</svg>
