<?xml version="1.0" encoding="UTF-8"?>
<svg width="17px" height="16px" viewBox="0 0 17 16" version="1.1" xmlns="http://www.w3.org/2000/svg" xmlns:xlink="http://www.w3.org/1999/xlink">
    <!-- Generator: Sketch 47.1 (45422) - http://www.bohemiancoding.com/sketch -->
    <title>calendar</title>
    <desc>Created with Sketch.</desc>
    <defs>
        <path d="M14.31388,1.10547 C15.7983,1.10547 16.9646,2.27438 16.9646,3.76214 L16.9646,13.326168 C16.9646,14.813924 15.7983,15.9828397 14.31388,15.9828397 L2.65072,15.9828397 C1.166297,15.9828397 0,14.813924 0,13.326168 L0,3.76214 C0,2.27438 1.166297,1.10547 2.65072,1.10547 L4.771272,1.10547 L4.771272,0.57411 C4.771272,0.25527 4.983376,0.04275 5.301441,0.04275 C5.619566,0.04275 5.831609,0.25533 5.831609,0.57411 L5.831609,1.10547 L11.13299,1.10547 L11.13299,0.57411 C11.13299,0.25527 11.34503,0.04275 11.66316,0.04275 C11.98128,0.04275 12.19333,0.25533 12.19333,0.57411 L12.19333,1.10547 L14.31388,1.10547 Z M1.060276,3.76214 L1.060276,5.35615 L15.90438,5.35615 L15.90438,3.76214 C15.90438,2.912 15.16217,2.16812 14.31394,2.16812 L12.19339,2.16812 L12.19339,2.69948 C12.19339,3.01832 11.98134,3.23084 11.66322,3.23084 C11.34509,3.23084 11.13305,3.01826 11.13305,2.69948 L11.13305,2.16812 L5.831609,2.16812 L5.831609,2.69948 C5.831609,3.01832 5.619505,3.23084 5.301441,3.23084 C4.983315,3.23084 4.771272,3.01826 4.771272,2.69948 L4.771272,2.16812 L2.65072,2.16812 C1.802487,2.16812 1.060276,2.912 1.060276,3.76214 Z M15.90432,13.326168 L15.90432,6.418809 L1.060276,6.418809 L1.060276,13.326168 C1.060276,14.176305 1.802487,14.920183 2.65072,14.920183 L14.31388,14.920183 C15.16211,14.920183 15.90432,14.176305 15.90432,13.326168 Z" id="path-1"></path>
        <path d="M1.710996,2.326168 C2.029061,2.326168 2.241165,2.219908 2.453208,2.007389 C2.665251,1.79487 2.771272,1.476031 2.771272,1.263511 C2.771272,1.050992 2.665251,0.732153 2.453208,0.519634 C2.029122,0.094595 1.392932,0.094595 0.968785,0.519634 C0.756742,0.732153 0.65072,0.944672 0.65072,1.263511 C0.65072,1.476031 0.756742,1.79487 0.968785,2.007389 C1.180828,2.219908 1.392932,2.326168 1.710996,2.326168 Z" id="path-3"></path>
        <path d="M1.710996,2.138137 C2.029061,2.138137 2.241165,2.031878 2.453208,1.819359 C2.665251,1.60684 2.771272,1.288 2.771272,1.075481 C2.771272,0.862962 2.665251,0.544122 2.453208,0.331603 C2.029122,-0.093435 1.392932,-0.093435 0.968785,0.331603 C0.756742,0.544122 0.65072,0.756641 0.65072,1.075481 C0.65072,1.394321 0.756742,1.60684 0.968785,1.819359 C1.180828,2.031878 1.392932,2.138137 1.710996,2.138137 Z" id="path-5"></path>
        <path d="M1.891885,2.326168 C2.20995,2.326168 2.422054,2.219908 2.634097,2.007389 C2.84614,1.79487 2.952161,1.476031 2.952161,1.263511 C2.952161,1.050992 2.84614,0.732153 2.634097,0.519634 C2.210011,0.094595 1.573821,0.094595 1.149674,0.519634 C0.937631,0.732153 0.831609,1.050992 0.831609,1.263511 C0.831609,1.476031 0.937631,1.79487 1.149674,2.007389 C1.361717,2.219908 1.573821,2.326168 1.891885,2.326168 Z" id="path-7"></path>
        <path d="M1.891885,2.138137 C2.20995,2.138137 2.422054,2.031878 2.634097,1.819359 C2.84614,1.60684 2.952161,1.288 2.952161,1.075481 C2.952161,0.862962 2.84614,0.544122 2.634097,0.331603 C2.210011,-0.093435 1.573821,-0.093435 1.149674,0.331603 C0.937631,0.544122 0.831609,0.862962 0.831609,1.075481 C0.831609,1.288 0.937631,1.60684 1.149674,1.819359 C1.361717,2.031878 1.573821,2.138137 1.891885,2.138137 Z" id="path-9"></path>
        <path d="M1.07271,2.326168 C1.39078,2.326168 1.60288,2.219908 1.81492,2.007389 C2.02697,1.79487 2.13299,1.582351 2.13299,1.263511 C2.13299,0.944672 2.02697,0.732153 1.81492,0.519634 C1.39084,0.094595 0.754649,0.094595 0.330502,0.519634 C0.118459,0.732153 0.012437,1.050992 0.012437,1.263511 C0.012437,1.476031 0.118459,1.79487 0.330502,2.007389 C0.542545,2.219908 0.754649,2.326168 1.07271,2.326168 Z" id="path-11"></path>
        <path d="M1.07271,2.138137 C1.39078,2.138137 1.60288,2.031878 1.81492,1.819359 C2.02697,1.60684 2.13299,1.394321 2.13299,1.075481 C2.13299,0.862962 2.02697,0.544122 1.81492,0.331603 C1.39084,-0.093435 0.754649,-0.093435 0.330502,0.331603 C0.118459,0.544122 0.012437,0.862962 0.012437,1.075481 C0.012437,1.288 0.118459,1.60684 0.330502,1.819359 C0.542545,2.031878 0.754649,2.138137 1.07271,2.138137 Z" id="path-13"></path>
        <path d="M1.2536,2.326168 C1.57167,2.326168 1.78377,2.219908 1.99581,2.007389 C2.20786,1.79487 2.31388,1.476031 2.31388,1.263511 C2.31388,1.050992 2.20786,0.732153 1.99581,0.519634 C1.57173,0.094595 0.93554,0.094595 0.51139,0.519634 C0.29935,0.732153 0.19333,0.944672 0.19333,1.263511 C0.19333,1.476031 0.29935,1.79487 0.51139,2.007389 C0.72343,2.219908 0.93554,2.326168 1.2536,2.326168 Z" id="path-15"></path>
        <path d="M1.2536,2.138137 C1.57167,2.138137 1.78377,2.031878 1.99581,1.819359 C2.20786,1.60684 2.31388,1.394321 2.31388,1.075481 C2.31388,0.862962 2.20786,0.544122 1.99581,0.331603 C1.57173,-0.093435 0.93554,-0.093435 0.51139,0.331603 C0.29935,0.544122 0.19333,0.862962 0.19333,1.075481 C0.19333,1.288 0.29935,1.60684 0.51139,1.819359 C0.72343,2.031878 0.93554,2.138137 1.2536,2.138137 Z" id="path-17"></path>
    </defs>
    <g id="Page-1" stroke="none" stroke-width="1" fill="none" fill-rule="evenodd">
        <g id="calendar">
            <g id="schedule">
                <g id="Group-3">
                    <mask id="mask-2" fill="white">
                        <use xlink:href="#path-1"></use>
                    </mask>
                    <g id="Clip-2"></g>
                    <polygon id="Fill-1" fill="#333333" mask="url(#mask-2)" points="-5 20.98284 21.9646 20.98284 21.9646 -4.95725 -5 -4.95725"></polygon>
                </g>
                <g id="Group-6" transform="translate(2.000000, 11.000000)">
                    <mask id="mask-4" fill="white">
                        <use xlink:href="#path-3"></use>
                    </mask>
                    <g id="Clip-5"></g>
                    <polygon id="Fill-4" fill="#333333" mask="url(#mask-4)" points="-4.34928 7.326168 7.77127 7.326168 7.77127 -4.799142 -4.34928 -4.799142"></polygon>
                </g>
                <g id="Group-9" transform="translate(2.000000, 8.000000)">
                    <mask id="mask-6" fill="white">
                        <use xlink:href="#path-5"></use>
                    </mask>
                    <g id="Clip-8"></g>
                    <polygon id="Fill-7" fill="#333333" mask="url(#mask-6)" points="-4.34928 7.1381374 7.77127 7.1381374 7.77127 -4.9871726 -4.34928 -4.9871726"></polygon>
                </g>
                <g id="Group-12" transform="translate(5.000000, 11.000000)">
                    <mask id="mask-8" fill="white">
                        <use xlink:href="#path-7"></use>
                    </mask>
                    <g id="Clip-11"></g>
                    <polygon id="Fill-10" fill="#333333" mask="url(#mask-8)" points="-4.1683907 7.326168 7.9521593 7.326168 7.9521593 -4.799142 -4.1683907 -4.799142"></polygon>
                </g>
                <g id="Group-15" transform="translate(5.000000, 8.000000)">
                    <mask id="mask-10" fill="white">
                        <use xlink:href="#path-9"></use>
                    </mask>
                    <g id="Clip-14"></g>
                    <polygon id="Fill-13" fill="#333333" mask="url(#mask-10)" points="-4.1683907 7.1381374 7.9521593 7.1381374 7.9521593 -4.9871726 -4.1683907 -4.9871726"></polygon>
                </g>
                <g id="Group-18" transform="translate(9.000000, 11.000000)">
                    <mask id="mask-12" fill="white">
                        <use xlink:href="#path-11"></use>
                    </mask>
                    <g id="Clip-17"></g>
                    <polygon id="Fill-16" fill="#333333" mask="url(#mask-12)" points="-4.987563 7.326168 7.132987 7.326168 7.132987 -4.799142 -4.987563 -4.799142"></polygon>
                </g>
                <g id="Group-21" transform="translate(9.000000, 8.000000)">
                    <mask id="mask-14" fill="white">
                        <use xlink:href="#path-13"></use>
                    </mask>
                    <g id="Clip-20"></g>
                    <polygon id="Fill-19" fill="#333333" mask="url(#mask-14)" points="-4.987563 7.1381374 7.132987 7.1381374 7.132987 -4.9871726 -4.987563 -4.9871726"></polygon>
                </g>
                <g id="Group-24" transform="translate(12.000000, 11.000000)">
                    <mask id="mask-16" fill="white">
                        <use xlink:href="#path-15"></use>
                    </mask>
                    <g id="Clip-23"></g>
                    <polygon id="Fill-22" fill="#333333" mask="url(#mask-16)" points="-4.806674 7.326168 7.313876 7.326168 7.313876 -4.799142 -4.806674 -4.799142"></polygon>
                </g>
                <g id="Group-27" transform="translate(12.000000, 8.000000)">
                    <mask id="mask-18" fill="white">
                        <use xlink:href="#path-17"></use>
                    </mask>
                    <g id="Clip-26"></g>
                    <polygon id="Fill-25" fill="#333333" mask="url(#mask-18)" points="-4.806674 7.1381374 7.313876 7.1381374 7.313876 -4.9871726 -4.806674 -4.9871726"></polygon>
                </g>
            </g>
        </g>
    </g>
</svg>