<svg xmlns="http://www.w3.org/2000/svg" xmlns:xlink="http://www.w3.org/1999/xlink" width="20" height="24" viewBox="0 0 20 24">
    <defs>
        <path id="a" d="M.046.652H20v22.573H.046z"/>
    </defs>
    <g fill="none" fill-rule="evenodd">
        <g>
            <mask id="b" fill="#fff">
                <use xlink:href="#a"/>
            </mask>
            <path fill="#ABABAB" d="M17.386 3.1h-.676v-.745c0-.937-.736-1.703-1.644-1.703-.908 0-1.644.766-1.644 1.703v.741h-1.685v-.74c0-.938-.736-1.704-1.644-1.704-.908 0-1.644.766-1.644 1.703v.741H6.764v-.74c0-.938-.736-1.704-1.644-1.704-.905 0-1.64.766-1.64 1.703v.741h-.866C1.174 3.096 0 4.278 0 5.73v14.864a2.627 2.627 0 0 0 2.614 2.631h14.772A2.625 2.625 0 0 0 20 20.594V5.73a2.624 2.624 0 0 0-2.614-2.63zm-3.038-.745c0-.426.321-.774.718-.774.397 0 .72.348.72.774v3.033c0 .426-.323.775-.72.775-.397 0-.718-.349-.718-.775V2.355zm-4.973 0c0-.426.321-.774.718-.774.397 0 .722.348.722.774v3.033c0 .426-.325.775-.722.775-.397 0-.718-.349-.718-.775V2.355zm-4.973 0c0-.426.322-.774.718-.774.397 0 .722.348.722.774v3.033c0 .426-.325.775-.722.775-.396 0-.718-.349-.718-.775V2.355zm14.06 18.239c0 .599-.484 1.086-1.076 1.086H2.614a1.083 1.083 0 0 1-1.076-1.086V6.97h16.924v13.624z" mask="url(#b)"/>
        </g>
        <path fill="#ABABAB" d="M2.924 12.244h2.828V9.71H2.924zM6.698 12.244h2.827V9.71H6.698zM10.475 12.244h2.827V9.71h-2.827zM14.248 12.244h2.828V9.71h-2.828zM2.924 15.622h2.828v-2.531H2.924zM6.698 15.622h2.827v-2.531H6.698zM10.475 15.622h2.827v-2.531h-2.827zM14.248 15.622h2.828v-2.531h-2.828zM2.924 19h2.828v-2.528H2.924zM6.698 19h2.827v-2.528H6.698zM10.475 19h2.827v-2.528h-2.827zM14.248 19h2.828v-2.528h-2.828z"/>
    </g>
</svg>
