<svg xmlns="http://www.w3.org/2000/svg" width="20" height="19" viewBox="0 0 20 19">
    <path fill="#333" fill-rule="nonzero" stroke="#333" stroke-width=".5" d="M17.324 10.832a.305.305 0 0 1-.294.228H6.704a.93.93 0 0 0-.914.921c0 .494.417.914.914.914h10.29c.492.037.492.728 0 .764H6.705a1.695 1.695 0 0 1-1.678-1.678c0-.56.274-1.05.691-1.35L3.696 2.72a1.262 1.262 0 0 0-1.221-.955H1.217a.445.445 0 0 1 0-.764h1.258c.917 0 1.714.647 1.944 1.561l.457 1.829h13.857c.221.004.295.189.258.345l-1.667 6.097zm.815-5.718H5.066l1.335 5.185h10.29l1.448-5.185zm-4.496 9.683a1.61 1.61 0 0 1 1.6 1.601c0 .878-.687 1.602-1.6 1.602a1.61 1.61 0 0 1-1.602-1.602 1.61 1.61 0 0 1 1.602-1.601zm0 2.479c.456 0 .877-.38.877-.878a.862.862 0 0 0-.877-.877.887.887 0 0 0-.878.877c0 .457.38.878.878.878zm-5.871-2.48a1.61 1.61 0 0 1 1.6 1.602A1.61 1.61 0 0 1 7.773 18a1.61 1.61 0 0 1-1.601-1.602 1.61 1.61 0 0 1 1.6-1.601zm0 2.48c.457 0 .877-.38.877-.878a.887.887 0 0 0-.877-.877.887.887 0 0 0-.878.877c0 .457.38.878.878.878z" opacity=".8"/>
</svg>
