<svg xmlns="http://www.w3.org/2000/svg" width="44" height="40" viewBox="0 0 44 40">
    <g fill="#4C5352" fill-rule="evenodd">
        <path d="M43.296 7.055A2.9 2.9 0 0 0 41.066 6H12.822a.834.834 0 0 0-.822.846c0 .467.368.846.822.846h28.244c.378 0 .735.169.98.463.24.288.347.667.297 1.042L39.632 21.46l-.01.057c-.156 1.021-1.03 1.791-2.037 1.791h-19.27a.834.834 0 0 0-.822.846c0 .467.368.846.822.846h19.27c1.828 0 3.361-1.34 3.657-3.192L43.954 9.54a3.075 3.075 0 0 0-.658-2.485M16.5 38.298c-1.109 0-2.01-1.031-2.01-2.298 0-1.267.901-2.298 2.01-2.298 1.109 0 2.01 1.031 2.01 2.298 0 1.267-.901 2.298-2.01 2.298zm0-6.298c-1.93 0-3.5 1.795-3.5 4 0 2.206 1.57 4 3.5 4s3.5-1.794 3.5-4c0-2.205-1.57-4-3.5-4zM34.5 38.298c-1.108 0-2.01-1.031-2.01-2.298 0-1.267.902-2.298 2.01-2.298 1.109 0 2.01 1.031 2.01 2.298 0 1.267-.901 2.298-2.01 2.298zm0-6.298c-1.93 0-3.5 1.795-3.5 4 0 2.206 1.57 4 3.5 4s3.5-1.794 3.5-4c0-2.205-1.57-4-3.5-4z"/>
        <path d="M37.193 28.357H14.615l-2.107-8.431L8.406 1.814A2.368 2.368 0 0 0 6.117 0H.807A.814.814 0 0 0 0 .822c0 .453.36.821.807.821h5.31c.343 0 .642.236.722.558l3.86 17.05c0 .062.007.127.023.19l.217.87.008.034c0 .004.003.007.004.011l2.256 9.025c.09.364.412.619.781.619h23.205a.814.814 0 0 0 .807-.822.814.814 0 0 0-.807-.821"/>
    </g>
</svg>
