<?xml version="1.0" encoding="UTF-8"?>
<svg width="40px" height="32px" viewBox="0 0 40 32" version="1.1" xmlns="http://www.w3.org/2000/svg" xmlns:xlink="http://www.w3.org/1999/xlink">
    <!-- Generator: Sketch 54 (76480) - https://sketchapp.com -->
    <title>clock@2x</title>
    <desc>Created with Sketch.</desc>
    <defs>
        <polygon id="path-1" points="0.0046875 0.0142113821 24.9908594 0.0142113821 24.9908594 5.05137398 0.0046875 5.05137398"></polygon>
    </defs>
    <g id="Page-1" stroke="none" stroke-width="1" fill="none" fill-rule="evenodd">
        <g id="Artboard" transform="translate(-26.000000, -38.000000)">
            <g id="clock" transform="translate(26.000000, 38.000000)">
                <g id="Group-3" fill="#9B9B9B">
                    <path d="M39.9228125,14.806313 C39.5635938,11.2350081 37.9498438,7.86837805 35.3784375,5.32593089 C33.1808594,3.1536748 30.4910156,1.75763821 27.6608594,1.13673984 C26.531005,0.837547524 25.3869946,0.688411102 24.2288281,0.68933057 C23.0706617,0.690250038 21.9122242,0.841214374 20.7535156,1.14222358 C17.9321094,1.76551626 15.2511719,3.15969919 13.06,5.32623984 C12.5805469,5.80015854 12.1383594,6.29740244 11.7334375,6.81449593 C11.7139063,6.81302846 11.694375,6.81148374 11.6742187,6.81148374 L6.106875,6.81148374 C5.67539062,6.81148374 5.325625,7.15726829 5.325625,7.58384146 C5.325625,8.01041463 5.67539062,8.35619919 6.106875,8.35619919 L10.6704687,8.35619919 C10.0976562,9.30411382 9.635625,10.3000691 9.2840625,11.3249106 L0.78125,11.3249106 C0.349765625,11.3249106 0,11.6706951 0,12.0972683 C0,12.5239187 0.349765625,12.869626 0.78125,12.869626 L8.8428125,12.869626 C8.61757813,13.8468902 8.488125,14.8413008 8.45492188,15.8384146 L5,15.8384146 C4.56875,15.8384146 4.21875,16.1841992 4.21875,16.6107724 C4.21875,17.0373455 4.56875,17.3831301 5,17.3831301 L8.47992188,17.3831301 C8.54585938,18.3829472 8.70820313,19.3773577 8.96757813,20.3519187 L3.90625,20.3519187 C3.475,20.3519187 3.125,20.697626 3.125,21.1242764 C3.125,21.5508496 3.475,21.8966341 3.90625,21.8966341 L9.46625,21.8966341 C10.2325781,23.9011341 11.4303906,25.7795081 13.06,27.3905691 C15.6338281,29.9351789 19.0429688,31.5311789 22.6592969,31.8844553 C23.1753906,31.934813 23.6917188,31.9596057 24.2074219,31.9596057 C27.2561719,31.9596057 30.2660938,31.0873821 32.8201563,29.4431098 C33.1817969,29.2104756 33.2839844,28.732 33.0484375,28.3744756 C32.8128125,28.0169512 32.3288281,27.9158496 31.9675,28.1487927 C26.3769531,31.747748 18.8897656,30.9696748 14.1647656,26.2984553 C8.6209375,20.8174187 8.6209375,11.8993902 14.1647656,6.41835366 C19.7088281,0.937626016 28.7295313,0.937626016 34.2733594,6.41835366 C38.9923438,11.083626 39.7835938,18.4791829 36.1553906,24.0033943 C35.9200781,24.3609187 36.0232813,24.8393943 36.3849219,25.0717195 C36.7471094,25.3040447 37.2308594,25.2023252 37.4655469,24.8444919 C39.4042969,21.8930041 40.2771094,18.3280325 39.9228125,14.806313 Z" id="Fill-1"></path>
                </g>
                <path d="M34.8263281,26.0718455 C34.6200781,26.0718455 34.4192188,26.1544878 34.2739844,26.2981463 C34.1278125,26.4417276 34.0450781,26.6408415 34.0450781,26.8442033 C34.0450781,27.0472561 34.1278125,27.2463699 34.2739844,27.3902602 C34.4192188,27.5345366 34.6200781,27.616561 34.8263281,27.616561 C35.0317188,27.616561 35.2325781,27.5345366 35.37875,27.3902602 C35.5239844,27.2463699 35.6075781,27.0472561 35.6075781,26.8442033 C35.6075781,26.6408415 35.5239844,26.4417276 35.37875,26.2981463 C35.2325781,26.1544878 35.0317188,26.0718455 34.8263281,26.0718455 Z" id="Fill-4" fill="#9B9B9B"></path>
                <path d="M24.2190625,4.37647154 C17.5363281,4.37647154 12.0996094,9.75154065 12.0996094,16.3582114 C12.0996094,22.9649593 17.5363281,28.3400285 24.2190625,28.3400285 C30.9021094,28.3400285 36.3388281,22.9649593 36.3388281,16.3582114 C36.3388281,9.75154065 30.9021094,4.37647154 24.2190625,4.37647154 Z M24.2190625,26.795313 C18.3978125,26.795313 13.6621094,22.1132033 13.6621094,16.3582114 C13.6621094,10.6032967 18.3978125,5.92118699 24.2190625,5.92118699 C30.040625,5.92118699 34.7763281,10.6032967 34.7763281,16.3582114 C34.7763281,22.1132033 30.040625,26.795313 24.2190625,26.795313 Z" id="Fill-5" fill="#9B9B9B"></path>
                <path d="M29.1610937,10.3803171 L25.2914062,14.2055732 C24.9679687,14.0474715 24.6039062,13.958187 24.2190625,13.958187 C23.8342187,13.958187 23.4704687,14.0474715 23.1469531,14.2055732 L21.4150781,12.4937195 C21.1099219,12.1920366 20.6152344,12.1920366 20.3100781,12.4937195 C20.0048437,12.7951707 20.0048437,13.2842276 20.3100781,13.5859106 L22.0419531,15.2980732 C21.8817187,15.6179065 21.7914062,15.9778252 21.7914062,16.3582114 C21.7914062,17.6814919 22.8805469,18.758313 24.2190625,18.758313 C25.5578906,18.758313 26.6470312,17.6814919 26.6470312,16.3582114 C26.6470312,15.9778252 26.5564062,15.6179065 26.3964844,15.2980732 L30.2660937,11.4725081 C30.5710156,11.1710569 30.5710156,10.682 30.2660937,10.3803171 C29.9609375,10.0786341 29.46625,10.0786341 29.1610937,10.3803171 Z M24.2190625,17.2135976 C23.7420312,17.2135976 23.3542187,16.829813 23.3542187,16.3582114 C23.3542187,15.886687 23.7420312,15.5029024 24.2190625,15.5029024 C24.6963281,15.5029024 25.0842187,15.886687 25.0842187,16.3582114 C25.0842187,16.829813 24.6963281,17.2135976 24.2190625,17.2135976 Z" id="Fill-6" fill="#9B9B9B"></path>
                <path d="M32.5723438,15.5952764 L31.8484375,15.5952764 C31.4172656,15.5952764 31.0671875,15.9409837 31.0671875,16.3676341 C31.0671875,16.7942073 31.4172656,17.1399919 31.8484375,17.1399919 L32.5723438,17.1399919 C33.0038281,17.1399919 33.3535938,16.7942073 33.3535938,16.3676341 C33.3535938,15.9409837 33.0038281,15.5952764 32.5723438,15.5952764 Z" id="Fill-7" fill="#9B9B9B"></path>
                <path d="M16.5896875,15.5765081 L15.8660938,15.5765081 C15.4345313,15.5765081 15.0848438,15.9222927 15.0848438,16.3488659 C15.0848438,16.7755163 15.4345313,17.1212236 15.8660938,17.1212236 L16.5896875,17.1212236 C17.0211719,17.1212236 17.3709375,16.7755163 17.3709375,16.3488659 C17.3709375,15.9222927 17.0211719,15.5765081 16.5896875,15.5765081 Z" id="Fill-8" fill="#9B9B9B"></path>
                <path d="M24.2288281,9.58803252 C24.66,9.58803252 25.0100781,9.2423252 25.0100781,8.8156748 L25.0100781,8.10008537 C25.0100781,7.67343496 24.66,7.32772764 24.2288281,7.32772764 C23.7972656,7.32772764 23.4475781,7.67343496 23.4475781,8.10008537 L23.4475781,8.8156748 C23.4475781,9.2423252 23.7972656,9.58803252 24.2288281,9.58803252 Z" id="Fill-9" fill="#9B9B9B"></path>
                <g id="Group-13" transform="translate(0.000000, 20.337398)">
                    <mask id="mask-2" fill="white">
                        <use xlink:href="#path-1"></use>
                    </mask>
                    <g id="Clip-11"></g>
                    <path d="M24.2096094,2.79106911 C23.7783594,2.79106911 23.4283594,3.13677642 23.4283594,3.56342683 L23.4283594,4.27901626 C23.4283594,4.70566667 23.7783594,5.05137398 24.2096094,5.05137398 C24.6410938,5.05137398 24.9908594,4.70566667 24.9908594,4.27901626 L24.9908594,3.56342683 C24.9908594,3.13677642 24.6410938,2.79106911 24.2096094,2.79106911 Z" id="Fill-10" fill="#9B9B9B" mask="url(#mask-2)"></path>
                    <path d="M0.78125,0.0142113821 C0.575859375,0.0142113821 0.374140625,0.0968536585 0.22890625,0.240434959 C0.08359375,0.384093496 0,0.58351626 0,0.786569106 C0,0.990471545 0.08359375,1.18904472 0.22890625,1.33262602 C0.374453125,1.47620732 0.575859375,1.55892683 0.78125,1.55892683 C0.986640625,1.55892683 1.18835938,1.47620732 1.33359375,1.33262602 C1.47890625,1.18904472 1.5625,0.989544715 1.5625,0.786569106 C1.5625,0.58351626 1.47890625,0.384093496 1.33359375,0.240434959 C1.18835938,0.0968536585 0.986640625,0.0142113821 0.78125,0.0142113821 Z" id="Fill-12" fill="#9B9B9B" mask="url(#mask-2)"></path>
                </g>
            </g>
        </g>
    </g>
</svg>