<svg height="448pt" fill="#3c3c3c"  viewBox="0 -36 448 448" width="448pt" xmlns="http://www.w3.org/2000/svg"><path d="m208 208c0-27.359375-44.710938-48-104-48s-104 20.640625-104 48c.1875 7.550781 3.320312 14.726562 8.726562 20-5.5625 5.164062-8.726562 12.410156-8.726562 20s3.164062 14.835938 8.726562 20c-5.5625 5.164062-8.726562 12.410156-8.726562 20s3.164062 14.835938 8.726562 20c-5.402343 5.273438-8.535156 12.449219-8.726562 20 0 27.359375 44.710938 48 104 48s104-20.640625 104-48c-.191406-7.550781-3.324219-14.726562-8.726562-20 5.5625-5.164062 8.726562-12.410156 8.726562-20s-3.164062-14.835938-8.726562-20c5.5625-5.164062 8.726562-12.410156 8.726562-20s-3.164062-14.835938-8.726562-20c5.402343-5.273438 8.535156-12.449219 8.726562-20zm-104-32c50.398438 0 88 16.894531 88 32-.992188 5.722656-4.519531 10.691406-9.601562 13.511719-15.773438 11.398437-45.832032 18.488281-78.398438 18.488281-4.070312 0-8.105469-.113281-12.070312-.328125-27.792969-1.511719-52.539063-8.183594-66.402344-18.199219-5.050782-2.820312-8.550782-7.773437-9.527344-13.472656 0-15.105469 37.601562-32 88-32zm82.609375 61.878906c3.082031 2.511719 5.023437 6.160156 5.390625 10.121094-.992188 5.722656-4.519531 10.691406-9.601562 13.511719-15.773438 11.398437-45.832032 18.488281-78.398438 18.488281-4.070312 0-8.105469-.113281-12.070312-.328125-27.792969-1.511719-52.539063-8.183594-66.402344-18.199219-5.050782-2.820312-8.550782-7.773437-9.527344-13.472656.367188-3.960938 2.308594-7.609375 5.390625-10.121094.433594.257813.945313.480469 1.394531.738282 1.09375.613281 2.253906 1.199218 3.414063 1.789062 1.601562.800781 3.199219 1.601562 4.929687 2.402344 1.261719.558594 2.558594 1.085937 3.878906 1.597656 1.785157.707031 3.609376 1.386719 5.496094 2.042969 1.398438.480469 2.808594.941406 4.257813 1.382812 1.964843.609375 4 1.175781 6.046875 1.71875 1.503906.394531 3.007812.800781 4.550781 1.152344 2.152344.496094 4.351563.945313 6.585937 1.375 1.597657.304687 3.132813.625 4.757813.898437 2.402344.398438 4.800781.726563 7.242187 1.046876 1.597657.207031 3.101563.441406 4.695313.617187 2.742187.296875 5.550781.503906 8.367187.703125 1.375.097656 2.71875.242188 4.113282.3125 4.230468.230469 8.527344.359375 12.878906.359375s8.648438-.128906 12.878906-.359375c1.402344-.070312 2.746094-.214844 4.128906-.3125 2.808594-.199219 5.601563-.40625 8.34375-.703125 1.601563-.175781 3.199219-.417969 4.753907-.625 2.398437-.320313 4.796875-.640625 7.199219-1.03125 1.65625-.28125 3.253906-.609375 4.878906-.921875 2.167968-.421875 4.320312-.855469 6.402344-1.34375 1.597656-.375 3.199218-.796875 4.75-1.199219 1.96875-.527343 3.910156-1.0625 5.800781-1.648437 1.535156-.464844 3.023437-.960938 4.496093-1.464844 1.792969-.621094 3.519532-1.261719 5.222657-1.933594 1.402343-.5625 2.785156-1.121094 4.121093-1.710937 1.597657-.722657 3.160157-1.480469 4.679688-2.25 1.222656-.625 2.457031-1.246094 3.609375-1.894531.414063-.265626.917969-.488282 1.34375-.738282zm0 40c3.082031 2.511719 5.023437 6.160156 5.390625 10.121094-.992188 5.722656-4.519531 10.691406-9.601562 13.511719-15.773438 11.398437-45.832032 18.488281-78.398438 18.488281-4.070312 0-8.105469-.113281-12.070312-.328125-27.792969-1.511719-52.539063-8.183594-66.402344-18.199219-5.050782-2.820312-8.550782-7.773437-9.527344-13.472656.367188-3.960938 2.308594-7.609375 5.390625-10.121094.433594.257813.945313.480469 1.394531.738282 1.09375.613281 2.253906 1.199218 3.414063 1.789062 1.601562.800781 3.199219 1.601562 4.929687 2.402344 1.261719.558594 2.558594 1.085937 3.878906 1.597656 1.785157.707031 3.609376 1.386719 5.496094 2.042969 1.398438.480469 2.808594.941406 4.257813 1.382812 1.964843.609375 4 1.175781 6.046875 1.71875 1.503906.394531 3.007812.800781 4.550781 1.152344 2.152344.496094 4.351563.945313 6.585937 1.375 1.597657.304687 3.132813.625 4.757813.898437 2.402344.398438 4.800781.726563 7.242187 1.046876 1.597657.207031 3.101563.441406 4.695313.617187 2.742187.296875 5.550781.503906 8.367187.703125 1.375.097656 2.71875.242188 4.113282.3125 4.230468.230469 8.527344.359375 12.878906.359375s8.648438-.128906 12.878906-.359375c1.402344-.070312 2.746094-.214844 4.128906-.3125 2.808594-.199219 5.601563-.40625 8.34375-.703125 1.601563-.175781 3.199219-.417969 4.753907-.625 2.398437-.320313 4.796875-.640625 7.199219-1.03125 1.65625-.28125 3.253906-.609375 4.878906-.921875 2.167968-.421875 4.320312-.855469 6.402344-1.34375 1.597656-.375 3.199218-.796875 4.75-1.199219 1.96875-.527343 3.910156-1.0625 5.800781-1.648437 1.535156-.464844 3.023437-.960938 4.496093-1.464844 1.792969-.621094 3.519532-1.261719 5.222657-1.933594 1.402343-.5625 2.785156-1.121094 4.121093-1.710937 1.597657-.722657 3.160157-1.480469 4.679688-2.25 1.222656-.625 2.457031-1.246094 3.609375-1.894531.414063-.265626.917969-.488282 1.34375-.738282zm-82.609375 82.121094c-50.398438 0-88-16.894531-88-32 .367188-3.960938 2.308594-7.609375 5.390625-10.121094.433594.257813.945313.480469 1.394531.738282 1.09375.613281 2.253906 1.199218 3.414063 1.789062 1.601562.800781 3.199219 1.601562 4.929687 2.402344 1.261719.558594 2.558594 1.085937 3.878906 1.597656 1.785157.707031 3.609376 1.386719 5.496094 2.042969 1.398438.480469 2.808594.941406 4.257813 1.382812 1.964843.609375 4 1.175781 6.046875 1.71875 1.503906.394531 3.007812.800781 4.550781 1.152344 2.152344.496094 4.351563.945313 6.585937 1.375 1.597657.304687 3.132813.625 4.757813.898437 2.402344.398438 4.800781.726563 7.242187 1.046876 1.597657.207031 3.101563.441406 4.695313.617187 2.742187.296875 5.550781.503906 8.367187.703125 1.375.097656 2.71875.242188 4.113282.3125 4.230468.230469 8.527344.359375 12.878906.359375s8.648438-.128906 12.878906-.359375c1.402344-.070312 2.746094-.214844 4.128906-.3125 2.808594-.199219 5.601563-.40625 8.34375-.703125 1.601563-.175781 3.199219-.417969 4.753907-.625 2.398437-.320313 4.796875-.640625 7.199219-1.03125 1.65625-.28125 3.253906-.609375 4.878906-.921875 2.167968-.421875 4.320312-.855469 6.402344-1.34375 1.597656-.375 3.199218-.796875 4.75-1.199219 1.96875-.527343 3.910156-1.0625 5.800781-1.648437 1.535156-.464844 3.023437-.960938 4.496093-1.464844 1.792969-.621094 3.519532-1.261719 5.222657-1.933594 1.402343-.5625 2.785156-1.121094 4.121093-1.710937 1.597657-.722657 3.160157-1.480469 4.679688-2.25 1.222656-.625 2.457031-1.246094 3.609375-1.894531.429687-.25.933594-.472657 1.359375-.722657 3.074219 2.511719 5.007812 6.152344 5.375 10.105469 0 15.105469-37.601562 32-88 32zm0 0"/><path d="m448 88c-.191406-7.550781-3.324219-14.726562-8.726562-20 5.402343-5.273438 8.535156-12.449219 8.726562-20 0-27.359375-44.710938-48-104-48s-104 20.640625-104 48c.1875 7.550781 3.320312 14.726562 8.726562 20-5.5625 5.164062-8.726562 12.410156-8.726562 20s3.164062 14.835938 8.726562 20c-5.5625 5.164062-8.726562 12.410156-8.726562 20s3.164062 14.835938 8.726562 20c-5.5625 5.164062-8.726562 12.410156-8.726562 20s3.164062 14.835938 8.726562 20c-5.5625 5.164062-8.726562 12.410156-8.726562 20s3.164062 14.835938 8.726562 20c-5.5625 5.164062-8.726562 12.410156-8.726562 20s3.164062 14.835938 8.726562 20c-5.5625 5.164062-8.726562 12.410156-8.726562 20s3.164062 14.835938 8.726562 20c-5.402343 5.273438-8.535156 12.449219-8.726562 20 0 27.359375 44.710938 48 104 48s104-20.640625 104-48c-.191406-7.550781-3.324219-14.726562-8.726562-20 5.5625-5.164062 8.726562-12.410156 8.726562-20s-3.164062-14.835938-8.726562-20c5.5625-5.164062 8.726562-12.410156 8.726562-20s-3.164062-14.835938-8.726562-20c5.5625-5.164062 8.726562-12.410156 8.726562-20s-3.164062-14.835938-8.726562-20c5.5625-5.164062 8.726562-12.410156 8.726562-20s-3.164062-14.835938-8.726562-20c5.5625-5.164062 8.726562-12.410156 8.726562-20s-3.164062-14.835938-8.726562-20c5.402343-5.273438 8.535156-12.449219 8.726562-20zm-21.390625 29.878906c3.082031 2.511719 5.023437 6.160156 5.390625 10.121094-.992188 5.722656-4.519531 10.691406-9.601562 13.511719-15.773438 11.398437-45.832032 18.488281-78.398438 18.488281-4.070312 0-8.105469-.113281-12.070312-.328125-27.792969-1.511719-52.539063-8.183594-66.402344-18.199219-5.050782-2.820312-8.550782-7.773437-9.527344-13.472656.367188-3.960938 2.308594-7.609375 5.390625-10.121094.433594.257813.945313.480469 1.394531.738282 1.09375.613281 2.253906 1.199218 3.414063 1.789062 1.601562.800781 3.199219 1.601562 4.929687 2.402344 1.261719.558594 2.558594 1.085937 3.878906 1.597656 1.785157.707031 3.609376 1.386719 5.496094 2.042969 1.398438.480469 2.808594.941406 4.257813 1.382812 1.964843.609375 4 1.175781 6.046875 1.71875 1.503906.394531 3.007812.800781 4.550781 1.152344 2.152344.496094 4.351563.945313 6.585937 1.375 1.597657.304687 3.132813.625 4.757813.898437 2.402344.398438 4.800781.726563 7.242187 1.046876 1.597657.207031 3.101563.441406 4.695313.617187 2.742187.296875 5.550781.503906 8.367187.703125 1.375.097656 2.71875.242188 4.113282.3125 4.230468.230469 8.527344.359375 12.878906.359375s8.648438-.128906 12.878906-.359375c1.402344-.070312 2.746094-.214844 4.128906-.3125 2.808594-.199219 5.601563-.40625 8.34375-.703125 1.601563-.175781 3.199219-.417969 4.753907-.625 2.398437-.320313 4.796875-.640625 7.199219-1.03125 1.65625-.28125 3.253906-.609375 4.878906-.921875 2.167968-.421875 4.320312-.855469 6.402344-1.34375 1.597656-.375 3.199218-.796875 4.75-1.199219 1.96875-.527343 3.910156-1.0625 5.800781-1.648437 1.535156-.464844 3.023437-.960938 4.496093-1.464844 1.792969-.621094 3.519532-1.261719 5.222657-1.933594 1.402343-.5625 2.785156-1.121094 4.121093-1.710937 1.597657-.722657 3.199219-1.480469 4.679688-2.25 1.222656-.625 2.457031-1.246094 3.609375-1.894531.414063-.265626.917969-.488282 1.34375-.738282zm0 40c3.082031 2.511719 5.023437 6.160156 5.390625 10.121094-.992188 5.722656-4.519531 10.691406-9.601562 13.511719-15.773438 11.398437-45.832032 18.488281-78.398438 18.488281-4.070312 0-8.105469-.113281-12.070312-.328125-27.792969-1.511719-52.539063-8.183594-66.402344-18.199219-5.050782-2.820312-8.550782-7.773437-9.527344-13.472656.367188-3.960938 2.308594-7.609375 5.390625-10.121094.433594.257813.945313.480469 1.394531.738282 1.09375.613281 2.253906 1.199218 3.414063 1.789062 1.601562.800781 3.199219 1.601562 4.929687 2.402344 1.261719.558594 2.558594 1.085937 3.878906 1.597656 1.785157.707031 3.609376 1.386719 5.496094 2.042969 1.398438.480469 2.808594.941406 4.257813 1.382812 1.964843.609375 4 1.175781 6.046875 1.71875 1.503906.394531 3.007812.800781 4.550781 1.152344 2.152344.496094 4.351563.945313 6.585937 1.375 1.597657.304687 3.132813.625 4.757813.898437 2.402344.398438 4.800781.726563 7.242187 1.046876 1.597657.207031 3.101563.441406 4.695313.617187 2.742187.296875 5.550781.503906 8.367187.703125 1.375.097656 2.71875.242188 4.113282.3125 4.230468.230469 8.527344.359375 12.878906.359375s8.648438-.128906 12.878906-.359375c1.402344-.070312 2.746094-.214844 4.128906-.3125 2.808594-.199219 5.601563-.40625 8.34375-.703125 1.601563-.175781 3.199219-.417969 4.753907-.625 2.398437-.320313 4.796875-.640625 7.199219-1.03125 1.65625-.28125 3.253906-.609375 4.878906-.921875 2.167968-.421875 4.320312-.855469 6.402344-1.34375 1.597656-.375 3.199218-.796875 4.75-1.199219 1.96875-.527343 3.910156-1.0625 5.800781-1.648437 1.535156-.464844 3.023437-.960938 4.496093-1.464844 1.792969-.621094 3.519532-1.261719 5.222657-1.933594 1.402343-.5625 2.785156-1.121094 4.121093-1.710937 1.597657-.722657 3.199219-1.480469 4.679688-2.25 1.222656-.625 2.457031-1.246094 3.609375-1.894531.414063-.265626.917969-.488282 1.34375-.738282zm0 40c3.082031 2.511719 5.023437 6.160156 5.390625 10.121094-.992188 5.722656-4.519531 10.691406-9.601562 13.511719-15.773438 11.398437-45.832032 18.488281-78.398438 18.488281-4.070312 0-8.105469-.113281-12.070312-.328125-27.792969-1.511719-52.539063-8.183594-66.402344-18.199219-5.050782-2.820312-8.550782-7.773437-9.527344-13.472656.367188-3.960938 2.308594-7.609375 5.390625-10.121094.433594.257813.945313.480469 1.394531.738282 1.09375.613281 2.253906 1.199218 3.414063 1.789062 1.601562.800781 3.199219 1.601562 4.929687 2.402344 1.261719.558594 2.558594 1.085937 3.878906 1.597656 1.785157.707031 3.609376 1.386719 5.496094 2.042969 1.398438.480469 2.808594.941406 4.257813 1.382812 1.964843.609375 4 1.175781 6.046875 1.71875 1.503906.394531 3.007812.800781 4.550781 1.152344 2.152344.496094 4.351563.945313 6.585937 1.375 1.597657.304687 3.132813.625 4.757813.898437 2.402344.398438 4.800781.726563 7.242187 1.046876 1.597657.207031 3.101563.441406 4.695313.617187 2.742187.296875 5.550781.503906 8.367187.703125 1.375.097656 2.71875.242188 4.113282.3125 4.230468.230469 8.527344.359375 12.878906.359375s8.648438-.128906 12.878906-.359375c1.402344-.070312 2.746094-.214844 4.128906-.3125 2.808594-.199219 5.601563-.40625 8.34375-.703125 1.601563-.175781 3.199219-.417969 4.753907-.625 2.398437-.320313 4.796875-.640625 7.199219-1.03125 1.65625-.28125 3.253906-.609375 4.878906-.921875 2.167968-.421875 4.320312-.855469 6.402344-1.34375 1.597656-.375 3.199218-.796875 4.75-1.199219 1.96875-.527343 3.910156-1.0625 5.800781-1.648437 1.535156-.464844 3.023437-.960938 4.496093-1.464844 1.792969-.621094 3.519532-1.261719 5.222657-1.933594 1.402343-.5625 2.785156-1.121094 4.121093-1.710937 1.597657-.722657 3.199219-1.480469 4.679688-2.25 1.222656-.625 2.457031-1.246094 3.609375-1.894531.414063-.265626.917969-.488282 1.34375-.738282zm0 40c3.082031 2.511719 5.023437 6.160156 5.390625 10.121094-.992188 5.722656-4.519531 10.691406-9.601562 13.511719-15.773438 11.398437-45.832032 18.488281-78.398438 18.488281-4.070312 0-8.105469-.113281-12.070312-.328125-27.792969-1.511719-52.539063-8.183594-66.402344-18.199219-5.050782-2.820312-8.550782-7.773437-9.527344-13.472656.367188-3.960938 2.308594-7.609375 5.390625-10.121094.433594.257813.945313.480469 1.394531.738282 1.09375.613281 2.253906 1.199218 3.414063 1.789062 1.601562.800781 3.199219 1.601562 4.929687 2.402344 1.261719.558594 2.558594 1.085937 3.878906 1.597656 1.785157.707031 3.609376 1.386719 5.496094 2.042969 1.398438.480469 2.808594.941406 4.257813 1.382812 1.964843.609375 4 1.175781 6.046875 1.71875 1.503906.394531 3.007812.800781 4.550781 1.152344 2.152344.496094 4.351563.945313 6.585937 1.375 1.597657.304687 3.132813.625 4.757813.898437 2.402344.398438 4.800781.726563 7.242187 1.046876 1.597657.207031 3.101563.441406 4.695313.617187 2.742187.296875 5.550781.503906 8.367187.703125 1.375.097656 2.71875.242188 4.113282.3125 4.230468.230469 8.527344.359375 12.878906.359375s8.648438-.128906 12.878906-.359375c1.402344-.070312 2.746094-.214844 4.128906-.3125 2.808594-.199219 5.601563-.40625 8.34375-.703125 1.601563-.175781 3.199219-.417969 4.753907-.625 2.398437-.320313 4.796875-.640625 7.199219-1.03125 1.65625-.28125 3.253906-.609375 4.878906-.921875 2.167968-.421875 4.320312-.855469 6.402344-1.34375 1.597656-.375 3.199218-.796875 4.75-1.199219 1.96875-.527343 3.910156-1.0625 5.800781-1.648437 1.535156-.464844 3.023437-.960938 4.496093-1.464844 1.792969-.621094 3.519532-1.261719 5.222657-1.933594 1.402343-.5625 2.785156-1.121094 4.121093-1.710937 1.597657-.722657 3.199219-1.480469 4.679688-2.25 1.222656-.625 2.457031-1.246094 3.609375-1.894531.414063-.265626.917969-.488282 1.34375-.738282zm0 40c3.082031 2.511719 5.023437 6.160156 5.390625 10.121094-.992188 5.722656-4.519531 10.691406-9.601562 13.511719-15.773438 11.398437-45.832032 18.488281-78.398438 18.488281-4.070312 0-8.105469-.113281-12.070312-.328125-27.792969-1.511719-52.539063-8.183594-66.402344-18.199219-5.050782-2.820312-8.550782-7.773437-9.527344-13.472656.367188-3.960938 2.308594-7.609375 5.390625-10.121094.433594.257813.945313.480469 1.394531.738282 1.09375.613281 2.253906 1.199218 3.414063 1.789062 1.601562.800781 3.199219 1.601562 4.929687 2.402344 1.261719.558594 2.558594 1.085937 3.878906 1.597656 1.785157.707031 3.609376 1.386719 5.496094 2.042969 1.398438.480469 2.808594.941406 4.257813 1.382812 1.964843.609375 4 1.175781 6.046875 1.71875 1.503906.394531 3.007812.800781 4.550781 1.152344 2.152344.496094 4.351563.945313 6.585937 1.375 1.597657.304687 3.132813.625 4.757813.898437 2.402344.398438 4.800781.726563 7.242187 1.046876 1.597657.207031 3.101563.441406 4.695313.617187 2.742187.296875 5.550781.503906 8.367187.703125 1.375.097656 2.71875.242188 4.113282.3125 4.230468.230469 8.527344.359375 12.878906.359375s8.648438-.128906 12.878906-.359375c1.402344-.070312 2.746094-.214844 4.128906-.3125 2.808594-.199219 5.601563-.40625 8.34375-.703125 1.601563-.175781 3.199219-.417969 4.753907-.625 2.398437-.320313 4.796875-.640625 7.199219-1.03125 1.65625-.28125 3.253906-.609375 4.878906-.921875 2.167968-.421875 4.320312-.855469 6.402344-1.34375 1.597656-.375 3.199218-.796875 4.75-1.199219 1.96875-.527343 3.910156-1.0625 5.800781-1.648437 1.535156-.464844 3.023437-.960938 4.496093-1.464844 1.792969-.621094 3.519532-1.261719 5.222657-1.933594 1.402343-.5625 2.785156-1.121094 4.121093-1.710937 1.597657-.722657 3.199219-1.480469 4.679688-2.25 1.222656-.625 2.457031-1.246094 3.609375-1.894531.414063-.265626.917969-.488282 1.34375-.738282zm-4.167969-176.367187c-15.816406 11.398437-45.875 18.488281-78.441406 18.488281-4.070312 0-8.105469-.113281-12.070312-.328125-27.792969-1.511719-52.539063-8.183594-66.402344-18.199219-5.050782-2.820312-8.550782-7.773437-9.527344-13.472656.367188-3.960938 2.308594-7.609375 5.390625-10.121094.433594.257813.945313.480469 1.394531.738282 1.09375.613281 2.253906 1.199218 3.414063 1.789062 1.601562.800781 3.199219 1.601562 4.929687 2.402344 1.261719.558594 2.558594 1.085937 3.878906 1.597656 1.785157.707031 3.609376 1.386719 5.496094 2.042969 1.398438.480469 2.808594.941406 4.257813 1.382812 1.964843.609375 4 1.175781 6.046875 1.71875 1.503906.394531 3.007812.800781 4.550781 1.152344 2.152344.496094 4.351563.945313 6.585937 1.375 1.597657.304687 3.132813.625 4.757813.898437 2.402344.398438 4.800781.726563 7.242187 1.046876 1.597657.207031 3.101563.441406 4.695313.617187 2.742187.296875 5.550781.503906 8.367187.703125 1.375.097656 2.71875.242188 4.113282.3125 4.230468.230469 8.527344.359375 12.878906.359375s8.648438-.128906 12.878906-.359375c1.402344-.070312 2.746094-.214844 4.128906-.3125 2.808594-.199219 5.601563-.40625 8.34375-.703125 1.601563-.175781 3.199219-.417969 4.753907-.625 2.398437-.320313 4.796875-.640625 7.199219-1.03125 1.65625-.28125 3.253906-.609375 4.878906-.921875 2.167968-.421875 4.320312-.855469 6.402344-1.34375 1.597656-.375 3.199218-.796875 4.75-1.199219 1.96875-.527343 3.910156-1.0625 5.800781-1.648437 1.535156-.464844 3.023437-.960938 4.496093-1.464844 1.792969-.621094 3.519532-1.261719 5.222657-1.933594 1.402343-.5625 2.785156-1.121094 4.121093-1.710937 1.597657-.722657 3.199219-1.480469 4.679688-2.25 1.222656-.625 2.457031-1.246094 3.609375-1.894531.429687-.25.933594-.472657 1.359375-.722657 3.074219 2.511719 5.007812 6.152344 5.375 10.105469-.980469 5.71875-4.496094 10.683594-9.558594 13.511719zm-78.441406-85.511719c50.398438 0 88 16.894531 88 32-.992188 5.722656-4.519531 10.691406-9.601562 13.511719-15.773438 11.398437-45.832032 18.488281-78.398438 18.488281-4.070312 0-8.105469-.113281-12.070312-.328125-27.792969-1.511719-52.539063-8.183594-66.402344-18.199219-5.050782-2.820312-8.550782-7.773437-9.527344-13.472656 0-15.105469 37.601562-32 88-32zm0 344c-50.398438 0-88-16.894531-88-32 .367188-3.960938 2.308594-7.609375 5.390625-10.121094.433594.257813.945313.480469 1.394531.738282 1.09375.613281 2.253906 1.199218 3.414063 1.789062 1.601562.800781 3.199219 1.601562 4.929687 2.402344 1.261719.558594 2.558594 1.085937 3.878906 1.597656 1.785157.707031 3.609376 1.386719 5.496094 2.042969 1.398438.480469 2.808594.941406 4.257813 1.382812 1.964843.609375 4 1.175781 6.046875 1.71875 1.503906.394531 3.007812.800781 4.550781 1.152344 2.152344.496094 4.351563.945313 6.585937 1.375 1.597657.304687 3.132813.625 4.757813.898437 2.402344.398438 4.800781.726563 7.242187 1.046876 1.597657.207031 3.101563.441406 4.695313.617187 2.742187.296875 5.550781.503906 8.367187.703125 1.375.097656 2.71875.242188 4.113282.3125 4.230468.230469 8.527344.359375 12.878906.359375s8.648438-.128906 12.878906-.359375c1.402344-.070312 2.746094-.214844 4.128906-.3125 2.808594-.199219 5.601563-.40625 8.34375-.703125 1.601563-.175781 3.199219-.417969 4.753907-.625 2.398437-.320313 4.796875-.640625 7.199219-1.03125 1.65625-.28125 3.253906-.609375 4.878906-.921875 2.167968-.421875 4.320312-.855469 6.402344-1.34375 1.597656-.375 3.199218-.796875 4.75-1.199219 1.96875-.527343 3.910156-1.0625 5.800781-1.648437 1.535156-.464844 3.023437-.960938 4.496093-1.464844 1.792969-.621094 3.519532-1.261719 5.222657-1.933594 1.402343-.5625 2.785156-1.121094 4.121093-1.710937 1.597657-.722657 3.199219-1.480469 4.679688-2.25 1.222656-.625 2.457031-1.246094 3.609375-1.894531.429687-.25.933594-.472657 1.359375-.722657 3.074219 2.511719 5.007812 6.152344 5.375 10.105469 0 15.105469-37.601562 32-88 32zm0 0"/></svg>