<svg xmlns="http://www.w3.org/2000/svg" width="13" height="16" viewBox="0 0 13 16">
    <g fill="#333" fill-rule="nonzero">
        <path d="M7.95 10.342c-.201.116-.5-.017-.664-.297l-1.383-2.34c-.165-.28-.135-.6.067-.716l.218-.125-.978-1.655c-.01.006-.022.01-.033.017-.878.502-1.008 1.908-.29 3.123l1.305 2.209c.718 1.215 2.023 1.798 2.9 1.295l.032-.02-.955-1.616-.218.125zM6.856 6.472a.299.299 0 0 0 .11-.412L6.3 4.931a.308.308 0 0 0-.418-.109l-.335.192.975 1.65.335-.192zM9.24 9.909a.308.308 0 0 0-.418-.109l-.334.192.974 1.65.335-.193a.299.299 0 0 0 .11-.411l-.667-1.13z"/>
        <path d="M11.787.173h-9.82C1.354.173.856.663.856 1.267v.424H.334A.23.23 0 0 0 .1 1.92a.23.23 0 0 0 .233.229h.522v1.296H.334a.23.23 0 0 0-.233.228.23.23 0 0 0 .233.229h.522v1.296H.334a.23.23 0 0 0-.233.229.23.23 0 0 0 .233.228h.522v1.297H.334A.23.23 0 0 0 .1 7.18a.23.23 0 0 0 .233.229h.522v1.296H.334a.23.23 0 0 0-.233.228.23.23 0 0 0 .233.23h.522v1.295H.334a.23.23 0 0 0-.233.229.23.23 0 0 0 .233.228h.522v1.297H.334a.23.23 0 0 0-.233.228.23.23 0 0 0 .233.229h.522v1.296H.334a.23.23 0 0 0-.233.229.23.23 0 0 0 .233.228h.522v.311c0 .603.498 1.094 1.11 1.094h9.821c.613 0 1.111-.49 1.111-1.094V1.267c0-.603-.498-1.094-1.11-1.094zm.647 14.56c0 .351-.29.637-.647.637h-9.82a.643.643 0 0 1-.647-.637v-.31h.523a.23.23 0 0 0 .232-.23.23.23 0 0 0-.232-.228H1.32V12.67h.523a.23.23 0 0 0 .232-.229.23.23 0 0 0-.232-.228H1.32v-1.296h.523a.23.23 0 0 0 .232-.229.23.23 0 0 0-.232-.228H1.32V9.162h.523a.23.23 0 0 0 .232-.228.23.23 0 0 0-.232-.229H1.32V7.41h.523a.23.23 0 0 0 .232-.229.23.23 0 0 0-.232-.228H1.32V5.656h.523a.23.23 0 0 0 .232-.229.23.23 0 0 0-.232-.229H1.32V3.902h.523a.23.23 0 0 0 .232-.228.23.23 0 0 0-.232-.229H1.32V2.149h.523a.23.23 0 0 0 .232-.229.23.23 0 0 0-.232-.229H1.32v-.424c0-.351.29-.637.647-.637h9.82c.357 0 .647.286.647.637v13.466z"/>
    </g>
</svg>
