<svg xmlns="http://www.w3.org/2000/svg" width="22" height="23" viewBox="0 0 22 23">
    <g fill="#000" fill-rule="nonzero" stroke="#000" stroke-width=".3" opacity=".5">
        <path d="M14.462 21.921c1.948 0 3.512-1.549 3.59-3.543l.41-12.968h1.923a.52.52 0 0 0 .512-.525.52.52 0 0 0-.512-.525H15V3.179c0-1.155-.923-2.1-2.051-2.1H9.05C7.923 1.079 7 2.024 7 3.179V4.36H1.59a.52.52 0 0 0-.513.525c0 .289.23.525.513.525h1.923l.41 12.968C4 20.372 5.564 21.92 7.513 21.92h6.949zM8.026 3.18c0-.578.461-1.05 1.025-1.05h3.898c.564 0 1.025.472 1.025 1.05V4.36H8.026V3.179zM4.974 18.325l-.41-12.941h12.898l-.436 12.941c-.052 1.418-1.18 2.546-2.564 2.546H7.538c-1.384 0-2.512-1.102-2.564-2.546z"/>
        <path d="M11 17.511a.52.52 0 0 0 .513-.525V9.137A.52.52 0 0 0 11 8.612a.52.52 0 0 0-.513.525v7.85c0 .288.23.524.513.524zM7.923 17.511a.52.52 0 0 0 .513-.525V9.137a.52.52 0 0 0-.513-.525.52.52 0 0 0-.513.525v7.85c0 .288.231.524.513.524zM14.077 17.511a.52.52 0 0 0 .513-.525V9.137a.52.52 0 0 0-.513-.525.52.52 0 0 0-.513.525v7.85c0 .288.23.524.513.524z"/>
    </g>
</svg>
