<?xml version="1.0" encoding="UTF-8"?>
<svg width="16px" height="15px" viewBox="0 0 16 15" version="1.1" xmlns="http://www.w3.org/2000/svg" xmlns:xlink="http://www.w3.org/1999/xlink">
    <!-- Generator: Sketch 49.1 (51147) - http://www.bohemiancoding.com/sketch -->
    <title>delete</title>
    <desc>Created with Sketch.</desc>
    <defs></defs>
    <g id="Page-1" stroke="none" stroke-width="1" fill="none" fill-rule="evenodd">
        <g id="checkout2" transform="translate(-750.000000, -279.000000)" fill-rule="nonzero">
            <g id="Group-10" transform="translate(555.000000, 270.000000)">
                <g id="delete" transform="translate(195.714004, 8.964000)">
                    <path d="M14.0985267,2.25637946 L10.0163914,2.25637946 L10.0163914,1.92901768 C10.0163914,0.958296 9.22946596,0.171370592 8.25874428,0.171370592 L6.68125601,0.171370592 C5.71053433,0.171370592 4.92360892,0.958296 4.92360892,1.92901768 L4.92360892,2.25637946 L0.841473546,2.25637946 C0.477452925,2.25637947 0.182355914,2.55147649 0.182355914,2.91549712 C0.182355914,3.27951774 0.477452925,3.57461476 0.841473546,3.57461478 L2.14872357,3.57461478 L2.16410298,11.9234385 C2.16410298,13.5008612 3.44285677,14.779615 5.02027951,14.779615 L9.91972078,14.779615 C11.4971435,14.779615 12.7758973,13.5008612 12.7758973,11.9234385 L12.7912767,3.57461478 L14.0985267,3.57461478 C14.4625474,3.57461478 14.7576444,3.27951775 14.7576444,2.91549712 C14.7576444,2.55147648 14.4625474,2.25637946 14.0985267,2.25637946 Z M6.24184424,1.92901768 C6.24184424,1.68633726 6.43857559,1.48960591 6.68125601,1.48960591 L8.25874428,1.48960591 C8.5014247,1.48960591 8.69815605,1.68633726 8.69815605,1.92901768 L8.69815605,2.25637946 L6.24184424,2.25637946 L6.24184424,1.92901768 Z M11.457662,11.9146502 C11.457662,12.7640317 10.7691023,13.4525914 9.91972078,13.4525914 L5.02027951,13.4525914 C4.17089804,13.4525914 3.4823383,12.7640317 3.4823383,11.9146502 L3.46695889,3.56582654 L11.4730414,3.56582654 L11.457662,11.9146502 Z" id="Shape" fill="#808A91"></path>
                    <path d="M6.15176483,5.60909129 C5.78774419,5.60909129 5.49264717,5.90418831 5.49264717,6.26820895 L5.49264717,10.6403561 C5.49264717,11.0043767 5.78774419,11.2994738 6.15176483,11.2994738 C6.51578546,11.2994738 6.81088249,11.0043767 6.81088249,10.6403561 L6.81088249,6.26820895 C6.81088249,5.90418831 6.51578546,5.60909129 6.15176483,5.60909129 Z" id="Shape" fill="#C6003C"></path>
                    <path d="M8.78823547,5.60909129 C8.42421483,5.60909129 8.12911781,5.90418831 8.12911781,6.26820895 L8.12911781,10.6403561 C8.12911781,11.0043767 8.42421483,11.2994738 8.78823547,11.2994738 C9.1522561,11.2994738 9.44735313,11.0043767 9.44735313,10.6403561 L9.44735313,6.26820895 C9.44735313,5.90418831 9.1522561,5.60909129 8.78823547,5.60909129 Z" id="Shape" fill="#C6003C"></path>
                </g>
            </g>
        </g>
    </g>
</svg>