<svg xmlns="http://www.w3.org/2000/svg" width="25" height="24" viewBox="0 0 25 24">
    <path fill="#FFF" fill-rule="evenodd" d="M24.194 20.855c.008.083.025.163.025.248 0 1.6-1.226 2.897-2.735 2.897-1.106 0-2.054-.698-2.484-1.699l.168-.286c.02-.032.365-.566 1.341-.898.008.565.44 1.02.975 1.02.539 0 .977-.461.977-1.034 0-.088-.027-.166-.047-.248h1.78zm-23.023-6.58c0 .115.088.208.196.208h3.515a.202.202 0 0 0 .196-.207v-3.724a.202.202 0 0 0-.196-.207h-.976v2.069l-.781-.828-.781.828v-2.07h-.977a.202.202 0 0 0-.196.208v3.724zm9.168-.206c.33 0 .598.284.598.634v.76c0 .386-.276.697-.616.697-1.388 1.22-.423 2.874 1.006 2.874H12.5c-.432 0-.781-.37-.781-.827V13.24H8.133c-.311 0-.607-.139-.816-.384a1.207 1.207 0 0 1-.28-.899L7.561 6.4c.078-.814.724-1.433 1.496-1.433h1.125c.48 0 .935.22 1.25.603l1.426 1.739 1.883.274c.257.037.471.18.621.376l.751-.205c.855-.272.808-1.132 1.856-1.132h.819c.41 0 .743.722.743 1.495 0 .774-.332 1.401-.743 1.401h-.807l2.815 6.982s.386-.034.504-.034c1.964 0 3.7 1.587 3.7 2.779 0 .342-.26.618-.584.618H22.24c-2.145 0-3.197.828-3.63 1.313a1.012 1.012 0 0 1-.752.342H8.237a.406.406 0 0 1-.3-.126.46.46 0 0 1-.125-.317v-.383c0-.455-.347-.829-.777-.829H1.53a.702.702 0 0 1-.529-.247.794.794 0 0 1-.186-.582c.238-2.89 1.67-3.309 1.67-3.309h-.922C.699 15.724 0 14.984 0 14.07v-3.31c0-.914.7-1.656 1.563-1.656h3.125c.863 0 1.562.742 1.562 1.656v3.31h4.09zm6.62-1.448l-.878-3.54-.715.153c-.182.244-.45.407-.756.407a.932.932 0 0 1-.134-.01l-2.058-.299a1.365 1.365 0 0 1-.85-.482l-.896-1.075-.282 2.984h2.11c.862 0 1.563.74 1.563 1.655v4.965h.78c.433 0 .782.37.782.828 0 .457-.35.827-.781.827h.781c1.524 0 1.665-2.09.903-4.46-.35-1.088.621-1.522.43-1.953zM9.766 4.138c1.079 0 1.953-.926 1.953-2.069 0-.142-.014-.28-.04-.414h1.212c.215 0 .39-.185.39-.414 0-.228-.175-.413-.39-.413h-1.572C10.962.328 10.402 0 9.766 0c-1.08 0-1.954.926-1.954 2.069 0 1.143.875 2.069 1.954 2.069zM5.19 20.69c.051.127.083.266.083.413 0 .573-.438 1.035-.976 1.035-.54 0-.977-.462-.977-1.035 0-.147.03-.286.084-.413H1.601c-.018.135-.038.271-.038.413 0 1.6 1.223 2.897 2.734 2.897 1.509 0 2.734-1.297 2.734-2.897 0-.142-.021-.278-.04-.413H5.19z"/>
</svg>
