<svg xmlns="http://www.w3.org/2000/svg" width="21" height="14" viewBox="0 0 21 14">
    <g fill="#333" fill-rule="evenodd">
        <path stroke="#333" stroke-width=".1" d="M19.271 6.712l-.277-2.631c0-.788-.644-1.429-1.436-1.429h-2.884a.287.287 0 0 0-.287.286c0 .158.128.286.287.286h2.884c.467 0 .862.392.863.88l.26 2.45h-.945l.366-.729a.288.288 0 0 0-.514-.255l-.494.985h-2.42a.287.287 0 0 0-.287.285c0 .158.128.286.287.286h4.201l.777.774c.164.163.203.537.203.655l-.287.018a.287.287 0 0 0-.287.286c0 .157.129.285.287.285h.287v2.287h-1a2.008 2.008 0 0 0-1.988-1.715c-1.108 0-2.01.897-2.01 2s.902 2 2.01 2c1.011 0 1.847-.746 1.987-1.714h1.288a.287.287 0 0 0 .288-.286v-3.16c0-.072-.01-.701-.372-1.06l-.787-.784zm-3.84 5.004c0-.787.645-1.428 1.436-1.428.792 0 1.436.64 1.436 1.428 0 .788-.644 1.43-1.436 1.43a1.434 1.434 0 0 1-1.435-1.43z"/>
        <path d="M4.817 10.86a.86.86 0 0 0-.861.856.86.86 0 0 0 1.723 0 .86.86 0 0 0-.862-.857zm0 1.142a.287.287 0 0 1-.287-.286.287.287 0 0 1 .574 0 .287.287 0 0 1-.287.286zM16.867 10.86a.86.86 0 0 0-.86.856.86.86 0 0 0 1.722 0 .86.86 0 0 0-.862-.857zm0 1.142a.287.287 0 0 1-.287-.286.287.287 0 0 1 .575 0 .287.287 0 0 1-.288.286z"/>
        <path stroke="#333" stroke-width=".1" d="M1.61 1.004c-.792 0-1.436.641-1.436 1.43v8.14c0 .8.63 1.428 1.436 1.428a.287.287 0 0 0 .287-.286.287.287 0 0 0-.287-.285.85.85 0 0 1-.862-.858v-8.14a.86.86 0 0 1 .862-.857h11.83v6.997H1.61a.287.287 0 0 0-.287.286c0 .157.128.285.287.285h11.83v2.287H6.804a2.008 2.008 0 0 0-1.987-1.715c-1.108 0-2.01.897-2.01 2s.902 2 2.01 2c1.01 0 1.847-.746 1.987-1.714h6.923a.287.287 0 0 0 .287-.286V1.29a.287.287 0 0 0-.287-.286H1.61zm1.772 10.712c0-.787.644-1.428 1.435-1.428.792 0 1.436.64 1.436 1.428 0 .788-.644 1.43-1.436 1.43a1.434 1.434 0 0 1-1.435-1.43z"/>
    </g>
</svg>
