<?xml version="1.0" standalone="no"?>
<!DOCTYPE svg PUBLIC "-//W3C//DTD SVG 20010904//EN"
 "http://www.w3.org/TR/2001/REC-SVG-20010904/DTD/svg10.dtd">
<svg version="1.0" xmlns="http://www.w3.org/2000/svg"
 width="580.000000pt" height="513.000000pt" viewBox="0 0 580.000000 513.000000"
 preserveAspectRatio="xMidYMid meet">
<metadata>
Created by potrace 1.15, written by Peter Selinger 2001-2017
</metadata>
<g transform="translate(0.000000,513.000000) scale(0.100000,-0.100000)"
fill="#9b9b9b" stroke="none">
<path d="M1523 4478 l-653 -653 0 -1715 c0 -1119 4 -1730 11 -1759 37 -161
185 -307 346 -341 32 -7 598 -10 1703 -8 l1655 3 78 37 c103 50 175 122 225
225 l37 78 3 2185 c2 1647 0 2199 -9 2240 -29 138 -123 254 -256 318 l-78 37
-1205 3 -1205 2 -652 -652z m3062 438 c28 -12 67 -41 87 -64 74 -82 68 124 68
-2280 0 -1665 -3 -2174 -12 -2206 -16 -55 -109 -148 -164 -164 -32 -9 -425
-12 -1673 -12 l-1631 0 -45 21 c-56 27 -127 104 -143 157 -9 30 -12 431 -12
1636 l0 1596 548 0 c611 0 614 0 690 66 24 20 55 59 70 88 l27 51 3 568 3 567
1067 0 1067 0 50 -24z m-2375 -550 l0 -523 -26 -27 -27 -26 -526 0 -526 0 550
550 c302 303 551 550 552 550 2 0 3 -236 3 -524z"/>
<path d="M1697 3233 c-4 -3 -7 -46 -7 -95 l0 -88 1210 0 1211 0 -3 93 -3 92
-1201 3 c-660 1 -1204 -1 -1207 -5z"/>
<path d="M1690 2650 l0 -90 1210 0 1210 0 0 90 0 90 -1210 0 -1210 0 0 -90z"/>
<path d="M1692 2158 l3 -93 1205 0 1205 0 3 93 3 92 -1211 0 -1211 0 3 -92z"/>
<path d="M1690 1665 l0 -95 1210 0 1210 0 0 95 0 95 -1210 0 -1210 0 0 -95z"/>
<path d="M1697 1263 c-4 -3 -7 -46 -7 -95 l0 -88 1210 0 1211 0 -3 93 -3 92
-1201 3 c-660 1 -1204 -1 -1207 -5z"/>
</g>
</svg>
