<?xml version="1.0" encoding="UTF-8"?>
<svg width="16px" height="15px" viewBox="0 0 16 15" version="1.1" xmlns="http://www.w3.org/2000/svg" xmlns:xlink="http://www.w3.org/1999/xlink">
    <!-- Generator: Sketch 49.1 (51147) - http://www.bohemiancoding.com/sketch -->
    <title>edit </title>
    <desc>Created with Sketch.</desc>
    <defs></defs>
    <g id="Page-1" stroke="none" stroke-width="1" fill="none" fill-rule="evenodd">
        <g id="checkout2" transform="translate(-788.000000, -279.000000)" fill-rule="nonzero">
            <g id="Group-10" transform="translate(555.000000, 270.000000)">
                <g id="edit-" transform="translate(233.064005, 8.964000)">
                    <path d="M15.0542474,13.8290772 L0.632752954,13.8290772 C0.32955883,13.8290772 0.0922764724,14.0716926 0.0922764724,14.3526157 C0.0922764724,14.6335387 0.342741183,14.8761541 0.632752954,14.8761541 L15.0674297,14.8761541 C15.3706238,14.8761541 15.6079062,14.6335387 15.6079062,14.3526157 C15.6079062,14.0716926 15.3574415,13.8290772 15.0542474,13.8290772 Z" id="Shape" fill="#C6003C"></path>
                    <path d="M0.0922764724,9.19384633 L0.0790941192,11.6838464 C0.0790941192,11.8243079 0.131823532,11.9647695 0.237282358,12.0669233 C0.342741183,12.1690772 0.474564715,12.2201541 0.6195706,12.2201541 L3.17694712,12.2073849 C3.32195301,12.2073849 3.45377654,12.1563079 3.55923536,12.0541541 L12.391412,3.4987693 C12.6023297,3.2944616 12.6023297,2.9624616 12.391412,2.74538467 L9.86040019,0.268153851 C9.64948254,0.0638461551 9.30674136,0.0638461551 9.08264135,0.268153851 L7.31620603,1.99200004 L0.250464711,8.82353863 C0.158188238,8.92569248 0.0922764724,9.05338479 0.0922764724,9.19384633 Z M9.47811195,1.39184618 L11.2577296,3.11569237 L10.2558708,4.08615393 L8.47625311,2.36230774 L9.47811195,1.39184618 Z M1.18641179,9.42369249 L7.69849427,3.11569237 L9.47811195,4.83953856 L2.96602947,11.1347694 L1.17322943,11.1475387 L1.18641179,9.42369249 Z" id="Shape" fill="#808A91"></path>
                </g>
            </g>
        </g>
    </g>
</svg>