<svg xmlns="http://www.w3.org/2000/svg" width="154" height="128" viewBox="0 0 154 128">
    <g fill="none" fill-rule="evenodd">
        <path fill="#EEF5F9" d="M144.742 65.176H9.258l5.724 47.828c.876 7.314 7.065 12.82 14.412 12.82h95.212c7.347 0 13.536-5.506 14.412-12.82l5.724-47.828z"/>
        <path stroke="#96281B" stroke-linecap="round" stroke-linejoin="round" stroke-width="4.839" d="M77 116.12V74.88M46.758 116.12V74.88M107.242 116.12V74.88"/>
        <path fill="#FFF" d="M46.758 74.88c-4.176 0-7.56 3.394-7.56 7.581v26.079c0 4.187 3.384 7.58 7.56 7.58s7.56-3.393 7.56-7.58V82.46c0-4.187-3.384-7.58-7.56-7.58"/>
        <path stroke="#D9DDE1" stroke-width="4.839" d="M46.758 74.88c-4.176 0-7.56 3.394-7.56 7.581v26.079c0 4.187 3.384 7.58 7.56 7.58s7.56-3.393 7.56-7.58V82.46c0-4.187-3.384-7.58-7.56-7.58z"/>
        <path fill="#FFF" d="M77 74.88c-4.176 0-7.56 3.394-7.56 7.581v26.079c0 4.187 3.384 7.58 7.56 7.58s7.56-3.393 7.56-7.58V82.46c0-4.187-3.384-7.58-7.56-7.58"/>
        <path stroke="#D9DDE1" stroke-width="4.839" d="M77 74.88c-4.176 0-7.56 3.394-7.56 7.581v26.079c0 4.187 3.384 7.58 7.56 7.58s7.56-3.393 7.56-7.58V82.46c0-4.187-3.384-7.58-7.56-7.58z"/>
        <path fill="#FFF" d="M107.242 74.88c-4.176 0-7.56 3.394-7.56 7.581v26.079c0 4.187 3.384 7.58 7.56 7.58s7.56-3.393 7.56-7.58V82.46c0-4.187-3.384-7.58-7.56-7.58"/>
        <path stroke="#D9DDE1" stroke-width="4.839" d="M107.242 74.88c-4.176 0-7.56 3.394-7.56 7.581v26.079c0 4.187 3.384 7.58 7.56 7.58s7.56-3.393 7.56-7.58V82.46c0-4.187-3.384-7.58-7.56-7.58z"/>
        <path stroke="#D9DDE1" stroke-width="3.839" d="M144.742 65.176H9.258l5.724 47.828c.876 7.314 7.065 12.82 14.412 12.82h95.212c7.347 0 13.536-5.506 14.412-12.82l5.724-47.828zM149.6 65.176H4.4A2.404 2.404 0 0 1 2 62.77V52.42a2.404 2.404 0 0 1 2.4-2.406h145.2c1.325 0 2.4 1.078 2.4 2.407V62.77a2.403 2.403 0 0 1-2.4 2.406z"/>
        <path fill="#FFF" d="M77 54.866a4.809 4.809 0 0 1-3.421-1.421 4.86 4.86 0 0 1 0-6.86l42.77-42.886a4.828 4.828 0 0 1 6.841 0 4.86 4.86 0 0 1 0 6.86L80.421 53.445A4.813 4.813 0 0 1 77 54.866"/>
        <path stroke="#D9DDE1" stroke-width="2.839" d="M77 54.866a4.809 4.809 0 0 1-3.421-1.421 4.86 4.86 0 0 1 0-6.86l42.77-42.886a4.828 4.828 0 0 1 6.841 0 4.86 4.86 0 0 1 0 6.86L80.421 53.445A4.813 4.813 0 0 1 77 54.866z"/>
    </g>
</svg>
