<svg xmlns="http://www.w3.org/2000/svg" width="85" height="85" viewBox="0 0 85 85">
    <g fill="#8E3247" fill-rule="evenodd">
        <path d="M63.204 11.516c-1.726 2.911-6.39 7.705-18.441 8.132C45.437 6.81 53.803 3.32 58.83 3.32c2.514 0 4.644.833 5.427 2.124.519.857.544 3.378-1.054 6.071zm-40.408 0c-1.598-2.693-1.573-5.214-1.054-6.07.783-1.292 2.914-2.125 5.427-2.125 5.027 0 13.394 3.49 14.069 16.327-12.053-.427-16.717-5.22-18.442-8.132zm44.427-7.75C65.793 1.407 62.655 0 58.831 0 52.605 0 46.033 3.63 43 11.4 39.97 3.627 33.396 0 27.17 0c-3.825 0-6.962 1.407-8.393 3.766-1.105 1.822-1.252 5.541 1.036 9.403C21.992 16.84 27.9 23 43 23h.02c15.086-.005 20.99-6.161 23.166-9.831 2.29-3.862 2.143-7.58 1.037-9.403z"/>
        <path d="M39.19 81.704h7.62V24.296h-7.62v57.408zM48.404 85h-10.81C36.714 85 36 84.26 36 83.352V22.648c0-.91.714-1.648 1.595-1.648h10.81c.88 0 1.595.738 1.595 1.648v60.704c0 .909-.714 1.648-1.595 1.648z"/>
        <path d="M83.333 20H1.667C.747 20 0 20.733 0 21.635v17.73C0 40.269.746 41 1.667 41h35.18v-3.27H3.334V23.27h78.332v14.46H48.1V41h35.233c.92 0 1.667-.73 1.667-1.635v-17.73c0-.902-.746-1.635-1.667-1.635M74.653 41v40.614H10.347V41H7v42.307C7 84.242 7.75 85 8.673 85h67.654C77.25 85 78 84.242 78 83.307V41h-3.347"/>
    </g>
</svg>
