<svg xmlns="http://www.w3.org/2000/svg" width="202" height="132" viewBox="0 0 202 132">
    <g fill="none" fill-rule="evenodd" transform="translate(1)">
        <path fill="#E1ECF4" d="M103.09 110.405c-23.106 0-41.906-18.784-41.906-41.873 0-23.09 18.8-41.873 41.906-41.873 23.108 0 41.907 18.784 41.907 41.873s-18.8 41.873-41.907 41.873m0-103.363c-33.986 0-61.538 27.53-61.538 61.49s27.552 61.49 61.538 61.49c33.987 0 61.539-27.53 61.539-61.49s-27.552-61.49-61.539-61.49"/>
        <path fill="#BCC3CA" stroke="#FFF" d="M100.749 3.721c-34.187 0-62 27.813-62 62s27.813 62 62 62 62-27.813 62-62-27.813-62-62-62m0 127.053c-35.898 0-65.104-29.183-65.104-65.053S64.851.669 100.75.669c35.898 0 65.104 29.182 65.104 65.052 0 35.87-29.206 65.053-65.104 65.053"/>
        <path fill="#E1EDF4" d="M7.773 112.786c0 7.483 4.298 10.968 7.203 10.968 2.905 0 7.203-3.485 7.203-10.968 0-3.845-1.07-11.675-2.203-19.964-1.456-10.65-3.106-22.721-3.106-30.558h-3.782c0 7.838-1.652 19.908-3.11 30.558-1.134 8.29-2.205 16.12-2.205 19.964"/>
        <path fill="#FFF" d="M12.317 6.457V38.54"/>
        <path fill="#BCC3CA" d="M12.317 40.544a2.006 2.006 0 0 1-2.007-2.005V6.457a2.006 2.006 0 0 1 4.013 0V38.54a2.006 2.006 0 0 1-2.006 2.005"/>
        <path fill="#BCC3CA" stroke="#FFF" d="M12.315 125.76c-4.93 0-11.873-4.646-11.873-14.977 0-4.144 1.135-11.75 2.45-20.557C4.463 79.714 6.242 67.8 6.242 60.261c0-5.924-1.177-8.098-2.54-10.615-1.735-3.204-3.7-6.836-3.7-17.29V6.457a2.006 2.006 0 0 1 4.013 0v25.9c0 9.438 1.635 12.46 3.217 15.381 1.486 2.745 3.023 5.584 3.023 12.523 0 7.837-1.802 19.907-3.392 30.557-1.238 8.29-2.407 16.119-2.407 19.965 0 7.481 4.69 10.967 7.86 10.967s7.86-3.486 7.86-10.967c0-3.846-1.169-11.676-2.405-19.965-1.589-10.65-3.389-22.72-3.389-30.557 0-6.94 1.538-9.778 3.023-12.523 1.583-2.921 3.218-5.943 3.218-15.382V6.457a2.006 2.006 0 0 1 4.014 0v25.9c0 10.453-1.967 14.085-3.701 17.29-1.363 2.516-2.54 4.69-2.54 10.614 0 7.539 1.777 19.454 3.344 29.966 1.314 8.807 2.448 16.413 2.448 20.556 0 10.33-6.943 14.978-11.872 14.978"/>
        <path fill="#E1ECF4" d="M185.972 98.886c-1.163 5.44-2.168 10.137-2.168 13.9 0 7.448 4.222 10.898 7.22 10.969 1.342.046 2.844-.692 4.007-1.936 1.268-1.357 2.78-3.978 2.78-8.759 0-5.352-.738-9.298-1.593-13.868-1.068-5.706-2.279-15.272-2.293-25.982 0 0-4.536.048-4.536.052 0 10.475-1.953 18.778-3.417 25.624"/>
        <path fill="#BCC3CA" stroke="#FFF" d="M188.335 8.462c-7.469 0-11.927 18.145-11.927 48.537 0 8.482 2.597 9.648 5.11 10.776 2.004.9 4.749 2.134 4.749 6.582 0 7.918-1.817 15.679-3.419 22.526-1.273 5.44-2.373 10.137-2.373 13.9 0 7.447 4.621 10.897 7.902 10.968 1.476.035 3.113-.69 4.386-1.936 1.388-1.357 3.043-3.978 3.043-8.758 0-5.353-.809-9.299-1.744-13.868-1.17-5.71-2.495-12.18-2.51-22.897v-.162c0-10.865.017-25.766.031-38.695.012-9.907.022-18.656.022-23.544 0-1.923-1.436-3.429-3.27-3.429m.14 117.3c-.061 0-.123 0-.184-.002-4.912-.106-11.83-4.824-11.83-14.977 0-4.226 1.205-9.37 2.479-14.814 1.553-6.635 3.314-14.156 3.314-21.612 0-1.855-.552-2.102-2.382-2.925-3.784-1.699-7.477-4.213-7.477-14.433 0-34.867 5.362-52.547 15.94-52.547 4.084 0 7.284 3.268 7.284 7.439 0 4.889-.01 13.64-.022 23.549-.015 12.928-.032 27.826-.032 38.69v.156c.014 10.314 1.297 16.575 2.428 22.099.94 4.583 1.827 8.913 1.827 14.672 0 6.174-2.312 9.73-4.25 11.625-2.01 1.964-4.586 3.08-7.095 3.08"/>
        <circle cx="103" cy="66" r="44" fill="#FFF" stroke="#979797" opacity=".805"/>
    </g>
</svg>
