<svg xmlns="http://www.w3.org/2000/svg" xmlns:xlink="http://www.w3.org/1999/xlink" width="20" height="20" viewBox="0 0 20 20">
    <defs>
        <path id="a" d="M0 0h19.938v19.914H0z"/>
    </defs>
    <g fill="none" fill-rule="evenodd">
        <g>
            <mask id="b" fill="#fff">
                <use xlink:href="#a"/>
            </mask>
            <path fill="#FFF" d="M19.606 9.637h-.674c-.17-4.683-3.947-8.46-8.63-8.63V.332a.333.333 0 0 0-.665 0v.673c-4.683.17-8.46 3.948-8.63 8.63H.332a.333.333 0 0 0 0 .666h.673c.17 4.683 3.948 8.46 8.63 8.63v.674a.333.333 0 0 0 .666 0v-.674c4.683-.17 8.46-3.947 8.63-8.63h.674a.333.333 0 0 0 0-.665zm-9.304 8.632v-.658c0-.183-.15-.33-.333-.33a.332.332 0 0 0-.332.33v.658c-4.316-.172-7.795-3.651-7.967-7.967h.657c.183 0 .33-.15.33-.333a.332.332 0 0 0-.33-.332H1.67C1.842 5.32 5.32 1.842 9.637 1.67v.657c0 .183.149.33.332.33a.332.332 0 0 0 .333-.33V1.67c4.316.172 7.795 3.65 7.967 7.967h-.658c-.183 0-.33.149-.33.332 0 .183.147.333.33.333h.658c-.172 4.316-3.651 7.795-7.967 7.967z" mask="url(#b)"/>
        </g>
        <circle cx="9.969" cy="9.969" r="2.991" fill="#FFF"/>
    </g>
</svg>
