<?xml version="1.0" encoding="UTF-8"?>
<svg width="16px" height="14px" viewBox="0 0 16 14" version="1.1" xmlns="http://www.w3.org/2000/svg" xmlns:xlink="http://www.w3.org/1999/xlink">
    <!-- Generator: Sketch 49.1 (51147) - http://www.bohemiancoding.com/sketch -->
    <title>home_gray</title>
    <desc>Created with Sketch.</desc>
    <defs></defs>
    <g id="Page-1" stroke="none" stroke-width="1" fill="none" fill-rule="evenodd">
        <g id="checkout2" transform="translate(-584.000000, -303.000000)" fill="#808A91" fill-rule="nonzero" stroke="#808A91" stroke-width="0.5">
            <g id="Group-10" transform="translate(555.000000, 270.000000)">
                <g id="Group-8" transform="translate(29.880001, 30.627001)">
                    <g id="Group-4">
                        <g id="home_gray" transform="translate(0.000000, 3.000000)">
                            <path d="M13.8511037,5.29406114 L7.2148971,0.0754609986 C7.08692858,-0.0251536662 6.91307734,-0.0251536662 6.78516351,0.0754609986 L0.148902257,5.29406114 C-0.0131911956,5.4215475 -0.0484098809,5.66600648 0.0702891199,5.8400998 C0.188988121,6.01419313 0.416624421,6.05196034 0.57869053,5.92453272 L7.00000296,0.874886506 L13.4213154,5.92450335 C13.4860653,5.97545678 13.5613151,5.99997903 13.6359087,5.99997903 C13.7479085,5.99997903 13.8584318,5.94462041 13.9296895,5.84007044 C14.0484158,5.66600648 14.0131971,5.4215475 13.8511037,5.29406114 Z" id="Shape"></path>
                            <path d="M11.6666483,6 C11.4825832,6 11.3333216,6.16566796 11.3333216,6.37002702 L11.3333216,12.2598903 L8.66675854,12.2598903 L8.66675854,9.04483033 C8.66675854,8.02456489 7.9190224,7.19455615 7,7.19455615 C6.0809776,7.19455615 5.33324146,8.02462052 5.33324146,9.04483033 L5.33324146,12.2599181 L2.6666533,12.2599181 L2.6666533,6.37005484 C2.6666533,6.16569578 2.51739172,6.00002782 2.33332665,6.00002782 C2.14926158,6.00002782 2,6.16569578 2,6.37005484 L2,12.629973 C2,12.834332 2.14926158,13 2.33332665,13 L5.66656811,13 C5.8418634,13 5.98531188,12.8496583 5.99859182,12.6587896 C5.99939363,12.6501391 5.99989476,12.6406819 5.99989476,12.629973 L5.99989476,9.04485814 C5.99989476,8.43267106 6.44853144,7.934638 7,7.934638 C7.55146856,7.934638 8.00010524,8.43269888 8.00010524,9.04485814 L8.00010524,12.629973 C8.00010524,12.6406262 8.00060637,12.6499166 8.00140818,12.6584559 C8.01453778,12.8494636 8.15803637,13 8.33343189,13 L11.6666733,13 C11.8507635,13 12,12.834332 12,12.629973 L12,6.37005484 C11.9999749,6.16566796 11.8507384,6 11.6666483,6 Z" id="Shape"></path>
                        </g>
                    </g>
                </g>
            </g>
        </g>
    </g>
</svg>