<svg xmlns="http://www.w3.org/2000/svg" width="50" height="56" viewBox="0 0 50 56">
    <g fill="#333" fill-rule="nonzero">
        <path d="M47.777 38.735a4.255 4.255 0 0 0-3.973-.197l-8.95 4.196v-.456c0-2.192-1.739-3.855-4.008-3.855h-8.669c-1.768 0-3.577-.316-5.267-.821l-5.647-1.732v-2.2c0-.703-.48-1.23-1.208-1.23H2.148c-.728 0-1.428.527-1.428 1.23v20.24c0 .703.7 1.315 1.428 1.315h7.907c.728 0 1.208-.612 1.208-1.315v-2.038l.943.71c2.389 1.856 5.447 2.898 8.512 2.898h7.617c2.725 0 5.356-.805 7.607-2.289l11.973-7.903a3.88 3.88 0 0 0 1.765-3.233c0-1.357-.711-2.601-1.903-3.32zM9.36 52.6H3.6V35.32h5.76V52.6zm36.845-9.76l-11.564 7.914A10.465 10.465 0 0 1 28.73 52.6h-7.357a10.69 10.69 0 0 1-6.626-2.336l-2.506-1.993V38.2l4.702 1.499c1.876.58 3.876.935 5.84.935h8.373c.788 0 1.325.521 1.325 1.31v1.538c-1.528.418-5.103 1.157-8.72.574a1.248 1.248 0 0 0-1.434 1.055 1.282 1.282 0 0 0 1.068 1.459c1.107.178 2.206.25 3.249.25 4.123 0 7.45-1.12 7.623-1.178.047-.016.094-.036.138-.057l.01-.004 10.425-5.09c.432-.21.913-.186 1.32.069.407.254.641.675.641 1.155 0 .45-.222.871-.595 1.125zM18 23.8a5.767 5.767 0 0 0 5.76-5.76A5.767 5.767 0 0 0 18 12.28a5.767 5.767 0 0 0-5.76 5.76A5.767 5.767 0 0 0 18 23.8zm0-8.64a2.883 2.883 0 0 1 2.88 2.88A2.883 2.883 0 0 1 18 20.92a2.883 2.883 0 0 1-2.88-2.88A2.883 2.883 0 0 1 18 15.16zM29.52 12.28a5.767 5.767 0 0 0 5.76-5.76A5.767 5.767 0 0 0 29.52.76a5.767 5.767 0 0 0-5.76 5.76 5.767 5.767 0 0 0 5.76 5.76zm0-8.64a2.883 2.883 0 0 1 2.88 2.88 2.883 2.883 0 0 1-2.88 2.88 2.883 2.883 0 0 1-2.88-2.88 2.883 2.883 0 0 1 2.88-2.88zM29.52 20.92a5.767 5.767 0 0 0-5.76 5.76 5.767 5.767 0 0 0 5.76 5.76 5.767 5.767 0 0 0 5.76-5.76 5.767 5.767 0 0 0-5.76-5.76zm0 8.64a2.883 2.883 0 0 1-2.88-2.88 2.883 2.883 0 0 1 2.88-2.88 2.883 2.883 0 0 1 2.88 2.88 2.883 2.883 0 0 1-2.88 2.88z"/>
    </g>
</svg>
