<svg xmlns="http://www.w3.org/2000/svg" width="20" height="29" viewBox="0 0 20 29">
    <path fill="#D0021B" fill-rule="evenodd" d="M19.527 7.219c-.104-.387-.313-.8-.469-1.162C17.201 1.6 13.142 0 9.865 0 5.478 0 .645 2.94 0 8.996v1.237c0 .052.017.516.042.749.363 2.885 2.643 5.954 4.346 8.84C6.22 22.917 8.121 25.96 10.004 29c1.163-1.986 2.32-3.996 3.455-5.93.31-.566.67-1.133.978-1.674.206-.362.602-.722.78-1.057C17.05 16.988 20 13.61 20 10.285V8.919c0-.36-.448-1.623-.473-1.7zM9.945 13.43c-1.29 0-2.701-.643-3.398-2.423-.104-.283-.096-.851-.096-.903v-.8c0-2.267 1.928-3.299 3.605-3.299 2.064 0 3.661 1.651 3.661 3.714 0 2.062-1.707 3.711-3.772 3.711z"/>
</svg>
