<svg xmlns="http://www.w3.org/2000/svg" width="12" height="17" viewBox="0 0 12 17">
    <g fill="#FFF" fill-rule="evenodd">
        <path d="M5.998 15.193C4.19 13.048 1.08 8.814 1.08 5.998A4.923 4.923 0 0 1 5.998 1.08a4.923 4.923 0 0 1 4.917 4.918c0 2.817-3.11 7.049-4.917 9.195zM5.998 0A6.004 6.004 0 0 0 0 5.998c0 4.104 5.367 10.129 5.596 10.383a.54.54 0 0 0 .803 0c.229-.254 5.596-6.28 5.596-10.383A6.004 6.004 0 0 0 5.998 0z"/>
        <path d="M5.998 7.935A1.94 1.94 0 0 1 4.06 5.998 1.94 1.94 0 0 1 5.998 4.06a1.94 1.94 0 0 1 1.937 1.938 1.94 1.94 0 0 1-1.937 1.937zm0-4.955A3.02 3.02 0 0 0 2.98 5.998a3.021 3.021 0 0 0 3.018 3.017 3.021 3.021 0 0 0 3.017-3.017A3.021 3.021 0 0 0 5.998 2.98z"/>
    </g>
</svg>
