<svg xmlns="http://www.w3.org/2000/svg" width="144" height="117" viewBox="0 0 144 117">
    <g fill="none" fill-rule="evenodd" transform="translate(0 1)">
        <path fill="#FFF" fill-rule="nonzero" stroke="#979797" stroke-opacity=".5" stroke-width="2.304" d="M49.022 18.66a3.918 3.918 0 0 0-3.673-3.045 4.825 4.825 0 0 0-5.898-4.568c-.956.22-1.78.712-2.41 1.374a4.878 4.878 0 0 0-4.097-.908 4.906 4.906 0 0 0-3.765 4.169 4.82 4.82 0 0 0-1.884 9.182c.014.274.047.552.11.829a4.746 4.746 0 0 0 5.686 3.576 4.724 4.724 0 0 0 2.676-1.706c.576.142 1.19.158 1.807.017a3.9 3.9 0 0 0 1.227-.518 5.045 5.045 0 0 0 3.485.454 5.082 5.082 0 0 0 3.88-4.178 3.924 3.924 0 0 0 2.856-4.679z"/>
        <path fill="#FFF" fill-rule="nonzero" stroke="#979797" stroke-opacity=".5" stroke-width="3.84" d="M99.386 24.456a8.769 8.769 0 0 1 .078-3.485 8.735 8.735 0 0 1 10.131-6.674c1.874-3.137 5.6-4.869 9.354-4.02 3.302.747 5.728 3.293 6.5 6.376a7.854 7.854 0 0 1 2.69.13c3.295.746 5.635 3.451 6.093 6.614.174.028.348.05.522.09 4.634 1.049 7.543 5.664 6.496 10.31-1.045 4.644-5.65 7.56-10.282 6.511a8.585 8.585 0 0 1-1.193-.372c-1.082 3.234-4.451 5.185-7.843 4.418a6.674 6.674 0 0 1-3.28-1.825 6.853 6.853 0 0 1-7.169 2.822c-3.132-.708-5.268-3.46-5.344-6.537a7.874 7.874 0 0 1-5.454.733c-4.272-.967-6.955-5.224-5.99-9.507a7.931 7.931 0 0 1 4.69-5.584z"/>
        <path fill="#E13D36" fill-rule="nonzero" d="M71.116 2.428c-21.449 0-38.898 17.493-38.898 38.996 0 26.685 34.81 65.86 36.292 67.515a3.497 3.497 0 0 0 5.212 0c1.482-1.654 36.292-40.83 36.292-67.515 0-21.503-17.45-38.996-38.898-38.996zm0 58.615c-10.792 0-19.57-8.801-19.57-19.62 0-10.818 8.778-19.62 19.57-19.62 10.79 0 19.57 8.802 19.57 19.62 0 10.82-8.78 19.62-19.57 19.62z"/>
        <path fill="#FFF" fill-rule="nonzero" d="M71.116 2.428c-21.449 0-38.898 17.493-38.898 38.996 0 26.685 34.81 65.86 36.292 67.515a3.497 3.497 0 0 0 5.212 0c1.482-1.654 36.292-40.83 36.292-67.515 0-21.503-17.45-38.996-38.898-38.996zm0 58.615c-10.792 0-19.57-8.801-19.57-19.62 0-10.818 8.778-19.62 19.57-19.62 10.79 0 19.57 8.802 19.57 19.62 0 10.82-8.78 19.62-19.57 19.62z" opacity=".4"/>
        <ellipse cx="70.923" cy="113.88" fill="#EDEDED" fill-rule="nonzero" rx="51.703" ry="2.12"/>
        <g fill-rule="nonzero">
            <path fill="#FFF" d="M57.531 85.262c.101-.619.136-1.238.136-1.826 0-8.604-8.045-15.616-17.915-15.616-7.64 0-14.366 4.183-16.867 10.37-3.82.355-7.064 2.594-8.349 5.688h-.27c-7.706 0-13.96 5.45-13.96 12.168 0 6.718 6.254 12.169 13.96 12.169.44 0 .913-.029 1.352-.059 1.386 1.473 3.448 2.357 5.679 2.357 1.859 0 3.583-.59 4.9-1.62 1.961 1.738 4.7 2.77 7.606 2.77 4.225 0 7.976-2.21 9.7-5.393a15.676 15.676 0 0 0 7.64 1.975c7.706 0 13.96-5.451 13.96-12.169 0-4.568-2.975-8.751-7.572-10.814z"/>
            <path fill="#979797" d="M57.531 85.262c.101-.619.136-1.238.136-1.826 0-8.604-8.045-15.616-17.915-15.616-7.64 0-14.366 4.183-16.867 10.37-3.82.355-7.064 2.594-8.349 5.688h-.27c-7.706 0-13.96 5.45-13.96 12.168 0 6.718 6.254 12.169 13.96 12.169.44 0 .913-.029 1.352-.059 1.386 1.473 3.448 2.357 5.679 2.357 1.859 0 3.583-.59 4.9-1.62 1.961 1.738 4.7 2.77 7.606 2.77 4.225 0 7.976-2.21 9.7-5.393a15.676 15.676 0 0 0 7.64 1.975c7.706 0 13.96-5.451 13.96-12.169 0-4.568-2.975-8.751-7.572-10.814zm-6.388 19.27c-2.738 0-5.375-1.002-7.234-2.8l-3.312-3.182-.406 4.272c-.27 2.888-3.076 5.157-6.422 5.157-2.434 0-4.63-1.179-5.746-3.064l-2.13-3.654-1.656 3.83c-.507 1.061-1.657 1.739-2.941 1.739-1.15 0-2.23-.59-2.772-1.503l-.744-1.237-1.588.265c-.642.118-1.285.177-1.96.177-5.375 0-9.736-3.8-9.736-8.486 0-4.685 4.36-8.486 9.735-8.486.474 0 .98.03 1.555.118l2.13.295.304-1.856c.406-2.445 2.874-4.302 5.713-4.302l2.13.119.439-1.473c1.554-5.275 6.997-8.958 13.25-8.958 7.537 0 13.689 5.363 13.689 11.934a11 11 0 0 1-.304 2.533l-.406 1.562 1.724.56c3.853 1.208 6.422 4.42 6.422 7.955 0 4.684-4.36 8.484-9.734 8.484z" opacity=".5"/>
        </g>
        <ellipse cx="98.409" cy="3.083" fill="#FFF" fill-rule="nonzero" stroke="#979797" stroke-opacity=".3" stroke-width="1.152" rx="3.075" ry="3.083"/>
        <ellipse cx="16.144" cy="69.497" fill="#FFF" fill-rule="nonzero" stroke="#979797" stroke-opacity=".3" stroke-width="1.152" rx="3.075" ry="3.083"/>
        <g fill="#979797" fill-rule="nonzero" opacity=".5">
            <path d="M133.982 111.97l-4.358-4.37a.474.474 0 1 1 .67-.672l4.359 4.37a.474.474 0 1 1-.67.672z"/>
            <path d="M132.809 109.449l1.844-1.85a.474.474 0 1 0-.67-.672l-1.845 1.85.67.672zM131.468 109.449l-1.844 1.848a.474.474 0 1 0 .67.672l1.844-1.848-.67-.672z"/>
        </g>
        <g fill="#979797" fill-rule="nonzero" opacity=".5">
            <path d="M102.973 99.252l-4.358-4.37a.474.474 0 1 1 .67-.672l4.358 4.37a.474.474 0 1 1-.67.672z"/>
            <path d="M101.8 96.73l1.843-1.848a.474.474 0 1 0-.67-.672l-1.844 1.849.67.672zM100.459 96.73l-1.844 1.85a.474.474 0 1 0 .67.672l1.844-1.849-.67-.672z"/>
        </g>
        <g fill="#979797" fill-rule="nonzero" opacity=".5">
            <path d="M17.694 31.129l-4.358-4.37a.474.474 0 1 1 .67-.672l4.359 4.37a.474.474 0 1 1-.67.672z"/>
            <path d="M16.521 28.608l1.844-1.848a.474.474 0 1 0-.67-.672l-1.844 1.848.67.672zM15.18 28.608l-1.844 1.848a.474.474 0 1 0 .67.672l1.844-1.848-.67-.672z"/>
        </g>
        <path stroke="#979797" stroke-dasharray="3.613593864440918,3.613593864440918" stroke-linecap="round" stroke-width="1.152" d="M110.098 101.227h26.751s6.151 0 6.151 6.359c0 0-.05 2.894-2.32 4.149" opacity=".5"/>
    </g>
</svg>
