<svg xmlns="http://www.w3.org/2000/svg" xmlns:xlink="http://www.w3.org/1999/xlink" width="20" height="20" viewBox="0 0 20 20">
    <defs>
        <path id="a" d="M0 19.998h19.986V.014H0z"/>
    </defs>
    <g fill="none" fill-rule="evenodd">
        <mask id="b" fill="#fff">
            <use xlink:href="#a"/>
        </mask>
        <path fill="#FFF" d="M13.47 13.048a.435.435 0 0 0-.435.435v4.345c0 .718-.585 1.303-1.304 1.303H2.172A1.305 1.305 0 0 1 .87 17.828V2.186c0-.719.585-1.303 1.303-1.303h9.56c.718 0 1.303.584 1.303 1.303v4.345a.435.435 0 0 0 .869 0V2.186A2.175 2.175 0 0 0 11.73.014H2.172A2.175 2.175 0 0 0 0 2.186v15.642C0 19.025.975 20 2.172 20h9.56a2.175 2.175 0 0 0 2.172-2.172v-4.345a.435.435 0 0 0-.435-.435zm6.483-3.207a.421.421 0 0 0-.086-.128c-.003-.003-.004-.009-.008-.012l-3.476-3.476a.435.435 0 0 0-.615.614l2.734 2.734H8.255a.435.435 0 0 0 0 .87h10.248l-2.735 2.734a.435.435 0 1 0 .616.613l3.476-3.476c.019-.019.027-.043.042-.064.018-.025.038-.047.05-.075a.435.435 0 0 0 0-.334z" mask="url(#b)"/>
    </g>
</svg>
