<svg xmlns="http://www.w3.org/2000/svg" width="24" height="18" viewBox="0 0 24 18">
    <g fill="#333" fill-rule="evenodd">
        <path d="M19.283 13.424a.38.38 0 0 1-.263-.105l-4.417-4.143a.39.39 0 0 1-.02-.545.385.385 0 0 1 .545-.014l4.42 4.143a.385.385 0 0 1-.265.664zM4.534 13.424a.384.384 0 0 1-.267-.663L8.69 8.616a.384.384 0 1 1 .529.559l-4.422 4.143a.378.378 0 0 1-.262.105z"/>
        <path d="M21.897 17.279H1.92A1.92 1.92 0 0 1 0 15.359V2.268C0 1.21.862.348 1.92.348h19.977c1.057 0 1.92.863 1.92 1.92v13.091c0 1.062-.863 1.92-1.92 1.92zM1.92 1.116c-.634 0-1.151.518-1.151 1.152v13.091c0 .637.517 1.151 1.151 1.151h19.977c.637 0 1.15-.514 1.15-1.151V2.268c0-.634-.513-1.152-1.15-1.152H1.92z"/>
        <path d="M11.91 10.743a2.138 2.138 0 0 1-1.41-.507L.637 1.634a.385.385 0 1 1 .506-.58l9.86 8.602c.491.427 1.32.427 1.811 0l9.847-8.588a.387.387 0 0 1 .544.037.382.382 0 0 1-.037.54l-9.848 8.588c-.39.341-.9.51-1.41.51z"/>
    </g>
</svg>
