<?xml version="1.0" encoding="iso-8859-1"?>
<!-- Generator: Adobe Illustrator 19.0.0, SVG Export Plug-In . SVG Version: 6.00 Build 0)  -->
<svg version="1.1" id="Capa_1" xmlns="http://www.w3.org/2000/svg" xmlns:xlink="http://www.w3.org/1999/xlink" x="0px" y="0px"
	 viewBox="0 0 480 480" style="enable-background:new 0 0 480 480;" xml:space="preserve">
<g>
	<g>
		<path d="M341.936,0H138.064C114.844,0.026,96.026,18.844,96,42.064v395.872c0.026,23.22,18.844,42.038,42.064,42.064h203.872
			c23.22-0.026,42.038-18.844,42.064-42.064V42.064C383.974,18.844,365.156,0.026,341.936,0z M368,437.936
			c-0.018,14.387-11.677,26.046-26.064,26.064H138.064c-14.387-0.018-26.046-11.677-26.064-26.064V416h256V437.936z M368,400H112V88
			h256V400z M368,72H112V42.064c0.018-14.387,11.677-26.046,26.064-26.064h203.872c14.387,0.018,26.046,11.677,26.064,26.064V72z"/>
	</g>
</g>
<g>
	<g>
		<rect x="184" y="40" width="80" height="16"/>
	</g>
</g>
<g>
	<g>
		<rect x="224" y="432" width="32" height="16"/>
	</g>
</g>
<g>
	<g>
		<path d="M128,120v96h112v-96H128z M224,200h-80v-64h80V200z"/>
	</g>
</g>
<g>
	<g>
		<rect x="256" y="120" width="96" height="16"/>
	</g>
</g>
<g>
	<g>
		<rect x="256" y="152" width="32" height="16"/>
	</g>
</g>
<g>
	<g>
		<rect x="304" y="152" width="48" height="16"/>
	</g>
</g>
<g>
	<g>
		<rect x="256" y="184" width="96" height="16"/>
	</g>
</g>
<g>
	<g>
		<path d="M128,232v96h112v-96H128z M224,312h-80v-64h80V312z"/>
	</g>
</g>
<g>
	<g>
		<rect x="256" y="232" width="96" height="16"/>
	</g>
</g>
<g>
	<g>
		<rect x="256" y="264" width="32" height="16"/>
	</g>
</g>
<g>
	<g>
		<rect x="304" y="264" width="48" height="16"/>
	</g>
</g>
<g>
	<g>
		<rect x="256" y="296" width="96" height="16"/>
	</g>
</g>
<g>
	<g>
		<rect x="176" y="368" width="96" height="16"/>
	</g>
</g>
<g>
	<g>
		<path d="M288,336v48h64v-48H288z M336,368h-32v-16h32V368z"/>
	</g>
</g>
<g>
	<g>
		<rect x="280" y="40" width="16" height="16"/>
	</g>
</g>
<g>
</g>
<g>
</g>
<g>
</g>
<g>
</g>
<g>
</g>
<g>
</g>
<g>
</g>
<g>
</g>
<g>
</g>
<g>
</g>
<g>
</g>
<g>
</g>
<g>
</g>
<g>
</g>
<g>
</g>
</svg>
