<svg xmlns="http://www.w3.org/2000/svg" width="17" height="19" viewBox="0 0 17 19">
    <g fill="none" fill-rule="evenodd">
        <path fill="#FAFAFA" d="M-517-259H923V765H-517z"/>
        <g fill-rule="nonzero" stroke="#b97c7f" stroke-width=".384">
            <path d="M8.41 10.058c2.233 0 4.043-2.028 4.043-4.53C12.453 3.029 11.86 1 8.41 1 4.962 1 4.367 3.028 4.367 5.529s1.81 4.529 4.043 4.529z"/>
            <path d="M16.263 15.803c-.075-4.357-.692-5.599-5.413-6.385 0 0-.665.782-2.214.782s-2.214-.782-2.214-.782c-4.67.778-5.324 2.001-5.41 6.244-.007.346-.01.364-.012.324v.458s1.125 2.09 7.636 2.09 7.636-2.09 7.636-2.09v-.339c-.001.025-.004-.023-.009-.302z"/>
        </g>
    </g>
</svg>
