<svg xmlns="http://www.w3.org/2000/svg" xmlns:xlink="http://www.w3.org/1999/xlink" width="20" height="20" viewBox="0 0 20 20">
    <defs>
        <path id="a" d="M0 0h20v19.975H0z"/>
    </defs>
    <g fill="none" fill-rule="evenodd">
        <g>
            <mask id="b" fill="#fff">
                <use xlink:href="#a"/>
            </mask>
            <path fill="#FFF" stroke="#FFF" stroke-width=".2" d="M19.666 9.666h-.675C18.82 4.97 15.03 1.18 10.334 1.01V.334a.334.334 0 0 0-.668 0v.675C4.97 1.18 1.18 4.97 1.01 9.666H.334a.334.334 0 0 0 0 .668h.675c.171 4.697 3.96 8.486 8.657 8.657v.675a.334.334 0 0 0 .668 0v-.675c4.697-.171 8.486-3.96 8.657-8.657h.675a.334.334 0 0 0 0-.668zm-9.332 8.659v-.66a.333.333 0 0 0-.334-.33.333.333 0 0 0-.334.33v.66c-4.329-.172-7.819-3.662-7.991-7.991h.66c.183 0 .33-.15.33-.334a.333.333 0 0 0-.33-.334h-.66c.172-4.329 3.662-7.819 7.991-7.991v.66c0 .183.15.33.334.33a.333.333 0 0 0 .334-.33v-.66c4.329.172 7.819 3.662 7.991 7.991h-.66a.333.333 0 0 0-.33.334c0 .184.147.334.33.334h.66c-.172 4.329-3.662 7.819-7.991 7.991z" mask="url(#b)"/>
        </g>
        <path fill="#FFF" d="M14 9.666h-1.694a2.333 2.333 0 0 0-1.972-1.972V5.999A.333.333 0 0 0 10 5.668a.333.333 0 0 0-.334.331v1.695a2.333 2.333 0 0 0-1.972 1.972H5.999a.333.333 0 0 0-.331.334c0 .184.147.334.331.334h1.695a2.333 2.333 0 0 0 1.972 1.972v1.695c0 .184.15.332.334.332a.333.333 0 0 0 .334-.332v-1.695a2.333 2.333 0 0 0 1.972-1.972h1.695c.184 0 .332-.15.332-.334A.333.333 0 0 0 14 9.666z"/>
    </g>
</svg>
