<svg xmlns="http://www.w3.org/2000/svg" xmlns:xlink="http://www.w3.org/1999/xlink" width="11" height="20" viewBox="0 0 11 20">
    <defs>
        <path id="a" d="M.026.364h4.199V20H.026z"/>
    </defs>
    <g fill="none" fill-rule="evenodd">
        <g>
            <mask id="b" fill="#fff">
                <use xlink:href="#a"/>
            </mask>
            <path fill="#9B9B9B" d="M3.872 13.455H2.465V.728c0-.201-.159-.364-.353-.364a.359.359 0 0 0-.352.364v12.727H.352a.357.357 0 0 0-.352.364v4.362c0 .201.158.364.352.364H1.76v1.09c0 .203.158.365.352.365a.358.358 0 0 0 .353-.365v-1.09h1.407a.359.359 0 0 0 .353-.364V13.82a.358.358 0 0 0-.353-.364z" mask="url(#b)"/>
        </g>
        <path fill="#9B9B9B" d="M10.56 7.636H9.152V.728c0-.201-.158-.364-.352-.364a.359.359 0 0 0-.352.364v6.908H7.04A.359.359 0 0 0 6.688 8v4.363c0 .202.158.364.352.364h1.408v6.908c0 .203.158.365.352.365a.358.358 0 0 0 .352-.365v-6.908h1.408a.358.358 0 0 0 .352-.364V8c0-.2-.158-.364-.352-.364z"/>
    </g>
</svg>
