<svg xmlns="http://www.w3.org/2000/svg" width="20" height="19" viewBox="0 0 20 19">
    <g fill="none" fill-rule="evenodd">
        <g stroke="#FFF">
            <ellipse cx="10" cy="9.917" stroke-width=".9" rx="8" ry="7.917"/>
            <path stroke-width=".8" d="M10.4.4v3.158V.4zM16.4 9.5a.004.004 0 0 1-.004.004h3.208a.004.004 0 0 1 0-.008h-3.208c.002 0 .004.002.004.004zM.4 9.5a.004.004 0 0 1-.004.004h3.208a.004.004 0 1 1 0-.008H.396c.002 0 .004.002.004.004zM10.4 15.442V18.6v-3.158z"/>
        </g>
        <circle cx="10" cy="10" r="3" fill="#FFF"/>
    </g>
</svg>
