<svg xmlns="http://www.w3.org/2000/svg" width="238" height="215" viewBox="0 0 238 215">
    <g fill="none" fill-rule="evenodd">
        <path fill="#C8CBCF" d="M0 42.11v172.463l83.056-10.935-76.854-20.632V41.294z" opacity=".206"/>
        <path fill="#FFF" d="M160.385.676L83.056 21.435 6.202.803v182.203l76.854 20.632 77.329-20.76 76.855 20.633V21.307z"/>
        <path fill="#DEDEDE" d="M83.056 137.85V31.964l-66.35-17.812v54.823L75.12 143.18zM16.707 85.807v89.51l7.55 2.026 42.196-28.342z"/>
        <path fill="#D8E0F3" d="M50.299 184.334l32.757 8.794v-30.797zM160.385 68.867v23.342l66.35 84.288V29.008l-5.007-1.344z"/>
        <path fill="#DEDEDE" d="M195.687 20.674l-35.302-9.477v33.188z"/>
        <path fill="#D8E0F3" d="M160.385 172.361l63.2 16.966-63.2-80.287z"/>
        <path fill="#C0C9E1" d="M139.698 93.868l-56.642 68.456v30.796l77.329-20.759v-63.32z"/>
        <path fill="#D4CECE" d="M160.385 44.385V11.197L83.056 31.956V137.84z"/>
        <path fill="#C0C9E1" d="M148.365 83.393l12.02 8.816V68.867z"/>
        <path fill="#FFF" d="M83.056 137.85l-7.936 5.33-58.413-74.205v16.832L66.453 149l-42.196 28.342 26.041 6.99 32.758-22.002zM226.735 176.497l-66.35-84.288v16.831l63.2 80.287 3.15.846zM160.385 68.867l61.343-41.203-26.041-6.99-35.302 23.71z"/>
        <path fill="#E1E7E1" d="M160.385 68.867V44.385l-77.329 93.457v24.481l56.642-68.455 20.687 15.172V92.21l-12.02-8.817z"/>
        <path fill="#C8CBCF" d="M83.056 203.638l77.329 11.206 76.854-11.333-76.854-20.632z" opacity=".206"/>
    </g>
</svg>
