<svg xmlns="http://www.w3.org/2000/svg" xmlns:xlink="http://www.w3.org/1999/xlink" width="249" height="270" viewBox="0 0 249 270">
    <defs>
        <linearGradient id="a" x1="50%" x2="40.176%" y1="13.071%" y2="67.741%">
            <stop offset="0%" stop-color="#95ABC2"/>
            <stop offset="100%" stop-color="#FFF"/>
        </linearGradient>
        <path id="b" d="M8.1 0h9.146v9.119a8.1 8.1 0 0 1-8.1 8.1H0V8.1A8.1 8.1 0 0 1 8.1 0z"/>
    </defs>
    <g fill="none" fill-rule="evenodd">
        <path fill="#8E99A3" d="M112.677 98.313l102.595 28.191v98.644L112.677 180.95z"/>
        <path fill="#A0AAB5" d="M112.794 98.41L29 121.825V225.48l83.794-44.865z"/>
        <path stroke="url(#a)" stroke-dasharray="6,7" stroke-width="3" d="M81.763 223.082c-23.154-6.778-63.818-6.173-79.09-45.784-13.995-36.304 37.634-71.244 52.078-55.947 10.236 10.84-2.884 26.472-21.09 24.716-20.49-1.977-32.603-20.302-28.563-40.013 8.015-39.1 69.635-64.969 72.233-66.77" transform="translate(85 -5)"/>
        <g transform="translate(143 -5)">
            <path fill="#CED8E5" d="M25.659 26.633c-.388-9.802-1.88-16-4.475-18.595-3.893-3.893-10.21-3.888-14.109.011-3.9 3.9-3.904 10.216-.011 14.11 2.595 2.594 8.793 4.086 18.595 4.474zM32.49 32.518c.388 9.8 1.88 16 4.475 18.595 3.893 3.893 10.21 3.888 14.109-.012 3.9-3.899 3.904-10.216.011-14.109-2.595-2.595-8.793-4.087-18.595-4.474z" opacity=".4"/>
            <g transform="translate(20.877 20.031)">
                <mask id="c" fill="#fff">
                    <use xlink:href="#b"/>
                </mask>
                <use fill="#A8B7C5" xlink:href="#b"/>
                <path fill="#DDE5F2" d="M3.631.906h2.723v19.938H3.631z" mask="url(#c)" transform="rotate(-45 4.992 10.875)"/>
                <path fill="#DDE5F2" d="M2.427.258l1.925-1.926L18.45 12.43l-1.925 1.925z" mask="url(#c)"/>
            </g>
            <path stroke="#8696C5" stroke-width=".9" d="M47.383 15.717l6.625-1.576M44.66 12.998l2.549-6.557"/>
            <ellipse cx="40.846" cy="18.219" fill="#8B9AA8" rx="7.262" ry="7.25"/>
        </g>
        <path fill="#DAE2EC" d="M29 122.012l102.595 32.556v114.965L29 225.335z"/>
        <path fill="#C5D0D9" d="M215.79 126.377l-85.65 28.191v114.965l85.65-44.198z"/>
        <path fill="#DAE2EC" d="M215.547 126.31l33.11 44.31-87.868 34.628-30.347-50.897z"/>
        <path fill="#C5D0D9" d="M28.876 121.772L.198 166.51l101.076 38.738 29.53-50.958z"/>
    </g>
</svg>
