<svg xmlns="http://www.w3.org/2000/svg" width="20" height="12" viewBox="0 0 20 12">
    <path fill="#333" fill-rule="nonzero" d="M.14 11.08c-.077 0-.14-.157-.14-.35 0-.193.063-.35.14-.35h9.72c.077 0 .14.157.14.35 0 .193-.063.35-.14.35H.14zm.14-3.46c-.155 0-.28-.157-.28-.35 0-.193.125-.35.28-.35h19.44c.155 0 .28.157.28.35 0 .193-.125.35-.28.35H.28zm0-3.46c-.155 0-.28-.157-.28-.35 0-.193.125-.35.28-.35h19.44c.155 0 .28.157.28.35 0 .193-.125.35-.28.35H.28zM.28.7C.125.7 0 .543 0 .35 0 .157.125 0 .28 0h19.44c.155 0 .28.157.28.35 0 .193-.125.35-.28.35H.28z"/>
</svg>
