<svg xmlns="http://www.w3.org/2000/svg" xmlns:xlink="http://www.w3.org/1999/xlink" width="20" height="23" viewBox="0 0 20 23">
    <defs>
        <path id="a" d="M10 22.605H.003V0h19.994v22.605z"/>
    </defs>
    <g fill="none" fill-rule="evenodd">
        <mask id="b" fill="#fff">
            <use xlink:href="#a"/>
        </mask>
        <path fill="#333" d="M18.875 18.692H1.122c.128-.286.248-.576.36-.869h2.43a.435.435 0 1 0 0-.87H1.79c.54-1.674.82-3.434.82-5.192v-1.328c0-3.557 2.526-6.536 5.879-7.235l.03-.006.12-.023.085-.016.086-.014a7.382 7.382 0 0 1 .353-.048l.014-.002c.545-.06 1.1-.06 1.645 0l.014.002a7.334 7.334 0 0 1 .438.062l.085.016.12.023.03.006c3.354.7 5.88 3.678 5.88 7.235v1.328c0 2.38.513 4.76 1.487 6.931zm-8.877 3.043a2.598 2.598 0 0 1-2.56-2.173h5.12a2.598 2.598 0 0 1-2.56 2.173zM8.694 2.276v-.102c0-.72.585-1.305 1.304-1.305.72 0 1.304.585 1.304 1.305v.102l-.03-.004-.054-.008a8.166 8.166 0 0 0-.326-.042l-.066-.007a8.425 8.425 0 0 0-.18-.016l-.063-.005a7.86 7.86 0 0 0-.33-.016l-.063-.002a8.388 8.388 0 0 0-.383 0l-.063.002a8.385 8.385 0 0 0-.33.017l-.064.004-.18.016-.066.007a7.75 7.75 0 0 0-.325.042l-.054.008-.03.004zm11.257 16.657a16.118 16.118 0 0 1-1.693-7.172v-1.328c0-3.802-2.583-7.012-6.086-7.969v-.29A2.176 2.176 0 0 0 9.998 0a2.176 2.176 0 0 0-2.173 2.174v.29c-3.503.957-6.086 4.167-6.086 7.969v1.328c0 2.477-.586 4.957-1.693 7.172a.435.435 0 0 0 .389.629h6.127a3.468 3.468 0 0 0 3.436 3.043 3.468 3.468 0 0 0 3.437-3.043h6.127a.435.435 0 0 0 .389-.63z" mask="url(#b)"/>
    </g>
</svg>
