<?xml version="1.0" encoding="UTF-8"?>
<svg width="9px" height="15px" viewBox="0 0 9 15" version="1.1" xmlns="http://www.w3.org/2000/svg" xmlns:xlink="http://www.w3.org/1999/xlink">
    <!-- Generator: Sketch 49.1 (51147) - http://www.bohemiancoding.com/sketch -->
    <title>other_gray</title>
    <desc>Created with Sketch.</desc>
    <defs></defs>
    <g id="Page-1" stroke="none" stroke-width="1" fill="none" fill-rule="evenodd">
        <g id="checkout2" transform="translate(-587.000000, -452.000000)" fill="#808A91" fill-rule="nonzero" stroke="#808A91">
            <g id="Group-10-Copy" transform="translate(555.000000, 421.000000)">
                <g id="Group-8" transform="translate(29.880001, 30.627001)">
                    <g id="Group-4" transform="translate(2.988000, 0.000000)">
                        <g id="other_gray" transform="translate(0.000000, 0.747000)">
                            <path d="M7.54550325,3.60838984 C7.54550325,1.61872368 5.88079205,0 3.83460001,0 C1.78840797,0 0.123696775,1.61872368 0.123696775,3.60838984 C0.123696775,5.51698751 1.65629981,7.07990143 3.58720646,7.20451115 L3.58720646,13.9524407 C3.58720646,14.08547 3.69803877,14.193 3.83460001,14.193 C3.97116125,14.193 4.08199356,14.08547 4.08199356,13.9524407 L4.08199356,7.20451115 C6.01290021,7.07990143 7.54550325,5.51698751 7.54550325,3.60838984 Z M3.83460001,6.73566103 C2.06128305,6.73566103 0.618483873,5.33271906 0.618483873,3.60838984 C0.618483873,1.88406062 2.06128305,0.481118645 3.83460001,0.481118645 C5.60791697,0.481118645 7.05071615,1.88406062 7.05071615,3.60838984 C7.05071615,5.33271906 5.60791697,6.73566103 3.83460001,6.73566103 Z" id="Shape" stroke-width="0.597600012"></path>
                            <path d="M2.59763226,3.12727119 C2.32475718,3.12727119 2.10284517,2.91148948 2.10284517,2.64615255 C2.10284517,2.38081562 2.32475718,2.1650339 2.59763226,2.1650339 C2.87050735,2.1650339 3.09241936,2.38081562 3.09241936,2.64615255 C3.09241936,2.91148948 2.87050735,3.12727119 2.59763226,3.12727119 Z" id="Shape" stroke-width="0.5"></path>
                        </g>
                    </g>
                </g>
            </g>
        </g>
    </g>
</svg>