<svg xmlns="http://www.w3.org/2000/svg" width="14" height="20" viewBox="0 0 14 20">
    <g fill="none" fill-rule="evenodd">
        <path fill="#FAFAFA" d="M-518-393H922V631H-518z"/>
        <g fill="#BBB" fill-rule="nonzero">
            <path stroke="#BBB" stroke-width=".1" d="M12.766 8.045h-.08V6.108C12.688 3.292 10.337 1 7.446 1c-2.89 0-5.243 2.291-5.243 5.108v1.937h-.079c-.62 0-1.123.48-1.123 1.071v8.792c0 .59.504 1.071 1.123 1.071h10.643c.62 0 1.123-.48 1.123-1.071V9.116c0-.59-.503-1.071-1.123-1.071zM2.972 6.108c0-2.403 2.007-4.358 4.473-4.358 2.467 0 4.473 1.955 4.473 4.358v1.937H2.972V6.108zm10.148 11.8c0 .177-.159.321-.354.321H2.123c-.195 0-.353-.144-.353-.321V9.116c0-.177.158-.321.353-.321h10.643c.195 0 .354.144.354.321v8.792z"/>
            <path d="M7.265 13.996a.918.918 0 0 0-.93.906c0 .315.166.593.417.755v.838c0 .276.23.5.513.5a.507.507 0 0 0 .513-.5v-.838a.899.899 0 0 0 .417-.755c0-.5-.416-.906-.93-.906z"/>
        </g>
    </g>
</svg>
