<svg xmlns="http://www.w3.org/2000/svg" width="20" height="15" viewBox="0 0 20 15">
    <g fill="#000" fill-rule="nonzero">
        <path d="M18.33 4.432h-2.035V1.629c0-.898-.749-1.629-1.67-1.629H1.67C.749 0 0 .73 0 1.63v7.309c0 .898.749 1.629 1.67 1.629h2.035v2.803c0 .898.749 1.629 1.67 1.629H18.33c.921 0 1.67-.73 1.67-1.63V6.062c0-.898-.749-1.629-1.67-1.629zM.954 1.629c0-.385.321-.698.716-.698h12.955c.395 0 .716.313.716.698v.65H.954v-.65zm2.75 4.432v3.576H1.67a.708.708 0 0 1-.716-.698V5.366h2.911c-.103.21-.16.447-.16.695zM.955 4.435V3.21h14.387v1.222H5.375c-.033 0-.065.001-.096.003H.954zm17.376 9.634H5.375a.708.708 0 0 1-.716-.698V6.06c0-.366.29-.666.657-.695h10.502a.487.487 0 0 0 .052-.003h2.46c.395 0 .716.313.716.698v7.31a.708.708 0 0 1-.716.698z"/>
        <path d="M12.914 7.2a2.32 2.32 0 0 0-1.397.461 2.315 2.315 0 0 0-1.4-.461c-1.234 0-2.238.942-2.238 2.1 0 1.158 1.004 2.1 2.238 2.1.518 0 1.007-.164 1.4-.461a2.32 2.32 0 0 0 1.397.46c1.234 0 2.238-.941 2.238-2.099 0-1.158-1.004-2.1-2.238-2.1zm-1.987 3.065c-.228.17-.511.264-.81.264-.722 0-1.31-.551-1.31-1.229s.588-1.229 1.31-1.229c.299 0 .582.094.81.264a1.983 1.983 0 0 0 0 1.93zm1.987.264c-.722 0-1.31-.552-1.31-1.229s.588-1.229 1.31-1.229c.722 0 1.309.552 1.309 1.229 0 .678-.587 1.229-1.31 1.229z"/>
    </g>
</svg>
