<svg xmlns="http://www.w3.org/2000/svg" xmlns:xlink="http://www.w3.org/1999/xlink" width="24" height="24" viewBox="0 0 24 24">
    <defs>
        <path id="a" d="M0 .218h23.789V24H0z"/>
    </defs>
    <g fill="none" fill-rule="evenodd">
        <mask id="b" fill="#fff">
            <use xlink:href="#a"/>
        </mask>
        <path fill="#333" d="M19.117 24.001c-.992 0-2.187-.25-3.5-.746-2.883-1.086-6.015-3.234-8.828-6.043C3.977 14.4 1.832 11.263.742 8.38-.246 5.763-.246 3.611.734 2.626c.145-.14.289-.293.438-.449C2.07 1.232 3.109.161 4.43.22c.929.035 1.828.613 2.75 1.758 2.715 3.379 1.492 4.582.074 5.98L7 8.208c-.23.231-.668 1.305 3.41 5.383 1.332 1.332 2.465 2.305 3.375 2.895.57.371 1.59.933 2.008.511l.254-.254c1.394-1.414 2.601-2.636 5.98.082 1.145.918 1.719 1.817 1.758 2.747.055 1.343-1.019 2.363-1.965 3.261-.152.149-.304.289-.445.43-.492.492-1.273.738-2.258.738zM4.336 1.017c-.957 0-1.82.906-2.582 1.711-.156.16-.305.32-.453.465-.731.73-.656 2.66.191 4.906 1.047 2.781 3.129 5.816 5.863 8.547 2.735 2.734 5.766 4.816 8.543 5.863 2.25.848 4.176.922 4.911.188.144-.145.3-.293.461-.446.824-.781 1.753-1.668 1.714-2.648-.027-.676-.519-1.403-1.461-2.156-2.816-2.262-3.601-1.461-4.906-.141l-.258.258c-.621.625-1.632.488-3.011-.406-.953-.622-2.133-1.633-3.504-3.004C6.461 10.771 5.375 8.7 6.438 7.638l.253-.25c1.329-1.309 2.125-2.094-.136-4.91-.758-.942-1.485-1.434-2.157-1.461h-.062zM19.258 10.044a.433.433 0 0 1-.153-.027.398.398 0 0 1-.218-.52 3.37 3.37 0 0 0-.739-3.644 3.39 3.39 0 0 0-3.765-.684.402.402 0 0 1-.528-.199.401.401 0 0 1 .2-.531 4.175 4.175 0 0 1 4.656.851 4.145 4.145 0 0 1 .914 4.508.399.399 0 0 1-.367.246z" mask="url(#b)"/>
        <path fill="#333" d="M22.828 11.493a.396.396 0 0 1-.371-.546 7.202 7.202 0 0 0-1.586-7.817 7.242 7.242 0 0 0-8.074-1.472.407.407 0 0 1-.531-.204.4.4 0 0 1 .199-.527 8.051 8.051 0 0 1 8.973 1.637 8.003 8.003 0 0 1 1.761 8.683.402.402 0 0 1-.371.246z" mask="url(#b)"/>
    </g>
</svg>
