<svg xmlns="http://www.w3.org/2000/svg" width="20" height="18" viewBox="0 0 20 18">
    <g fill="#333" fill-rule="evenodd">
        <path d="M10.5 13c-.827 0-1.5.673-1.5 1.5a.434.434 0 0 0 .869 0 .632.632 0 1 1 .631.631.434.434 0 0 0 0 .869c.827 0 1.5-.673 1.5-1.5s-.673-1.5-1.5-1.5z"/>
        <path d="M18.6 8.824l-5.81 3.39a3.339 3.339 0 0 0-3.275-.807L3.622.973A1.94 1.94 0 0 0 .97.26a1.952 1.952 0 0 0-.71 2.66l.687-.399a1.153 1.153 0 0 1 .42-1.57 1.146 1.146 0 0 1 1.565.417l5.85 10.356A3.364 3.364 0 0 0 10.463 18a3.364 3.364 0 0 0 2.836-5.161L19 9.512l-.4-.688zM10.5 17A2.503 2.503 0 0 1 8 14.5c0-1.379 1.121-2.5 2.5-2.5 1.378 0 2.5 1.121 2.5 2.5S11.878 17 10.5 17z"/>
        <path d="M20 7.288l-2.337-3.733a.442.442 0 0 0-.577-.142c-.201.107-.27.345-.154.531l1.915 3.059-5.512 2.934-3.182-5.082 5.877-3.129c.202-.107.271-.345.155-.531a.442.442 0 0 0-.577-.143L9 4.57 13.026 11 20 7.288z"/>
        <path d="M15.987 5.033c.053-.216-.064-.437-.26-.495l-1.785-.524a.348.348 0 0 0-.035-.009H13.9A.352.352 0 0 0 13.87 4H13.833a.338.338 0 0 0-.069.01.343.343 0 0 0-.034.01l-.006.003a.343.343 0 0 0-.115.072l-.005.005a.375.375 0 0 0-.024.026l-.001.001a.395.395 0 0 0-.023.029v.001a.395.395 0 0 0-.02.03l-.001.003a.413.413 0 0 0-.015.029c0 .002-.002.003-.003.005a.413.413 0 0 0-.011.03l-.003.007a.432.432 0 0 0-.011.037l-.478 1.956c-.053.216.064.437.26.495.032.01.064.014.096.014a.376.376 0 0 0 .356-.3l.248-1.013 1.236 2.347c.068.13.192.202.32.202a.342.342 0 0 0 .184-.054.426.426 0 0 0 .134-.552l-1.236-2.347.925.271c.196.058.399-.07.451-.285z"/>
    </g>
</svg>
