<svg xmlns="http://www.w3.org/2000/svg" width="25" height="23" viewBox="0 0 25 23">
    <path fill="#FFF" fill-rule="evenodd" d="M0 2.464C0 1.103 1.12 0 2.5 0c.737 0 1.393.32 1.85.821h1.9c.23 0 .417.184.417.411 0 .227-.187.41-.417.41H4.847c.093.26.153.533.153.822C5 3.826 3.88 4.93 2.5 4.93S0 3.826 0 2.464zm15 .822v4.107c0 .907-.746 1.643-1.667 1.643h-5c-.92 0-1.666-.736-1.666-1.643V3.286c0-.908.746-1.643 1.666-1.643h5c.92 0 1.667.735 1.667 1.643zm-1.667 0h-5v4.107h5V3.286zM9.18 10.29l-3.753-.806-1.675-2.969A1.516 1.516 0 0 0 2.43 5.75h-.763C.747 5.75 0 6.486 0 7.393v5.224c0 .35.018.7.052 1.05l.846 8.447c.05.503.479.886.992.886h1.24a.991.991 0 0 0 .992-.89L5 12.426l-.87-.185a1.902 1.902 0 0 1-1.156-.751c-.4-.488-1.224-3.276-1.224-3.276l1.972 2.755c.144.199.357.337.599.388l.625.132 3.79.808a1.046 1.046 0 0 0 1.24-.784 1.027 1.027 0 0 0-.796-1.222zM22.5 4.93c1.38 0 2.5-1.103 2.5-2.465C25 1.103 23.88 0 22.5 0S20 1.103 20 2.464c0 1.362 1.12 2.465 2.5 2.465zm.833.821h-.751c-.548 0-1.053.292-1.32.763l-1.69 2.972-3.752.806a1.027 1.027 0 0 0-.796 1.222 1.038 1.038 0 0 0 1.24.784l3.79-.808.625-.132a.988.988 0 0 0 .599-.388l1.972-2.755s-.823 2.788-1.224 3.276a1.902 1.902 0 0 1-1.155.751l-.871.185.878 9.684c.048.504.478.89.992.89h1.24a.992.992 0 0 0 .992-.886l.846-8.447c.034-.35.052-.7.052-1.05V7.393c0-.907-.746-1.643-1.667-1.643z"/>
</svg>
