<svg xmlns="http://www.w3.org/2000/svg" width="20" height="19" viewBox="0 0 20 19">
    <g fill="#333" fill-rule="nonzero">
        <path d="M18.925 9.166l-2.417-2.403V2.961a.435.435 0 0 0-.437-.434h-3.826L9.828.125a.43.43 0 0 0-.606 0L6.805 2.527H2.98a.435.435 0 0 0-.437.434v3.803L.126 9.166a.424.424 0 0 0 0 .602l2.416 2.402v3.804c0 .24.196.434.437.434h3.827l2.416 2.401a.43.43 0 0 0 .606 0l2.417-2.401h3.827a.435.435 0 0 0 .436-.434V12.17l2.417-2.402a.424.424 0 0 0 0-.602zm-3.29 2.817v3.557h-3.58l-2.46 2.447-2.462-2.447H3.415v-3.695L1.023 9.467 3.415 7.09V3.394h3.718L9.594.947l2.462 2.447h3.58v3.558l2.53 2.515-2.53 2.516z"/>
        <path d="M12.828 7.12a.439.439 0 0 0 0-.644.503.503 0 0 0-.683 0l-5.797 5.476a.439.439 0 0 0 0 .645c.095.089.218.134.342.134a.496.496 0 0 0 .341-.134l5.797-5.476zM8.139 4.973c-1.065 0-1.932.819-1.932 1.825 0 1.007.867 1.826 1.932 1.826s1.932-.82 1.932-1.826c0-1.006-.867-1.825-1.932-1.825zm0 2.738c-.533 0-.966-.41-.966-.913 0-.503.433-.912.966-.912.533 0 .966.41.966.912 0 .504-.433.913-.966.913zM11.037 10.449c-1.065 0-1.932.819-1.932 1.825 0 1.007.867 1.825 1.932 1.825 1.066 0 1.932-.818 1.932-1.825 0-1.006-.866-1.825-1.932-1.825zm0 2.738c-.532 0-.966-.41-.966-.913 0-.503.433-.912.966-.912.533 0 .966.409.966.912 0 .503-.433.913-.966.913z"/>
    </g>
</svg>
