<svg xmlns="http://www.w3.org/2000/svg" width="24" height="21" viewBox="0 0 24 21">
    <g fill="none" fill-rule="evenodd">
        <path fill="#FAFAFA" d="M-269-187h1440v977H-269z"/>
        <g fill="#474747">
            <path d="M4.344 1.742c0-.07.056-.126.126-.126h15.947c.07 0 .126.057.126.126v10.86c0 .07-.056.126-.126.126h-8.186v1.592h8.186c.945 0 1.713-.77 1.713-1.718V1.742c0-.947-.768-1.718-1.713-1.718H4.47c-.945 0-1.713.771-1.713 1.718v3.486h1.587V1.742zM23.355 14.972H12.231v2.261h10.116c.9 0 1.63-.732 1.63-1.637a.623.623 0 0 0-.622-.624z"/>
            <path d="M8.786 6.82H1.858A1.863 1.863 0 0 0 0 8.684v10.389c0 1.028.833 1.864 1.858 1.864h6.928a1.863 1.863 0 0 0 1.858-1.864V8.684A1.863 1.863 0 0 0 8.786 6.82zm-7.2 1.864c0-.15.122-.272.272-.272h6.928c.15 0 .272.122.272.272v9.648H1.587V8.684zm3.736 11.542a.639.639 0 0 1-.568-.357.63.63 0 0 1-.077-.29.646.646 0 1 1 1.29 0 .632.632 0 0 1-.077.29.64.64 0 0 1-.568.357z"/>
        </g>
    </g>
</svg>
