<svg xmlns="http://www.w3.org/2000/svg" width="18" height="21" viewBox="0 0 18 21">
    <g fill="#333" fill-rule="nonzero" stroke="#333" stroke-width=".2" transform="translate(1 1)">
        <ellipse cx="7.83" cy="4.574" rx="1" ry="1"/>
        <ellipse cx="9.532" cy="4.574" rx="1" ry="1"/>
        <ellipse cx="11.234" cy="4.574" rx="1" ry="1"/>
        <ellipse cx="4.426" cy="4.574" rx="1" ry="1"/>
        <ellipse cx="6.128" cy="4.574" rx="1" ry="1"/>
        <path d="M9.798 12.918c-.172-.513-.686-.855-1.242-.855h-.814c-.257 0-.428-.17-.428-.427 0-.256.171-.427.428-.427h1.285c.257 0 .428-.17.428-.427s-.171-.428-.428-.428h-.429v-.427c0-.256-.17-.427-.428-.427-.257 0-.428.17-.428.427v.427c-.857 0-1.499.812-1.2 1.71.172.512.686.854 1.243.854h.813c.257 0 .429.17.429.427s-.172.428-.429.428H7.314c-.257 0-.429.17-.429.427 0 .256.172.427.429.427h.428v.427c0 .257.171.427.428.427s.428-.17.428-.427v-.427c.857 0 1.5-.812 1.2-1.709zM13.637 2.639h-3.616c.168-.264.252-.572.252-.88C10.273.792 9.516 0 8.59 0c-.925 0-1.682.792-1.682 1.76 0 .307.084.615.252.879h-.673c-.462 0-.84-.396-.84-.88s.378-.88.84-.88c.253 0 .42-.175.42-.44C6.909.177 6.74 0 6.489 0c-.925 0-1.682.792-1.682 1.76 0 .307.084.615.252.879H2.703c-.462 0-.883.176-1.177.528-.336.308-.505.747-.505 1.231v.44c0 .264.169.44.42.44.253 0 .421-.176.421-.44v-.44c0-.22.084-.44.253-.616a.813.813 0 0 1 .588-.263h10.934c.463 0 .841.395.841.88v.439c0 .264.168.44.42.44.253 0 .421-.176.421-.44v-.44c0-.967-.757-1.76-1.682-1.76zm-5.046 0c-.463 0-.841-.396-.841-.88s.378-.88.84-.88c.463 0 .842.396.842.88s-.379.88-.841.88z"/>
        <path d="M15.663 13.61l-1.895-5.172c-.21-.521-.294-1.086-.294-1.695V4.657c0-.26-.169-.435-.421-.435-.253 0-.421.174-.421.435v2.086c0 .696.126 1.348.336 2l1.895 5.172c.21.521.295 1.086.295 1.695v1.651c0 .479-.379.87-.842.87H1.684c-.463 0-.842-.391-.842-.87V15.61c0-.565.084-1.13.295-1.695l1.895-5.173a6.42 6.42 0 0 0 .336-1.999V4.657c0-.26-.168-.435-.42-.435-.253 0-.422.174-.422.435v2.086c0 .565-.084 1.13-.294 1.695L.337 13.61a6.42 6.42 0 0 0-.337 2v1.651C0 18.218.758 19 1.684 19h12.632c.926 0 1.684-.782 1.684-1.739V15.61c0-.696-.126-1.348-.337-2z"/>
        <path d="M2.787 14.68l1.952-4.95c.087-.214-.044-.47-.26-.555-.217-.085-.478.043-.564.256l-1.953 4.95c-.173.427-.26.897-.26 1.366v1.067c0 .256.174.427.434.427h2.169c.26 0 .434-.171.434-.427s-.174-.427-.434-.427H2.57v-.64c0-.384.087-.725.217-1.067z"/>
    </g>
</svg>
