<svg xmlns="http://www.w3.org/2000/svg" xmlns:xlink="http://www.w3.org/1999/xlink" width="12" height="20" viewBox="0 0 12 20">
    <defs>
        <path id="a" d="M.003.031v19.325H11.98V.031H.003z"/>
    </defs>
    <g fill="none" fill-rule="evenodd">
        <g transform="translate(0 .052)">
            <mask id="b" fill="#fff">
                <use xlink:href="#a"/>
            </mask>
            <path fill="#595B60" d="M10.998.031H.981C.44.031 0 .471 0 1.012v18.031c0 .173.14.313.313.313h1.336c.173 0 .313-.14.313-.313v-2.358h8.055v2.358c0 .173.14.313.313.313h1.336c.173 0 .313-.14.313-.313V1.013c0-.542-.44-.982-.98-.982zm-9.662 18.7h-.71v-2.112c.11.042.23.066.355.066h.355v2.045zm10.017 0h-.71v-2.046h.355a.978.978 0 0 0 .355-.066v2.111zm0-3.027c0 .196-.159.355-.355.355H.981a.355.355 0 0 1-.355-.355V1.012c0-.195.16-.355.355-.355h10.017c.196 0 .355.16.355.355v14.692z" mask="url(#b)"/>
        </g>
        <path fill="#595B60" d="M3.652 4.383h4.675a.982.982 0 0 0 0-1.962H3.652a.982.982 0 0 0 0 1.962zm0-1.336h4.675a.355.355 0 0 1 0 .71H3.652a.355.355 0 0 1 0-.71zM3.986 5.092a.313.313 0 0 0 0 .626h4.007a.313.313 0 0 0 0-.626H3.986zM1.983 7.722h7.346a.313.313 0 1 0 0-.626H1.983a.313.313 0 0 0 0 .626zM1.983 9.057h4.674a.313.313 0 0 0 0-.626H1.983a.313.313 0 0 0 0 .626zM9.997 8.431h-.668a.313.313 0 0 0 0 .626h.668a.313.313 0 0 0 0-.626zM1.983 10.393h7.346a.313.313 0 0 0 0-.626H1.983a.313.313 0 1 0 0 .626zM1.983 11.729h4.674a.313.313 0 0 0 0-.626H1.983a.313.313 0 0 0 0 .626zM9.997 11.103h-.668a.313.313 0 0 0 0 .626h.668a.313.313 0 0 0 0-.626zM1.983 13.064h7.346a.313.313 0 0 0 0-.626H1.983a.313.313 0 0 0 0 .626zM6.657 13.774H1.983a.313.313 0 0 0 0 .626h4.674a.313.313 0 1 0 0-.626zM9.997 13.774h-.668a.313.313 0 0 0 0 .626h.668a.313.313 0 1 0 0-.626z"/>
    </g>
</svg>
