<?xml version="1.0" encoding="UTF-8"?>
<svg width="15px" height="14px" viewBox="0 0 15 14" version="1.1" xmlns="http://www.w3.org/2000/svg" xmlns:xlink="http://www.w3.org/1999/xlink">
    <!-- Generator: Sketch 49.1 (51147) - http://www.bohemiancoding.com/sketch -->
    <title>work_gray</title>
    <desc>Created with Sketch.</desc>
    <defs></defs>
    <g id="Page-1" stroke="none" stroke-width="1" fill="none" fill-rule="evenodd">
        <g id="checkout2" transform="translate(-862.000000, -303.000000)" fill="#808A91" fill-rule="nonzero">
            <g id="Group-11" transform="translate(833.000000, 270.000000)">
                <g id="Group-9" transform="translate(29.880001, 30.627001)">
                    <g id="Group-4">
                        <g id="work_gray" transform="translate(0.000000, 2.935710)">
                            <path d="M0,11.505564 C0,12.2190532 0.682384508,12.2190532 0.682384508,12.2190532 L12.9653057,12.2190532 C12.9653057,12.2190532 13.6476902,12.2190532 13.6476902,11.505564 L13.6476902,5.79681955 L8.70102688,5.79681955 L8.70102688,6.42941352 L13.0620883,6.42941352 L13.0620883,11.6205118 L0.601724875,11.6205118 L0.601724875,6.42941352 L4.96651041,6.42941352 L4.96651041,5.79681955 L0,5.79681955 L0,11.505564 Z" id="Shape" stroke="#8B959C" stroke-width="0.5"></path>
                            <path d="M7.96902455,0.0168069928 L5.67866562,0.0168069928 C5.67866562,0.0168069928 4.96278629,0.0168069928 4.96278629,0.819571765 L4.96278629,1.94347015 L0.682384508,1.94347015 C0.682384508,1.94347015 0,1.94347015 0,2.67305063 L0,5.15462158 L0.620345498,5.15462158 L0.620345498,2.5856912 L13.0273224,2.5856912 L13.0273224,5.1545985 L13.6476902,5.15462158 L13.6476902,2.67302754 C13.6476902,1.94344706 12.9653057,1.94344706 12.9653057,1.94344706 L8.68488158,1.94344706 L8.68488158,0.819571765 C8.68488158,0.0168069928 7.96902455,0.0168069928 7.96902455,0.0168069928 Z M8.0980532,1.94347015 L5.58995563,1.94347015 L5.58995563,0.645545512 L8.0986553,0.645545512 L8.0986553,1.94347015 L8.0980532,1.94347015 Z" id="Shape" stroke="#8B959C" stroke-width="0.5"></path>
                            <path d="M6.20907462,4.51237744 C5.86353384,4.51237744 5.58315409,4.79687274 5.58315409,5.16037013 L5.58315409,6.43262254 C5.58315409,6.79097164 5.8579588,7.08128474 6.20907462,7.08128474 L7.43799114,7.08128474 C7.78413403,7.08128474 8.06455838,6.79678945 8.06455838,6.43329205 L8.06455838,5.16039321 C8.06455838,4.80266745 7.78973136,4.51240053 7.43861554,4.51240053 L6.20907462,4.51240053 L6.20907462,4.51237744 Z M7.44419058,6.4390406 L6.20347728,6.4390406 L6.20347728,5.1545985 L7.44419058,5.1545985 L7.44419058,6.4390406 Z" id="Shape"></path>
                        </g>
                    </g>
                </g>
            </g>
        </g>
    </g>
</svg>