<svg xmlns="http://www.w3.org/2000/svg" xmlns:xlink="http://www.w3.org/1999/xlink" width="34" height="37" viewBox="0 0 34 37">
    <defs>
        <path id="a" d="M0 .469h28v28H0z"/>
    </defs>
    <g fill="none" fill-rule="evenodd" transform="translate(0 -1)">
        <g transform="translate(0 .531)">
            <mask id="b" fill="#fff">
                <use xlink:href="#a"/>
            </mask>
            <path fill="#FFF" d="M23.234 3.095V6.33H8.844l14.39-3.237zm-9.13 23.04H2.334V8.666h23.333v4.668h-4.89a4.076 4.076 0 0 0-4.074 4.07c0 1.178.512 2.233 1.316 2.977a6.632 6.632 0 0 1 2.483-1.27 1.736 1.736 0 0 1-1.466-1.709c0-.956.781-1.736 1.74-1.736h4.891v2.882A6.977 6.977 0 0 1 28 19.36V7.498c0-.644-.523-1.167-1.167-1.167h-1.266V1.636A1.168 1.168 0 0 0 24.145.497L.911 5.723a1.168 1.168 0 0 0-.91 1.14v20.44c0 .643.522 1.166 1.166 1.166h12.89a8.77 8.77 0 0 1 .047-2.334z" mask="url(#b)"/>
        </g>
        <path fill="#FFF" d="M28.47 28.29a.718.718 0 0 1-.223.527.722.722 0 0 1-.527.223h-2.997v2.996a.72.72 0 0 1-.222.527.722.722 0 0 1-.527.223h-1.498a.722.722 0 0 1-.527-.223.72.72 0 0 1-.222-.527V29.04H18.73a.722.722 0 0 1-.527-.223.72.72 0 0 1-.222-.527v-1.5a.72.72 0 0 1 .222-.525.722.722 0 0 1 .527-.223h2.997v-2.997a.72.72 0 0 1 .222-.526.722.722 0 0 1 .527-.223h1.498a.72.72 0 0 1 .527.223.717.717 0 0 1 .223.526v2.997h2.996a.72.72 0 0 1 .527.223.717.717 0 0 1 .223.526v1.499z"/>
        <path stroke="#FFF" stroke-width="2" d="M31.01 23.028a8.96 8.96 0 0 0-3.272-3.272c-1.377-.804-2.88-1.206-4.513-1.206a8.79 8.79 0 0 0-4.512 1.206 8.945 8.945 0 0 0-3.272 3.272c-.805 1.377-1.206 2.882-1.206 4.513 0 1.631.401 3.135 1.206 4.512a8.942 8.942 0 0 0 3.271 3.272 8.796 8.796 0 0 0 4.513 1.206 8.793 8.793 0 0 0 4.513-1.206 8.945 8.945 0 0 0 3.272-3.272 8.79 8.79 0 0 0 1.206-4.512c0-1.632-.402-3.136-1.206-4.513z"/>
        <rect width="3" height="9" x="6" y="13" fill="#FFF" fill-rule="nonzero" rx="1"/>
    </g>
</svg>
