<svg xmlns="http://www.w3.org/2000/svg" width="16" height="16" viewBox="0 0 16 16">
    <path fill="#5DA2F8" fill-rule="nonzero" d="M14.667 1.5c.736 0 1.333.596 1.333 1.333v11.833c0 .737-.597 1.334-1.333 1.334H1.333A1.333 1.333 0 0 1 0 14.666V2.833C0 2.096.597 1.5 1.333 1.5H3.5v-1a.5.5 0 1 1 1 0v1h3v-1a.5.5 0 1 1 1 0v1h3v-1a.5.5 0 1 1 1 0v1h2.167zm.266 12.825V3.217a.322.322 0 0 0-.33-.313h-2.146v.94c0 .259-.221.468-.495.468a.482.482 0 0 1-.495-.469v-.939H8.495v.94c0 .259-.222.468-.495.468a.483.483 0 0 1-.495-.469v-.939H4.533v.94c0 .259-.222.468-.495.468a.483.483 0 0 1-.495-.469v-.939H1.397c-.182 0-.33.14-.33.313v11.108c0 .172.148.313.33.313h13.207c.181 0 .33-.14.33-.313zM3.5 6h2v1.5h-2V6zm0 2.5h2V10h-2V8.5zm0 2.5h2v1.5h-2V11zM7 11h2v1.5H7V11zm0-2.5h2V10H7V8.5zM7 6h2v1.5H7V6zm3.5 5h2v1.5h-2V11zm0-2.5h2V10h-2V8.5zm0-2.5h2v1.5h-2V6z"/>
</svg>
