<?xml version="1.0" encoding="UTF-8"?>
<svg width="50px" height="50px" viewBox="0 0 50 50" version="1.1" xmlns="http://www.w3.org/2000/svg" xmlns:xlink="http://www.w3.org/1999/xlink">
    <title>call</title>
    <g id="Page-1" stroke="none" stroke-width="1" fill="none" fill-rule="evenodd">
        <g id="Artboard" transform="translate(-322.000000, -245.000000)" fill="#000000" fill-rule="nonzero">
            <path d="M364.673628,252.326311 C354.905987,242.55867 339.095418,242.557302 329.326409,252.326311 C319.55867,262.093854 319.557106,277.904619 329.326409,287.673628 C339.094049,297.441269 354.904619,297.442637 364.673628,287.673628 C374.441366,277.906183 374.442833,262.09532 364.673628,252.326311 Z M354.825725,267.556275 C352.666566,267.721981 350.750441,266.51668 349.878996,264.709853 C349.289689,263.488128 347.809092,262.98319 346.630578,263.654615 C344.142255,265.072254 342.070886,267.140789 340.649825,269.626863 C339.973022,270.810852 340.47581,272.304451 341.702911,272.899525 C343.53457,273.787786 344.742706,275.750445 344.531346,277.942257 C344.29056,280.438987 342.205014,282.399886 339.698411,282.493444 C336.756182,282.60323 334.453997,280.199765 334.453997,277.50888 C334.453997,266.340611 343.533788,257.538365 354.367811,257.471692 C357.301339,257.43816 359.670685,259.910254 359.469004,262.872328 C359.299974,265.353416 357.305054,267.365934 354.825725,267.556275 L354.825725,267.556275 Z" id="call" transform="translate(347.000000, 269.999969) rotate(-90.000000) translate(-347.000000, -269.999969) "></path>
        </g>
    </g>
</svg>