<svg xmlns="http://www.w3.org/2000/svg" width="63" height="60" viewBox="0 0 63 60">
    <path fill="#FFF" fill-rule="evenodd" d="M35.308 7.536a4.994 4.994 0 0 1-8.106.712L14.976 26H12L26.038 5.616A5.006 5.006 0 0 1 31.003 0a5.007 5.007 0 0 1 4.94 4.246c.101.077.193.171.27.282L51 26h-2.98L35.307 7.536zm-6.792-3.285c.521.402.643 1.16.26 1.71l-.113.165a2.602 2.602 0 0 0 2.34 1.47 2.595 2.595 0 0 0 0-5.191c-1.17 0-2.164.779-2.487 1.846zM7.342 31.464c-2.698 0-4.895 2.21-4.895 4.928v16.216c0 2.717 2.197 4.928 4.895 4.928h48.316c2.698 0 4.895-2.21 4.895-4.928V36.392c0-2.717-2.197-4.928-4.895-4.928H7.342zM55.658 60H7.342C3.298 60 0 56.684 0 52.608V36.392C0 32.316 3.298 29 7.342 29h48.316C59.708 29 63 32.316 63 36.392v16.216C63 56.684 59.708 60 55.658 60zM9.442 49.328a4.435 4.435 0 0 1-1.813-1.918C7.208 46.58 7 45.61 7 44.5s.214-2.08.635-2.91a4.466 4.466 0 0 1 1.841-1.918c.808-.448 1.778-.672 2.898-.672.473 0 .935.048 1.39.145.457.097.872.242 1.236.436v1.863h-.058a4.391 4.391 0 0 0-1.189-.504 4.828 4.828 0 0 0-1.218-.168c-1.096 0-1.956.321-2.586.963-.629.641-.946 1.563-.946 2.765 0 1.192.306 2.108.923 2.75.612.642 1.455.962 2.523.962.41 0 .83-.068 1.258-.206a5.29 5.29 0 0 0 1.235-.589H15v1.88c-.768.469-1.674.703-2.713.703-1.102 0-2.049-.225-2.845-.672zM18 39h2.17v9.166H25V50h-7V39zm15.887 8.197c.581-.627.872-1.526.872-2.697s-.291-2.07-.872-2.697c-.582-.626-1.376-.939-2.384-.939-1.014 0-1.808.313-2.39.94-.581.626-.872 1.525-.872 2.696 0 1.171.291 2.07.872 2.697.582.626 1.376.939 2.39.939 1.008 0 1.802-.313 2.384-.94zm-5.355 2.13a4.505 4.505 0 0 1-1.886-1.91C26.22 46.593 26 45.62 26 44.5c0-1.12.22-2.093.646-2.918a4.507 4.507 0 0 1 1.886-1.91c.827-.448 1.821-.672 2.971-.672 1.15 0 2.138.224 2.965.672a4.47 4.47 0 0 1 1.886 1.91c.433.825.646 1.797.646 2.918 0 1.12-.213 2.093-.646 2.917a4.469 4.469 0 0 1-1.886 1.91c-.827.448-1.815.673-2.965.673s-2.144-.225-2.971-.672zm12.189.444A8.691 8.691 0 0 1 39 49.144V47.19c1.252.712 2.37 1.07 3.355 1.07.493 0 .893-.113 1.194-.337.301-.224.458-.54.458-.947a1.09 1.09 0 0 0-.255-.726 1.973 1.973 0 0 0-.632-.489c-.25-.127-.608-.282-1.066-.466a11.703 11.703 0 0 1-1.536-.703 3.019 3.019 0 0 1-1.014-.955c-.278-.412-.417-.944-.417-1.596 0-.957.313-1.703.939-2.238.625-.535 1.483-.802 2.573-.802a6.48 6.48 0 0 1 1.506.176c.493.117.945.288 1.362.512v1.91c-.974-.571-1.918-.856-2.822-.856-.504 0-.893.094-1.182.283a.904.904 0 0 0-.423.801c0 .347.145.62.44.817.296.2.748.416 1.368.65.643.255 1.176.5 1.593.733.412.234.77.573 1.078 1.016.301.443.464 1.016.481 1.719 0 1.008-.325 1.8-.968 2.376-.649.575-1.512.863-2.59.863a7.072 7.072 0 0 1-1.721-.23zm10.312-8.937v2.75h4.627v1.722h-4.627v2.86H56V50h-7V39h7v1.834h-4.967z"/>
</svg>
