<svg xmlns="http://www.w3.org/2000/svg" width="26" height="33" viewBox="0 0 26 33">
    <g fill="#FFF" fill-rule="nonzero">
        <path d="M10.466 29.606a.613.613 0 0 0-.437-.187.613.613 0 0 0-.438.187.655.655 0 0 0 0 .904.614.614 0 0 0 .438.188.613.613 0 0 0 .437-.188.655.655 0 0 0 0-.904zM18.934 1.79H14.99a.634.634 0 0 0-.628.64c0 .353.281.64.628.64h3.944a.634.634 0 0 0 .628-.64.634.634 0 0 0-.628-.64z"/>
        <path d="M25.375 14.566a.635.635 0 0 0 .625-.644V2.33C26 1.045 24.986 0 23.74 0H10.01C8.764 0 7.75 1.045 7.75 2.33v4.45a16.552 16.552 0 0 0-4.31 5.585 17.051 17.051 0 0 0-1.628 7.256v6.74H1.25c-.69 0-1.25.579-1.25 1.29v4.704c0 .356.28.645.625.645a.635.635 0 0 0 .625-.645V27.65h11.09v4.705c0 .356.28.645.624.645a.635.635 0 0 0 .625-.645V29.52H23.74c1.246 0 2.26-1.046 2.26-2.33v-7.91a.635.635 0 0 0-.625-.645.635.635 0 0 0-.625.645v4.761h-9.37l1.987-2.888a2.3 2.3 0 0 0 .16-2.334 2.166 2.166 0 0 0-1.938-1.217c-.466 0-.93.158-1.303.445l-3.948 3.033a.827.827 0 0 1-.5.171.852.852 0 0 1-.838-.864V4.901h15.75v9.02c0 .357.28.645.625.645zM24.75 25.33v1.86c0 .573-.453 1.04-1.01 1.04H13.59v-.58a1.3 1.3 0 0 0-.506-1.033c.52-.35.99-.783 1.391-1.288l.025.001h10.25zM9.838 22.54c.446 0 .89-.151 1.247-.426l3.948-3.033a.913.913 0 0 1 1.383.33.97.97 0 0 1-.068.996l-2.638 3.832c-.914 1.329-2.403 2.122-3.983 2.122H3.062v-6.74c0-4.273 1.693-8.26 4.688-11.135v11.901c0 1.187.937 2.153 2.088 2.153zM9 3.612V2.33c0-.574.453-1.04 1.01-1.04h13.73c.557 0 1.01.466 1.01 1.04v1.282H9z"/>
        <path d="M17.4 26.28a.614.614 0 0 0-.438-.187.614.614 0 0 0-.438.187.655.655 0 0 0 0 .905.61.61 0 0 0 .438.187.61.61 0 0 0 .438-.187.654.654 0 0 0 0-.905zM21.724 10.224a1.38 1.38 0 0 0-1.08-.521h-1.727l-.535-.94a.627.627 0 0 0-.863-.235.646.646 0 0 0-.231.876l.17.299h-.992l.17-.3a.646.646 0 0 0-.231-.875.627.627 0 0 0-.864.235l-.535.94H13.28c-.421 0-.815.19-1.08.52-.266.332-.37.761-.285 1.18l.83 4.096a1.404 1.404 0 0 0 1.366 1.129h5.702c.658 0 1.232-.475 1.365-1.129l.831-4.097a1.424 1.424 0 0 0-.285-1.178zm-.953.92l-.83 4.096a.13.13 0 0 1-.128.106h-5.702a.13.13 0 0 1-.127-.106l-.831-4.096a.13.13 0 0 1 .026-.11.126.126 0 0 1 .1-.049h.998l-.359.63a.646.646 0 0 0 .231.877.63.63 0 0 0 .863-.235l.724-1.272h2.452l.723 1.272a.63.63 0 0 0 .864.235.646.646 0 0 0 .23-.876l-.358-.63h.997c.051 0 .083.026.1.048a.13.13 0 0 1 .027.11zM25.819 16.048a.614.614 0 0 0-.438-.188.614.614 0 0 0-.438.188.655.655 0 0 0 0 .904.614.614 0 0 0 .438.188.613.613 0 0 0 .438-.188.655.655 0 0 0 0-.904z"/>
    </g>
</svg>
