<svg xmlns="http://www.w3.org/2000/svg" width="500" height="419" viewBox="0 0 500 419">
    <g fill="none" fill-rule="evenodd">
        <path fill="#C0C0C0" d="M458.576 416.21c0 1.135-88.51 2.054-197.695 2.054-109.186 0-197.698-.919-197.698-2.054 0-1.133 88.512-2.054 197.698-2.054 109.185 0 197.695.921 197.695 2.054"/>
        <path fill="#EBEBEB" d="M334.371 407.877l32.096-23.084.683-26.927-4.533-12.832-50.71-5.77-36.587 25.65 10.746 33.923 16.856 6.477z"/>
        <path fill="#C0C0C0" d="M361.333 416.215l16.687-27.576-10.87-30.773-.683 26.927-32.095 23.085-31.451-2.564-16.855-6.477 5.301 16.735z"/>
        <path fill="#EBEBEB" d="M88.674 414.542l4.546-3.27.097-3.814-.643-1.817-7.183-.817-5.183 3.634 1.523 4.804 2.388.917z"/>
        <path fill="#C0C0C0" d="M92.492 415.723l2.365-3.904-1.54-4.362-.096 3.816-4.547 3.27-4.456-.363-2.387-.919.752 2.374z"/>
        <path fill="#EBEBEB" d="M208.565 407.877l16.261-5.53 8.772-9.858-19.897-29.5-45.514-1.102-26.376 24.829 10.812 13.888 13.579 6.632z"/>
        <path fill="#C0C0C0" d="M213.059 415.573l11.767-13.225-16.26 5.529-42.364-.64-13.58-6.634 11.655 14.97z"/>
        <path fill="#EBEBEB" d="M421.053 410.043l11.439-3.117 2.681-7.142-8.986-17.315-25.676 3.206-16.047 15.392 3.41 4.353 12.637 3.34z"/>
        <path fill="#C0C0C0" d="M429.396 415.173l3.096-8.248-11.438 3.118-20.544-1.283-12.637-3.34 8.144 10.395z"/>
        <path fill="#EBEBEB" d="M116.025 411.91l-7.261-1.977-1.702-4.534 6.345-9.064 15.652.109 10.184 9.768-2.164 2.765-8.02 2.117z"/>
        <path fill="#C0C0C0" d="M110.73 415.168l-1.966-5.236 7.26 1.978 13.035-.815 8.02-2.118-5.168 6.596z"/>
        <path fill="#EBEBEB" d="M256.652 240.15l-.963 176.065h10.59l-.606-175.502z"/>
        <path fill="#C0C0C0" d="M265.673 240.713l-7.447-.467 5.7 3.242-1.607 169.386-4.17 1.24-2.438-2.628-.023 4.73h10.59z"/>
        <path fill="#EBEBEB" d="M195.891 154.72l.962 50.659 36.588 35.912 61.94-.641 30.487-37.836-.638-48.415-38.836-38.155h-53.917z"/>
        <path fill="#9B9B9B" d="M204.074 157.748l.842 44.28 31.98 31.39 54.141-.56 26.648-33.072-.559-42.319-33.947-33.35h-47.125z"/>
        <path fill="#C0C0C0" d="M233.44 241.292l61.94-.642 30.488-37.835-.638-48.416-8.586-8.433 6.388 9.695-.691 46.814-28.887 33.664-60.014 2.244-33.975-32.747-2.935-17.27.323 17.013z"/>
        <path fill="#4A4A4A" d="M311.718 152.154l5.409 5.314.557 42.319-26.648 33.072-54.14.56-31.98-31.391-.206-10.78 2.093 9.943 30.808 28.855 50.39-3.203 25.673-27.576 1.606-40.721z"/>
        <path fill="#FFF" d="M222.041 161.779l-3.018 21.915 12.476.402-.403 13.27h7.85l-1.208-13.672h4.227l-.606-5.026-3.621-.402-.806-6.636-5.03-.202-.202 7.441-6.037-.2 1.811-17.09zM282.816 161.779l-3.02 21.915 12.48.402-.407 13.27h7.85l-1.209-13.672h4.23l-.606-5.026-3.624-.402-.806-6.636-5.029-.202-.203 7.441-6.036-.2 1.81-17.09zM256.158 192.138l-1.21-25.936 11.672.604.192 24.789-10.654.543zm16.098-30.56l-23.747-1.407 2.616 37.194 22.126-.745-.995-35.042z"/>
        <path fill="#F6F6F6" d="M107.63 101.964l22.92-16.487.486-19.229-3.236-9.165-36.216-4.122-26.13 18.32 7.674 24.226 12.038 4.627z"/>
        <path fill="#F6F6F6" d="M126.882 107.918L138.8 88.225l-7.764-21.978-.487 19.23-22.921 16.487-22.463-1.831-12.039-4.626 3.787 11.954z"/>
        <path fill="#F6F6F6" d="M75.084 102.311l11.613-3.95 6.265-7.04-14.21-21.068-32.506-.788L27.41 87.2l7.721 9.918 9.698 4.737z"/>
        <path fill="#F6F6F6" d="M78.292 107.807l8.405-9.444-11.614 3.948-30.255-.457-9.697-4.738 8.322 10.691zM146.61 104.205l8.17-2.226 1.915-5.102-6.417-12.365-18.336 2.29-11.46 10.991 2.434 3.11 9.026 2.386z"/>
        <path fill="#F6F6F6" d="M152.57 107.868l2.21-5.89-8.17 2.227-14.669-.916-9.026-2.386 5.817 7.425z"/>
        <path fill="#F6F6F6" d="M184.105 106.895c0 1.163-41.214 2.106-92.052 2.106-50.84 0-92.053-.943-92.053-2.106 0-1.162 41.213-2.104 92.053-2.104 50.838 0 92.052.942 92.052 2.104M265.906 48.343l-9.461-2.576-2.219-5.907 8.27-11.813 20.398.145 13.268 12.73-2.82 3.599-10.448 2.763z"/>
        <path fill="#F6F6F6" d="M259.006 52.587l-2.561-6.82 9.462 2.577 16.986-1.06 10.45-2.764-6.738 8.595z"/>
        <path fill="#F6F6F6" d="M321.11 49.003l22.92-16.488.489-19.23-3.24-9.165L305.065 0l-26.131 18.319 7.674 24.228 12.04 4.625z"/>
        <path fill="#F6F6F6" d="M340.361 54.957l11.922-19.693-7.765-21.98-.487 19.231-22.921 16.487-22.463-1.83-12.04-4.625 3.787 11.953z"/>
        <path fill="#F6F6F6" d="M360.09 51.244l8.17-2.226 1.916-5.102-6.417-12.365-18.336 2.29-11.463 10.99 2.436 3.11 9.027 2.387z"/>
        <path fill="#F6F6F6" d="M366.05 54.906l2.21-5.889-8.17 2.226-14.668-.914-9.026-2.389 5.817 7.425z"/>
        <path fill="#F6F6F6" d="M404.254 53.935c0 1.163-41.216 2.104-92.053 2.104-50.838 0-92.054-.941-92.054-2.104 0-1.163 41.216-2.106 92.054-2.106 50.837 0 92.053.943 92.053 2.106M471.826 116.487l5.689-1.548 1.334-3.55-4.97-7.102-12.265.087-7.976 7.652 1.694 2.164 6.282 1.661z"/>
        <path fill="#F6F6F6" d="M475.975 119.039l1.54-4.1-5.689 1.548-10.211-.636-6.283-1.661 4.05 5.167z"/>
        <path fill="#F6F6F6" d="M438.64 116.885l-13.782-9.913-.291-11.561 1.945-5.51 21.773-2.478 15.71 11.014-4.613 14.565-7.239 2.782z"/>
        <path fill="#F6F6F6" d="M427.064 120.463l-7.166-11.838 4.67-13.213.29 11.561 13.782 9.911 13.502-1.1 7.24-2.782-2.28 7.187z"/>
        <path fill="#F6F6F6" d="M415.202 118.23l-4.91-1.336-1.155-3.068 3.861-7.434 11.025 1.377 6.886 6.609-1.461 1.868-5.425 1.436z"/>
        <path fill="#F6F6F6" d="M411.62 120.434l-1.328-3.54 4.91 1.337 8.82-.55 5.425-1.435-3.498 4.465z"/>
        <path fill="#F6F6F6" d="M388.65 119.85c0 .699 24.78 1.265 55.345 1.265 30.564 0 55.343-.566 55.343-1.265 0-.7-24.78-1.267-55.343-1.267-30.565 0-55.345.567-55.345 1.267"/>
    </g>
</svg>
