<svg xmlns="http://www.w3.org/2000/svg" xmlns:xlink="http://www.w3.org/1999/xlink" width="30" height="30" viewBox="0 0 30 30">
    <defs>
        <path id="a" d="M.004.03h29.967v29.897H.004z"/>
    </defs>
    <g fill="none" fill-rule="evenodd">
        <mask id="b" fill="#fff">
            <use xlink:href="#a"/>
        </mask>
        <path fill="#2396FF" d="M14.985.03c8.276 0 14.986 6.693 14.986 14.948s-6.71 14.95-14.986 14.95C6.71 29.927 0 23.232 0 14.977 0 6.723 6.71.03 14.985.03zM15 16.253c-1.665 0-3.019-1.39-3.019-3.097 0-1.708 1.354-3.098 3.019-3.098s3.019 1.39 3.019 3.098-1.354 3.097-3.019 3.097zM15 7c-3.308 0-6 2.762-6 6.157 0 4.213 5.37 10.398 5.598 10.66.215.245.59.244.804 0C15.631 23.554 21 17.37 21 13.156 21 9.762 18.308 7 15 7z" mask="url(#b)"/>
    </g>
</svg>
