<?xml version="1.0" encoding="UTF-8"?>
<svg width="467px" height="512px" viewBox="0 0 467 512" version="1.1" xmlns="http://www.w3.org/2000/svg" xmlns:xlink="http://www.w3.org/1999/xlink">
    <!-- Generator: Sketch 56 (81588) - https://sketch.com -->
    <title>map</title>
    <desc>Created with Sketch.</desc>
    <g id="Page-1" stroke="none" stroke-width="1" fill="none" fill-rule="evenodd">
        <g id="map" fill-rule="nonzero">
            <path d="M454.611845,107.402625 L12.6942076,107.402625 C5.94747492,107.402625 0.478090912,112.872009 0.478090912,119.618742 L0.478090912,279.203463 L0.478090912,355.171448 C37.5897227,447.112938 127.649451,512 232.886003,512 C339.600353,512 430.710391,445.277197 466.827961,351.281108 L466.827961,273.900778 L466.827961,119.618742 C466.827961,112.872009 461.3596,107.402625 454.611845,107.402625 Z" id="Path" fill="#95D8F9"></path>
            <path d="M396.207659,107.402625 L177.579568,107.402625 C178.954073,119.613628 181.714332,132.229619 185.480925,144.952994 L387.857338,144.952994 C391.820289,132.114055 394.739066,119.4817 396.207659,107.402625 L396.207659,107.402625 Z" id="Path" fill="#95D8F9"></path>
            <path d="M65.9307043,119.228071 C65.9307043,113.52449 69.844566,108.748494 75.1298646,107.402625 L12.6942076,107.402625 C5.94747492,107.402625 0.478090912,112.872009 0.478090912,119.618742 L0.478090912,279.203463 L0.478090912,355.171448 C14.9707313,391.076297 37.5385878,422.854563 65.9307043,448.254268 L65.9307043,278.812793 L65.9307043,119.228071 Z" id="Path" fill="#95D8F9"></path>
            <path d="M429.922914,134.726023 L37.3841606,134.726023 C30.6374279,134.726023 25.1680439,140.195407 25.1680439,146.94214 L25.1680439,401.541556 C70.1902376,468.179475 146.410829,512 232.887026,512 C320.353194,512 397.327513,467.170073 442.140054,399.244578 L442.140054,146.94214 C442.140054,140.195407 436.669647,134.726023 429.922914,134.726023 Z" id="Path" fill="#95D8F9"></path>
            <ellipse id="Oval" fill="#5BB3CE" cx="286.321926" cy="284.449899" rx="42.441929" ry="11.7610165"></ellipse>
            <path d="M442.074601,145.685245 C442.07051,145.650473 442.062329,145.616724 442.059261,145.581953 C442.01733,145.203555 441.962104,144.829248 441.886425,144.462099 C441.885402,144.459031 441.884379,144.455963 441.884379,144.452895 C441.718702,143.655191 441.4753,142.886123 441.163378,142.153872 L338.203349,171.301762 L327.848541,134.726023 L303.40199,134.726023 L315.571062,177.709981 L214.171669,206.417089 L193.875223,134.726023 L169.428672,134.726023 L191.539383,212.824286 L98.6611018,239.118851 L69.105156,134.726023 L44.6586049,134.726023 L107.562657,356.913101 C91.2823423,365.87295 80.2484635,383.186189 80.2484635,403.081738 C80.2484635,403.861033 80.2740309,404.634192 80.3067572,405.405306 L37.0262166,417.659262 C42.4649197,424.471447 48.2503171,430.993187 54.3578641,437.198913 L86.553391,428.083613 C95.4559691,444.557218 112.878637,455.750638 132.918386,455.750638 C133.793815,455.750638 134.663107,455.727116 135.527286,455.684162 L147.2116,496.956126 C155.907594,500.121373 164.826535,502.823339 173.941834,505.022138 L158.168777,449.308669 C174.506363,440.366205 185.586263,423.018195 185.586263,403.080715 C185.586263,402.069268 185.551491,401.067025 185.495243,400.070918 L240.168629,384.592397 L275.227708,508.426696 C283.028841,507.098213 290.707251,505.40974 298.244528,503.377641 L262.801938,378.186223 L364.201332,349.479116 L393.673416,453.580474 C400.434466,447.914733 406.891776,441.897183 413.017731,435.558506 L344.610546,193.936093 L442.139031,166.324295 L442.139031,146.943162 C442.139031,146.51772 442.117554,146.098415 442.074601,145.685245 Z M132.917363,432.229627 C116.820111,432.229627 103.770496,419.180013 103.770496,403.082761 C103.770496,386.985508 116.820111,373.935894 132.917363,373.935894 C149.014615,373.935894 162.06423,386.985508 162.06423,403.082761 C162.06423,419.180013 149.015638,432.229627 132.917363,432.229627 Z M178.943846,377.480562 C169.945134,361.338311 152.710643,350.413861 132.917363,350.413861 C132.002049,350.413861 131.092872,350.437383 130.188807,350.483404 L105.067276,261.75216 L197.945557,235.457595 L233.760409,361.961134 L178.943846,377.480562 Z M357.793112,326.845806 L256.393718,355.552914 L220.578867,229.049375 L321.97826,200.342268 L357.793112,326.845806 Z" id="Shape" fill="#FFFFFF"></path>
            <g id="Group-14" transform="translate(136.000000, 0.000000)">
                <g id="Group-13">
                    <path d="M194.099725,97.0498625 C194.099725,156.427655 144.279037,237.637985 116.029075,278.913017 C106.828892,292.355347 87.0448169,292.480116 77.7004336,279.13801 C49.3880876,238.713863 5.82645043e-13,159.28098 5.82645043e-13,97.0498625 C5.82645043e-13,43.4503083 43.451331,5.68434189e-14 97.0498625,5.68434189e-14 C150.648394,5.68434189e-14 194.099725,43.4503083 194.099725,97.0498625 L194.099725,97.0498625 Z" id="Path" fill="#FA6D3A"></path>
                    <path d="M120.13009,2.78378146 C112.729854,0.978721109 105.006446,5.68434189e-14 97.0498625,5.68434189e-14 C43.4503083,5.68434189e-14 6.4659389e-13,43.4503083 6.4659389e-13,97.0498625 C6.4659389e-13,159.28098 49.3870649,238.713863 77.7004336,279.13801 C87.0448169,292.480116 106.828892,292.355347 116.029075,278.913017 C117.254266,277.122274 118.523433,275.251761 119.824304,273.315796 C91.1069697,231.441464 46.1594329,156.418451 46.1594329,97.0498625 C46.1594329,51.4068916 77.6769116,13.1437029 120.13009,2.78378146 L120.13009,2.78378146 Z" id="Path" fill="#FC875D"></path>
                    <circle id="Oval" fill="#FFFFFF" cx="97.0498625" cy="97.0498625" r="72.7485344"></circle>
                    <path d="M60.0967487,97.0498625 C60.0967487,63.0492752 83.4254919,34.5017088 114.947061,26.526717 C109.22098,25.0775552 103.22593,24.3023508 97.0498625,24.3023508 C56.8721848,24.3023508 24.3023508,56.8732075 24.3023508,97.0498625 C24.3023508,137.226517 56.8732075,169.798397 97.0498625,169.798397 C103.22593,169.798397 109.22098,169.02217 114.947061,167.574031 C83.4254919,159.598016 60.0967487,131.05045 60.0967487,97.0498625 Z" id="Path" fill="#CECECE" opacity="0.604236421"></path>
                </g>
            </g>
        </g>
    </g>
</svg>