<svg xmlns="http://www.w3.org/2000/svg" width="157" height="157" viewBox="0 0 157 157">
    <g fill="none" fill-rule="evenodd">
        <g>
            <circle cx="78.5" cy="78.5" r="78.5" fill="#D8D8D8" opacity=".175"/>
            <path fill="#D3D3D3" fill-rule="nonzero" d="M115.285 46.266c-.552-.788-1.487-1.143-2.402-1.007-.035-.008-.07-.023-.105-.028l-37.47-5.503a2.472 2.472 0 0 0-1.216.126l-30.01 11.005c-.014.005-.026.014-.039.019-.031.013-.061.033-.094.045a2.574 2.574 0 0 0-.998.779c-.007.01-.017.015-.024.025L30.255 69.07a2.495 2.495 0 0 0-.335 2.307 2.48 2.48 0 0 0 1.72 1.57l10.997 2.841v27.2a2.49 2.49 0 0 0 1.76 2.38l40.264 12.31c.013.006.028.001.041.008.216.06.441.098.667.1.004 0 .011.003.018.003h.001c.237 0 .47-.044.702-.112.073-.023.14-.054.215-.086.098-.036.194-.063.29-.113l28.892-16.042a2.488 2.488 0 0 0 1.28-2.176V72.066l9.773-4.693a2.49 2.49 0 0 0 .96-3.672l-12.215-17.435zM75.21 44.743l29.246 4.296-19.4 9.025L54.335 52.4l20.876-7.657zM46.022 55.926l35.203 6.491-10.347 15.53-34.445-8.898 9.59-13.123zm1.588 45.223V77.073l23.734 6.131a2.488 2.488 0 0 0 2.69-1.028L82.9 68.87v43.067l-35.29-10.788zm64.182-3.354l-23.92 13.28V71.78l4.367 9.286a2.486 2.486 0 0 0 3.324 1.184l16.226-7.792.003 23.336zM95.674 76.68L88.7 61.857l23.707-11.029 9.34 13.329L95.673 76.68z"/>
        </g>
    </g>
</svg>
