<svg xmlns="http://www.w3.org/2000/svg" xmlns:xlink="http://www.w3.org/1999/xlink" width="30" height="30" viewBox="0 0 30 30">
    <defs>
        <path id="a" d="M.004.03h29.967v29.897H.004z"/>
    </defs>
    <g fill="none" fill-rule="evenodd">
        <mask id="b" fill="#fff">
            <use xlink:href="#a"/>
        </mask>
        <path fill="#2396FF" d="M14.985.03C6.71.03 0 6.722 0 14.977s6.71 14.95 14.985 14.95c8.276 0 14.986-6.695 14.986-14.95C29.97 6.723 23.26.03 14.985.03zM22.9 21.84l-1.2 1.197c-.214.214-.842.347-.862.347a14.18 14.18 0 0 1-10.136-4.133A14.125 14.125 0 0 1 6.556 9.106c0-.002.137-.61.351-.821l1.2-1.197c.44-.44 1.283-.64 1.873-.442l.253.084c.59.197 1.207.846 1.37 1.445l.604 2.21c.163.6-.057 1.454-.496 1.892l-.801.8a8.499 8.499 0 0 0 5.983 5.97l.801-.799c.441-.44 1.298-.659 1.897-.496l2.216.604c.6.164 1.25.777 1.448 1.365l.085.255c.196.588-.002 1.43-.441 1.865z" mask="url(#b)"/>
    </g>
</svg>
