<svg xmlns="http://www.w3.org/2000/svg" xmlns:xlink="http://www.w3.org/1999/xlink" width="20" height="18" viewBox="0 0 20 18">
    <defs>
        <path id="a" d="M.002.006H19.2V17.28H.002z"/>
    </defs>
    <g fill="none" fill-rule="evenodd">
        <g transform="translate(.4 .12)">
            <mask id="b" fill="#fff">
                <use xlink:href="#a"/>
            </mask>
            <path fill="#2496FF" d="M4.133.88a.585.585 0 0 1 .526-.315h4.525c.225 0 .421.118.526.316a.577.577 0 0 1-.038.61L7.837 4.122H6.006L4.17 1.49a.577.577 0 0 1-.037-.61zm-2.08 3.801h3.275l-1.111 1.63a.278.278 0 0 0 .075.387.282.282 0 0 0 .39-.074L6.007 4.68h1.828l3.052 4.475a.282.282 0 0 0 .39.075.278.278 0 0 0 .076-.388l-3.028-4.44 1.81-2.595c.245-.352.273-.807.073-1.187S9.615.006 9.184.006H4.659c-.432 0-.824.236-1.025.615-.2.38-.172.835.074 1.187l1.187 1.703L2.5 2.103a.282.282 0 0 0-.385.098.278.278 0 0 0 .098.383l2.618 1.539H2.053a.28.28 0 0 0-.28.279c0 .154.125.28.28.28z" mask="url(#b)"/>
            <path fill="#2496FF" d="M14.74 16.721c-2.148 0-3.896-1.736-3.896-3.87 0-2.133 1.748-3.87 3.897-3.87 2.148 0 3.896 1.737 3.896 3.87 0 2.134-1.748 3.87-3.896 3.87zm0-8.298c-2.458 0-4.459 1.986-4.459 4.428 0 1.349.61 2.558 1.57 3.371a3.15 3.15 0 0 1-1.698.5H3.69c-.836 0-1.621-.324-2.212-.91a3.074 3.074 0 0 1-.915-2.196c0-.623.186-1.226.538-1.742l2.944-4.316a.278.278 0 0 0-.075-.388.283.283 0 0 0-.39.075L.634 11.56A3.632 3.632 0 0 0 0 13.616c0 .979.384 1.899 1.08 2.59a3.678 3.678 0 0 0 2.61 1.074h6.463c.782 0 1.546-.25 2.175-.706a4.455 4.455 0 0 0 2.413.706c2.459 0 4.459-1.987 4.459-4.429s-2-4.428-4.46-4.428z" mask="url(#b)"/>
        </g>
        <path fill="#2496FF" d="M17.219 13.345l-.22.175v-2.56a.28.28 0 0 0-.281-.28.28.28 0 0 0-.281.28v2.56l-.22-.175a.281.281 0 0 0-.395.044.278.278 0 0 0 .044.393l.676.537.003.002a.283.283 0 0 0 .078.043l.005.002a.283.283 0 0 0 .132.011l.007-.001a.282.282 0 0 0 .04-.01l.006-.002a.282.282 0 0 0 .078-.043l.003-.002.676-.537a.278.278 0 0 0 .044-.393.283.283 0 0 0-.395-.044M14.339 14.305l-.22.175v-2.56a.28.28 0 0 0-.281-.28.28.28 0 0 0-.281.28v2.56l-.22-.175a.281.281 0 0 0-.395.044.278.278 0 0 0 .044.393l.676.537.003.002a.283.283 0 0 0 .078.043l.005.002a.283.283 0 0 0 .132.011l.007-.001a.282.282 0 0 0 .04-.01l.006-.002a.282.282 0 0 0 .078-.043l.003-.002.676-.537a.278.278 0 0 0 .044-.393.283.283 0 0 0-.395-.044"/>
    </g>
</svg>
