<?xml version="1.0" encoding="UTF-8"?>
<svg width="254px" height="149px" viewBox="0 0 254 149" version="1.1" xmlns="http://www.w3.org/2000/svg" xmlns:xlink="http://www.w3.org/1999/xlink">
    <!-- Generator: Sketch 52.5 (67469) - http://www.bohemiancoding.com/sketch -->
    <title>reward_icon black</title>
    <desc>Created with Sketch.</desc>
    <defs>
        <path d="M0.441,0.64 L51.632,0.64 L0.441,0.64 Z" id="path-1"></path>
    </defs>
    <g id="reward_icon-black" stroke="none" stroke-width="1" fill="none" fill-rule="evenodd">
        <g id="Group-35-(1)" transform="translate(3.000000, 3.000000)">
            <g id="Group-23" transform="translate(0.000000, 0.567000)" fill="#000000">
                <path d="M102.751153,28.3437969 C105.203536,27.9541754 114.921819,26.4330089 128.073518,24.3737874 C148.223482,18.2763897 186.240917,6.81535477 204.625263,0.80138733 C208.510742,-0.47011412 212.690991,1.6499027 213.956508,5.52183058 L213.959508,5.53083058 C213.960633,5.53420558 213.960633,5.53420558 213.969901,5.56236356 C214.696193,7.81215648 215.210221,9.40448358 215.60108,10.6154161 C217.389323,10.331441 219.088297,10.0611486 220.685336,9.80650052 C224.721686,9.16171133 228.515586,11.9123356 229.143152,15.8529097 L229.145152,15.8629097 L229.163383,15.9650453 C229.808681,20.0708327 230.334567,23.4158163 230.755588,26.0924251 C231.074329,26.0868171 231.393528,26.0812011 231.713185,26.075577 C235.800228,26.0045899 239.171272,29.2598267 239.242226,33.3479776 L240.514223,106.909785 C240.585201,110.996315 237.330493,114.366846 233.244594,114.437813 L132.278125,116.214848 C121.2831,119.834432 104.751106,125.634332 82.634437,133.631413 C78.7547933,134.901005 74.581336,132.790258 73.3089518,128.92952 L73.3049604,128.918805 C67.9438408,113.401987 64.0421282,101.860046 61.5977413,94.2862566 L66.3560587,92.7505434 C67.0330577,94.848185 67.8232811,97.2543255 68.7266842,99.9688197 C68.5532385,89.9444918 68.3461096,77.9736116 68.3229741,76.6364485 L73.3222259,76.5499515 C73.3542259,78.3994503 73.7382259,100.59245 73.8982235,109.839817 C73.9212484,111.16644 75.0146294,112.222108 76.3406062,112.198587 L131.435142,111.22891 C131.523631,111.199909 131.611744,111.171055 131.699487,111.142347 L131.726133,111.223788 L233.157185,109.438577 C234.482401,109.41556 235.538004,108.322392 235.514974,106.996422 L234.242976,33.4345834 C234.21995,32.1078832 233.126283,31.0517873 231.800579,31.0748131 C174.188065,32.0884552 131.455651,32.8400459 103.021593,33.3398129 C101.472084,33.3670843 84.6639623,33.6623917 77.7094975,33.7847786 L74.9840155,33.834823 C73.6587989,33.8578404 72.6031958,34.9510084 72.6262237,36.2768226 C72.6580996,38.1136722 72.6889382,40.2925839 72.7207276,42.8781753 C72.7406302,44.496956 72.8431273,53.828952 72.8622226,54.9277611 L67.8629774,55.0146389 C67.8435562,53.8970729 67.7408014,44.5416133 67.7211054,42.9396447 C67.6894109,40.3617678 67.6586825,38.1906468 67.626977,36.3636155 C67.5559988,32.2770853 70.8107073,28.9065543 74.8947025,28.8356214 L77.6196107,28.785587 C84.3649805,28.6668791 100.37315,28.3856203 102.751153,28.3437969 Z M225.708085,26.1812306 C225.306652,23.6288872 224.816425,20.5106287 224.226259,16.755625 C224.225245,16.7500034 224.22416,16.7439922 224.223001,16.7375639 C224.013675,15.4271946 222.782845,14.5348275 221.473353,14.744013 C201.647798,17.9052007 166.128352,23.4749467 139.124045,27.7042935 C162.617403,27.2911436 191.435584,26.7842148 225.708085,26.1812306 Z M74.4826727,116.974847 C75.5806821,120.180492 76.7596432,123.606658 78.0195288,127.253258 C78.0198263,127.254045 78.0201273,127.25484 78.0204319,127.255646 C78.0228154,127.262195 78.0228154,127.262195 78.0251316,127.26863 C78.0432219,127.320436 78.0432219,127.320436 78.0511855,127.344697 C78.4630353,128.604732 79.8186717,129.291942 81.0066862,128.904414 C94.7726731,123.926064 106.395283,119.79243 115.874565,116.503554 L76.4289389,117.197807 C75.7570136,117.209726 75.1044302,117.131712 74.4826727,116.974847 Z M210.602921,11.4079841 C210.247785,10.3077313 209.801961,8.92661355 209.219092,7.12096942 L209.216092,7.11196942 C209.214967,7.10859442 209.214967,7.10859442 209.208514,7.08910273 C208.796528,5.82864979 207.440611,5.1409951 206.180079,5.55349702 C195.931343,8.90610825 179.637457,13.9351817 163.728728,18.786982 C180.293925,16.1883445 197.288626,13.5165279 210.602921,11.4079841 Z" id="Combined-Shape"></path>
                <path d="M46.1028183,125.785977 L62.3588807,91.0008719 L66.3061193,92.8455281 L48.5621817,130.814423 L0.00040551,119.757933 L22.891809,32.2918171 L61.9936523,41.5543639 L60.9893477,45.7940361 L26.029191,37.5125829 L5.35459449,116.508467 L46.1028183,125.785977 Z M86.2283364,52.4615 C87.7769019,51.0878426 89.8148991,50.2537 92.0477,50.2537 L102.8207,50.2537 C107.66585,50.2537 111.5937,54.1815496 111.5937,59.0267 C111.5937,61.9533689 110.160019,64.5454493 107.956627,66.1390288 C109.804439,70.4870393 108.267797,77.460785 103.425068,78.6834487 C100.222401,79.4918567 84.4330255,79.4918567 54.9021175,78.7490111 L55.0116825,74.3933889 C83.6007745,75.1125433 99.7693994,75.1125433 102.358619,74.4589799 C104.188116,73.9970794 104.872464,69.7111985 103.916758,67.7308934 C103.55769,67.7756465 103.191886,67.7987 102.8207,67.7987 L92.0477,67.7987 C87.2027592,67.7987 83.2747,63.8710599 83.2747,59.0267 C83.2747,58.2639878 83.3720334,57.5240065 83.5549564,56.8185 L36.4408,56.8185 L36.4408,52.4615 L86.2283364,52.4615 Z M92.0477,54.8497 C89.7408504,54.8497 87.8707,56.7198504 87.8707,59.0267 C87.8707,61.3326494 89.7409501,63.2027 92.0477,63.2027 L102.8207,63.2027 C105.12745,63.2027 106.9977,61.3326494 106.9977,59.0267 C106.9977,56.7198504 105.12755,54.8497 102.8207,54.8497 L92.0477,54.8497 Z" id="Combined-Shape"></path>
                <path d="M232.2606,80.7396 L232.7166,107.0526 L207.6696,107.4926 C207.5906,93.2466 218.4556,81.4966 232.2606,80.7396" id="Fill-11"></path>
                <path d="M231.8499,59.6747 L230.9369,33.3727 L205.9019,34.2537 C206.5639,48.4847 218.0249,59.6457 231.8499,59.6747" id="Fill-13"></path>
                <path d="M75.2026,37.5426 L100.2376,36.6626 C100.3526,41.6616 98.8706,46.3416 96.4326,50.3726 C94.9286,52.8616 90.2576,52.7236 88.1746,54.6396 C86.4436,56.2336 84.2236,55.5236 81.9766,55.5186 C78.8306,55.5116 75.8266,55.5556 75.7576,53.5546 C75.6336,49.9966 75.4486,44.6586 75.2026,37.5426 Z" id="Fill-15"></path>
                <path d="M76.4246,83.3729 L76.8806,109.6859 L101.9276,109.2459 C101.5126,95.0059 90.2466,83.6439 76.4246,83.3729" id="Fill-17"></path>
                <path d="M154.6151,94.1161 C166.9471,94.1161 176.9431,84.0521 176.9431,71.6371 C176.9431,59.2211 166.9471,49.1571 154.6151,49.1571 C142.2841,49.1571 132.2871,59.2211 132.2871,71.6371 C132.2871,84.0521 142.2841,94.1161 154.6151,94.1161" id="Fill-19"></path>
            </g>
            <g id="Group-26" transform="translate(36.000000, 54.567000)">
                <g id="Fill-24-Clipped">
                    <mask id="mask-2" fill="white">
                        <use xlink:href="#path-1"></use>
                    </mask>
                    <g id="path-1"></g>
                    <polygon id="Fill-24" fill="#000000" mask="url(#mask-2)" points="-4.559 5.64 56.632 5.64 56.632 -4.36 -4.559 -4.36"></polygon>
                </g>
            </g>
            <g id="Group-33" transform="translate(36.000000, 50.567000)"></g>
        </g>
    </g>
</svg>