<svg xmlns="http://www.w3.org/2000/svg" width="29" height="29" viewBox="0 0 29 29">
    <g fill="none" fill-rule="evenodd">
        <path fill="#59BA45" d="M28.983 14.5c0 7.969-6.47 14.455-14.432 14.484H14.5C6.514 28.984.016 22.486.016 14.5S6.514.017 14.5.017h.05C22.514.045 28.984 6.532 28.984 14.5z"/>
        <path fill="#FFF" d="M21.074 12.414l-7.933 7.934c-.333.333-.77.499-1.206.499a1.7 1.7 0 0 1-1.206-.5l-3.03-3.03a1.705 1.705 0 1 1 2.41-2.412l1.826 1.825 6.728-6.727a1.704 1.704 0 1 1 2.41 2.411z"/>
        <path fill="#FFF" d="M21.074 12.414l-6.523 6.524v-4.823l4.112-4.112a1.704 1.704 0 1 1 2.41 2.411z"/>
    </g>
</svg>
