<svg xmlns="http://www.w3.org/2000/svg" xmlns:xlink="http://www.w3.org/1999/xlink" width="42" height="26" viewBox="0 0 42 26">
    <defs>
        <path id="a" d="M.006.086H41.96V26H.006z"/>
    </defs>
    <g fill="none" fill-rule="evenodd">
        <g>
            <mask id="b" fill="#fff">
                <use xlink:href="#a"/>
            </mask>
            <path fill="#9B9B9B" d="M38.319 24.6V13.042c0-7.145-6.002-12.957-13.38-12.957h-7.945C9.617.086 3.615 5.898 3.615 13.043v11.556H0V26h41.96v-1.4h-3.641z" mask="url(#b)"/>
        </g>
        <path fill="#ECECEC" d="M5.061 24.6V13.042c0-6.373 5.353-11.557 11.933-11.557h7.945c6.58 0 11.934 5.184 11.934 11.557v11.556H5.06z"/>
        <path fill="#9B9B9B" d="M16.557 14.797l-7.23.7a.707.707 0 0 0-.647.767.715.715 0 0 0 .79.627l7.23-.7a.707.707 0 0 0 .648-.766c-.04-.385-.384-.664-.791-.628zM32.607 15.497l-7.23-.7a.717.717 0 0 0-.792.627c-.04.386.25.729.648.767l7.23.7a.715.715 0 0 0 .792-.627.707.707 0 0 0-.648-.767zM21.321 16.895h-.709c-1.399 0-2.537 1.1-2.537 2.451v1.751c0 .387.323.7.723.7h4.338c.4 0 .723-.313.723-.7v-1.75c0-1.352-1.138-2.452-2.538-2.452z"/>
        <path fill="#E6E6E6" d="M22.413 20.397H19.52v-1.05c0-.58.49-1.051 1.091-1.051h.71c.6 0 1.09.47 1.09 1.05v1.05z"/>
    </g>
</svg>
