<?xml version="1.0" encoding="UTF-8"?>
<svg width="10px" height="12px" viewBox="0 0 10 12" version="1.1" xmlns="http://www.w3.org/2000/svg" xmlns:xlink="http://www.w3.org/1999/xlink">
    <title>time</title>
    <defs>
        <linearGradient x1="50%" y1="0%" x2="50%" y2="100%" id="linearGradient-1">
            <stop stop-color="#FBD249" offset="0%"></stop>
            <stop stop-color="#F5A623" offset="100%"></stop>
        </linearGradient>
    </defs>
    <g id="Page-1" stroke="none" stroke-width="1" fill="none" fill-rule="evenodd">
        <g id="2-home" transform="translate(-224.000000, -167.000000)" fill="url(#linearGradient-1)">
            <g id="Group-11" transform="translate(88.000000, 104.000000)">
                <g id="Group-6" transform="translate(0.000000, 60.000000)">
                    <g id="Group-2" transform="translate(136.000000, 0.000000)">
                        <g id="stopwatch" transform="translate(0.000000, 3.000000)">
                            <path d="M8.33806075,1.14642523 L9.83338785,2.64175234 L9.13556075,3.33957944 L8.73679907,2.94081776 L8.3878972,3.28971963 C10.1324533,4.88474299 10.4813551,7.47663551 9.23525701,9.52025701 C7.8396028,11.9127804 4.7492757,12.6604439 2.40658879,11.2149533 C0.0639018692,9.76946262 -0.683738318,6.77880841 0.711892523,4.38628505 C2.10752336,1.99376168 5.19787383,1.24609813 7.5903972,2.69158879 L7.5903972,2.69158879 L8.03899533,2.24299065 L7.64023364,1.84425234 L8.33806075,1.14642523 Z M4.99848131,3.43925234 C3.05455607,3.43925234 1.50939252,4.98443925 1.50939252,6.92836449 C1.50939252,8.87228972 3.05455607,10.4174533 4.99848131,10.4174533 C6.94240654,10.4174533 8.48757009,8.87226636 8.48757009,6.92834112 L8.48757009,6.92834112 L4.99848131,6.92834112 Z M6.49383178,9.1038288e-15 L6.49383178,0.996892523 L5.49693925,0.996892523 L5.49693925,1.4953271 C5.14801402,1.44549065 4.8489486,1.44549065 4.50004673,1.4953271 L4.50004673,1.4953271 L4.50004673,0.996892523 L3.50315421,0.996892523 L3.50315421,9.1038288e-15 L6.49383178,9.1038288e-15 Z" id="time"></path>
                        </g>
                    </g>
                </g>
            </g>
        </g>
    </g>
</svg>